{
.formatVersion = 3;
axes = (
{
name = Weight;
tag = wght;
}
);
classes = (
{
code = "A O Scedilla Tcedilla aacute abreve acircumflex adieresis agrave amacron aogonek aring atilde j o scedilla tcedilla u uacute ubreve ucircumflex udieresis ugrave uhungarumlaut umacron uogonek uring utilde acyr zero.numerator one.numerator two.numerator three.numerator four.numerator five.numerator six.numerator seven.numerator eight.numerator nine.numerator exclamdown questiondown hyphen softhyphen endash emdash quoteright guillemotleft guillemotright guilsinglleft guilsinglright cent dollar Euro hryvnia ruble sterling tenge yen cent.tab dollar.tab Euro.tab hryvnia.tab ruble.tab sterling.tab tenge.tab yen.tab at dieresiscomb dotaccentcomb gravecomb acutecomb hungarumlautcomb circumflexcomb caroncomb brevecomb ringcomb tildecomb macroncomb commaaccentcomb cedillacomb ogonekcomb brevecombcy descendercy.alt";
name = aalt;
},
{
code = "ordfeminine ordmasculine Scommaaccent Tcommaaccent dotlessj ordmasculine scommaaccent tcommaaccent zero.denominator one.denominator two.denominator three.denominator four.denominator five.denominator six.denominator seven.denominator eight.denominator nine.denominator exclamdown.case questiondown.case hyphen.case softhyphen.case endash.case emdash.case quoteright.case guillemotleft.case guillemotright.case guilsinglleft.case guilsinglright.case cent.tab dollar.tab Euro.tab hryvnia.tab ruble.tab sterling.tab tenge.tab yen.tab cent dollar Euro hryvnia ruble sterling tenge yen at.case dieresiscomb.case dotaccentcomb.case gravecomb.case acutecomb.case hungarumlautcomb.case circumflexcomb.case caroncomb.case brevecomb.case ringcomb.case tildecomb.case macroncomb.case commaaccentcomb.case cedillacomb.case ogonekcomb.case brevecombcy.case descendercy.alt.case";
name = aalt2;
},
{

glyphs = (
{
glyphname = .notdef;
layers = (
{
layerId = "33B6963F-6F20-48B1-9EF3-C92BB9E42515";
shapes = (
{
closed = 1;
nodes = (
(418,-16,o),
(475,-6,o),
(510,26,cs),
(545,58,o),
(556,112,o),
(556,199,cs),
(556,491,ls),
(556,584,o),
(545,642,o),
(510,676,cs),
(475,710,o),
(418,721,o),
(323,721,cs),
(230,721,o),
(172,710,o),
(137,677,cs),
(102,644,o),
(90,587,o),
(90,496,cs),
(88,199,ls),
(88,112,o),
(98,58,o),
(134,26,cs),
(169,-6,o),
(227,-16,o),
(323,-16,cs)
);
},
{
closed = 1;
nodes = (
(209,97,l),
(209,277,l),
(228,280,o),
(244,281,o),
(263,281,cs),
(282,281,o),
(301,279,o),
(316,271,c),
(331,262,o),
(341,247,o),
(341,220,cs),
(341,196,o),
(332,181,o),
(320,171,c),
(307,161,o),
(290,156,o),
(271,156,cs),
(251,156,l),
(251,97,l)
);
},
{
closed = 1;
nodes = (
(264,192,ls),
(281,191,o),
(298,197,o),
(298,221,cs),
(298,241,o),
(282,246,o),
(265,246,cs),
(261,246,o),
(256,245,o),
(251,244,c),
(251,193,l)
);
},
{
closed = 1;
nodes = (
(359,94,o),
(347,102,o),
(347,118,cs),
(347,126,o),
(348,134,o),
(351,142,c),
(370,210,l),
(351,210,l),
(351,221,l),
(359,228,o),
(369,234,o),
(377,238,c),
(382,257,l),
(391,266,o),
(407,269,o),
(415,269,c),
(420,265,l),
(412,238,l),
(443,238,l),
(446,233,o),
(440,215,o),
(436,210,c),
(406,210,l),
(390,151,l),
(389,146,o),
(388,142,o),
(388,135,cs),
(388,128,o),
(392,123,o),
(399,123,cs),
(407,123,o),
(415,125,o),
(423,129,c),
(423,114,l),
(408,102,o),
(391,94,o),
(372,94,cs)
);
},
{
closed = 1;
nodes = (
(308,428,l),
(308,538,l),
(317,533,o),
(326,530,o),
(335,527,c),
(335,428,l)
);
},
{
closed = 1;
nodes = (
(283,364,o),
(248,380,o),
(224,405,cs),
(199,430,o),
(183,465,o),
(183,504,cs),
(183,543,o),
(199,578,o),
(224,603,cs),
(248,628,o),
(283,644,o),
(322,644,cs),
(361,644,o),
(395,628,o),
(420,603,cs),
(445,578,o),
(461,543,o),
(461,504,cs),
(461,464,o),
(445,429,o),
(421,405,cs),
(396,380,o),
(361,364,o),
(322,364,cs)
);
},
{
closed = 1;
nodes = (
(354,391,o),
(383,403,o),
(404,423,cs),
(424,443,o),
(436,472,o),
(436,504,cs),
(436,536,o),
(423,564,o),
(403,584,cs),
(383,604,o),
(354,617,o),
(322,617,cs),
(290,617,o),
(261,604,o),
(241,584,cs),
(220,564,o),
(208,536,o),
(208,504,cs),
(208,472,o),
(220,444,o),
(241,424,c),
(261,403,o),
(290,391,o),
(322,391,cs)
);
},
{
closed = 1;
nodes = (
(257,535,l),
(256,566,o),
(270,579,o),
(291,579,cs),
(302,579,o),
(312,575,o),
(323,568,c),
(332,564,o),
(341,559,o),
(348,559,cs),
(359,559,o),
(362,566,o),
(362,581,c),
(383,581,l),
(386,546,o),
(371,535,o),
(351,535,cs),
(340,535,o),
(330,540,o),
(319,547,c),
(308,551,o),
(301,556,o),
(293,556,cs),
(284,556,o),
(278,551,o),
(278,535,c)
);
}
);
width = 643;
},
{
layerId = "BFB6D85B-0443-425C-887B-8FE5CF94470C";
shapes = (
{
closed = 1;
nodes = (
(418,-16,o),
(475,-6,o),
(510,26,cs),
(545,58,o),
(556,112,o),
(556,199,cs),
(556,491,ls),
(556,584,o),
(545,642,o),
(510,676,cs),
(475,710,o),
(418,721,o),
(323,721,cs),
(230,721,o),
(172,710,o),
(137,677,cs),
(102,644,o),
(90,587,o),
(90,496,cs),
(88,199,ls),
(88,112,o),
(98,58,o),
(134,26,cs),
(169,-6,o),
(227,-16,o),
(323,-16,cs)
);
},
{
closed = 1;
nodes = (
(209,97,l),
(209,277,l),
(228,280,o),
(244,281,o),
(263,281,cs),
(282,281,o),
(301,279,o),
(316,271,c),
(331,262,o),
(341,247,o),
(341,220,cs),
(341,196,o),
(332,181,o),
(320,171,c),
(307,161,o),
(290,156,o),
(271,156,cs),
(251,156,l),
(251,97,l)
);
},
{
closed = 1;
nodes = (
(264,192,ls),
(281,191,o),
(298,197,o),
(298,221,cs),
(298,241,o),
(282,246,o),
(265,246,cs),
(261,246,o),
(256,245,o),
(251,244,c),
(251,193,l)
);
},
{
closed = 1;
nodes = (
(359,94,o),
(347,102,o),
(347,118,cs),
(347,126,o),
(348,134,o),
(351,142,c),
(370,210,l),
(351,210,l),
(351,221,l),
(359,228,o),
(369,234,o),
(377,238,c),
(382,257,l),
(391,266,o),
(407,269,o),
(415,269,c),
(420,265,l),
(412,238,l),
(443,238,l),
(446,233,o),
(440,215,o),
(436,210,c),
(406,210,l),
(390,151,l),
(389,146,o),
(388,142,o),
(388,135,cs),
(388,128,o),
(392,123,o),
(399,123,cs),
(407,123,o),
(415,125,o),
(423,129,c),
(423,114,l),
(408,102,o),
(391,94,o),
(372,94,cs)
);
},
{
closed = 1;
nodes = (
(308,428,l),
(308,538,l),
(317,533,o),
(326,530,o),
(335,527,c),
(335,428,l)
);
},
{
closed = 1;
nodes = (
(283,364,o),
(248,380,o),
(224,405,cs),
(199,430,o),
(183,465,o),
(183,504,cs),
(183,543,o),
(199,578,o),
(224,603,cs),
(248,628,o),
(283,644,o),
(322,644,cs),
(361,644,o),
(395,628,o),
(420,603,cs),
(445,578,o),
(461,543,o),
(461,504,cs),
(461,464,o),
(445,429,o),
(421,405,cs),
(396,380,o),
(361,364,o),
(322,364,cs)
);
},
{
closed = 1;
nodes = (
(354,391,o),
(383,403,o),
(404,423,cs),
(424,443,o),
(436,472,o),
(436,504,cs),
(436,536,o),
(423,564,o),
(403,584,cs),
(383,604,o),
(354,617,o),
(322,617,cs),
(290,617,o),
(261,604,o),
(241,584,cs),
(220,564,o),
(208,536,o),
(208,504,cs),
(208,472,o),
(220,444,o),
(241,424,c),
(261,403,o),
(290,391,o),
(322,391,cs)
);
},
{
closed = 1;
nodes = (
(257,535,l),
(256,566,o),
(270,579,o),
(291,579,cs),
(302,579,o),
(312,575,o),
(323,568,c),
(332,564,o),
(341,559,o),
(348,559,cs),
(359,559,o),
(362,566,o),
(362,581,c),
(383,581,l),
(386,546,o),
(371,535,o),
(351,535,cs),
(340,535,o),
(330,540,o),
(319,547,c),
(308,551,o),
(301,556,o),
(293,556,cs),
(284,556,o),
(278,551,o),
(278,535,c)
);
}
);
width = 643;
},
{
layerId = "241EF7EF-D36E-442A-9877-44FE28558D1E";
shapes = (
{
closed = 1;
nodes = (
(418,-16,o),
(475,-6,o),
(510,26,cs),
(545,58,o),
(556,112,o),
(556,199,cs),
(556,491,ls),
(556,584,o),
(545,642,o),
(510,676,cs),
(475,710,o),
(418,721,o),
(323,721,cs),
(230,721,o),
(172,710,o),
(137,677,cs),
(102,644,o),
(90,587,o),
(90,496,cs),
(88,199,ls),
(88,112,o),
(98,58,o),
(134,26,cs),
(169,-6,o),
(227,-16,o),
(323,-16,cs)
);
},
{
closed = 1;
nodes = (
(209,97,l),
(209,277,l),
(228,280,o),
(244,281,o),
(263,281,cs),
(282,281,o),
(301,279,o),
(316,271,c),
(331,262,o),
(341,247,o),
(341,220,cs),
(341,196,o),
(332,181,o),
(320,171,c),
(307,161,o),
(290,156,o),
(271,156,cs),
(251,156,l),
(251,97,l)
);
},
{
closed = 1;
nodes = (
(264,192,ls),
(281,191,o),
(298,197,o),
(298,221,cs),
(298,241,o),
(282,246,o),
(265,246,cs),
(261,246,o),
(256,245,o),
(251,244,c),
(251,193,l)
);
},
{
closed = 1;
nodes = (
(359,94,o),
(347,102,o),
(347,118,cs),
(347,126,o),
(348,134,o),
(351,142,c),
(370,210,l),
(351,210,l),
(351,221,l),
(359,228,o),
(369,234,o),
(377,238,c),
(382,257,l),
(391,266,o),
(407,269,o),
(415,269,c),
(420,265,l),
(412,238,l),
(443,238,l),
(446,233,o),
(440,215,o),
(436,210,c),
(406,210,l),
(390,151,l),
(389,146,o),
(388,142,o),
(388,135,cs),
(388,128,o),
(392,123,o),
(399,123,cs),
(407,123,o),
(415,125,o),
(423,129,c),
(423,114,l),
(408,102,o),
(391,94,o),
(372,94,cs)
);
},
{
closed = 1;
nodes = (
(308,428,l),
(308,538,l),
(317,533,o),
(326,530,o),
(335,527,c),
(335,428,l)
);
},
{
closed = 1;
nodes = (
(283,364,o),
(248,380,o),
(224,405,cs),
(199,430,o),
(183,465,o),
(183,504,cs),
(183,543,o),
(199,578,o),
(224,603,cs),
(248,628,o),
(283,644,o),
(322,644,cs),
(361,644,o),
(395,628,o),
(420,603,cs),
(445,578,o),
(461,543,o),
(461,504,cs),
(461,464,o),
(445,429,o),
(421,405,cs),
(396,380,o),
(361,364,o),
(322,364,cs)
);
},
{
closed = 1;
nodes = (
(354,391,o),
(383,403,o),
(404,423,cs),
(424,443,o),
(436,472,o),
(436,504,cs),
(436,536,o),
(423,564,o),
(403,584,cs),
(383,604,o),
(354,617,o),
(322,617,cs),
(290,617,o),
(261,604,o),
(241,584,cs),
(220,564,o),
(208,536,o),
(208,504,cs),
(208,472,o),
(220,444,o),
(241,424,c),
(261,403,o),
(290,391,o),
(322,391,cs)
);
},
{
closed = 1;
nodes = (
(257,535,l),
(256,566,o),
(270,579,o),
(291,579,cs),
(302,579,o),
(312,575,o),
(323,568,c),
(332,564,o),
(341,559,o),
(348,559,cs),
(359,559,o),
(362,566,o),
(362,581,c),
(383,581,l),
(386,546,o),
(371,535,o),
(351,535,cs),
(340,535,o),
(330,540,o),
(319,547,c),
(308,551,o),
(301,556,o),
(293,556,cs),
(284,556,o),
(278,551,o),
(278,535,c)
);
}
);
width = 643;
}
);
},
{
glyphname = A;
layers = (
{
layerId = "33B6963F-6F20-48B1-9EF3-C92BB9E42515";
shapes = (
{
closed = 1;
nodes = (
(-34,0,l),
(58,0,l),
(409,600,l),
(370,600,l),
(483,0,l),
(580,0,l),
(439,700,l),
(383,700,l)
);
},
{
closed = 1;
nodes = (
(143,181,l),
(469,181,l),
(485,262,l),
(159,262,l)
);
}
);
width = 666;
},
{
layerId = "241EF7EF-D36E-442A-9877-44FE28558D1E";
shapes = (
{
closed = 1;
nodes = (
(-15,0,l),
(31,0,l),
(408,635,l),
(388,635,l),
(514,0,l),
(560,0,l),
(420,700,l),
(404,700,l)
);
},
{
closed = 1;
nodes = (
(147,221,l),
(482,221,l),
(491,264,l),
(156,264,l)
);
}
);
width = 666;
},
{
layerId = "BFB6D85B-0443-425C-887B-8FE5CF94470C";
shapes = (
{
closed = 1;
nodes = (
(-70,0,l),
(101,0,l),
(383,508,l),
(351,508,l),
(430,0,l),
(616,0,l),
(485,700,l),
(335,700,l)
);
},
{
closed = 1;
nodes = (
(136,123,l),
(448,123,l),
(476,262,l),
(164,262,l)
);
}
);
width = 666;
}
);
leftKerningGroup = public.kern2.A2;
rightKerningGroup = public.kern1.A;
unicode = 65;
},
{
glyphname = AE;
layers = (
{
layerId = "33B6963F-6F20-48B1-9EF3-C92BB9E42515";
shapes = (
{
closed = 1;
nodes = (
(592,334,l),
(808,334,l),
(824,415,l),
(609,415,l),
(649,618,l),
(913,618,l),
(929,700,l),
(577,700,l),
(-26,0,l),
(74,0,l),
(548,555,l),
(437,0,l),
(799,0,l),
(815,82,l),
(542,82,l)
);
},
{
closed = 1;
nodes = (
(507,274,l),
(291,274,l),
(220,191,l),
(490,191,l)
);
}
);
width = 943;
},
{
layerId = "241EF7EF-D36E-442A-9877-44FE28558D1E";
shapes = (
{
closed = 1;
nodes = (
(560,357,l),
(808,357,l),
(817,401,l),
(569,401,l),
(621,658,l),
(917,658,l),
(926,700,l),
(586,700,l),
(-34,0,l),
(17,0,l),
(570,627,l),
(445,0,l),
(796,0,l),
(804,42,l),
(497,42,l)
);
},
{
closed = 1;
nodes = (
(513,265,l),
(237,265,l),
(200,222,l),
(504,222,l)
);
}
);
width = 943;
},
{
layerId = "BFB6D85B-0443-425C-887B-8FE5CF94470C";
shapes = (
{
closed = 1;
nodes = (
(637,299,l),
(794,299,l),
(823,444,l),
(666,444,l),
(687,550,l),
(895,550,l),
(925,700,l),
(541,700,l),
(-22,0,l),
(147,0,l),
(487,433,l),
(401,0,l),
(795,0,l),
(825,150,l),
(607,150,l)
);
},
{
closed = 1;
nodes = (
(467,259,l),
(336,259,l),
(210,99,l),
(435,99,l)
);
}
);
width = 943;
}
);
rightKerningGroup = public.kern1.E;
unicode = 198;
},
{
glyphname = B;
layers = (
{
layerId = "33B6963F-6F20-48B1-9EF3-C92BB9E42515";
shapes = (
{
closed = 1;
nodes = (
(47,0,l),
(238,0,ls),
(362,0,o),
(494,70,o),
(522,209,cs),
(533,262,o),
(523,308,o),
(498,341,c),
(472,372,o),
(431,391,o),
(380,394,c),
(381,378,l),
(456,397,o),
(516,459,o),
(531,535,cs),
(541,584,o),
(530,625,o),
(504,655,c),
(476,683,o),
(431,700,o),
(371,700,cs),
(187,700,l)
);
},
{
closed = 1;
nodes = (
(140,38,l),
(265,659,l),
(224,618,l),
(330,618,ls),
(417,618,o),
(452,585,o),
(439,521,cs),
(423,443,o),
(356,414,o),
(289,414,cs),
(195,414,l),
(180,337,l),
(302,337,ls),
(347,337,o),
(385,328,o),
(408,307,cs),
(431,287,o),
(440,255,o),
(432,214,cs),
(412,112,o),
(320,82,o),
(234,82,cs),
(117,82,l)
);
}
);
width = 600;
},
{
layerId = "241EF7EF-D36E-442A-9877-44FE28558D1E";
shapes = (
{
closed = 1;
nodes = (
(71,0,l),
(220,0,ls),
(341,0,o),
(474,62,o),
(502,200,cs),
(515,265,o),
(498,313,o),
(465,344,c),
(431,374,o),
(379,387,o),
(322,388,c),
(308,371,l),
(401,384,o),
(500,431,o),
(521,538,cs),
(531,587,o),
(521,628,o),
(493,656,c),
(463,684,o),
(420,700,o),
(358,700,cs),
(211,700,l)
);
},
{
closed = 1;
nodes = (
(120,24,l),
(250,674,l),
(229,658,l),
(341,658,ls),
(455,658,o),
(492,611,o),
(476,532,cs),
(456,430,o),
(353,401,o),
(270,401,cs),
(188,401,l),
(179,358,l),
(288,358,ls),
(342,358,o),
(392,347,o),
(423,322,c),
(454,295,o),
(468,255,o),
(457,198,cs),
(434,82,o),
(319,42,o),
(221,42,cs),
(106,42,l)
);
}
);
width = 600;
},
{
layerId = "BFB6D85B-0443-425C-887B-8FE5CF94470C";
shapes = (
{
closed = 1;
nodes = (
(-8,0,l),
(268,0,ls),
(395,0,o),
(533,73,o),
(561,215,cs),
(572,271,o),
(561,315,o),
(533,345,cs),
(504,375,o),
(456,391,o),
(393,392,c),
(374,357,l),
(474,363,o),
(562,424,o),
(583,530,cs),
(593,578,o),
(583,622,o),
(554,652,cs),
(524,682,o),
(472,700,o),
(395,700,cs),
(132,700,l)
);
},
{
closed = 1;
nodes = (
(182,72,l),
(291,614,l),
(212,550,l),
(346,550,ls),
(388,550,o),
(409,533,o),
(400,490,cs),
(391,445,o),
(360,422,o),
(317,422,cs),
(187,422,l),
(161,292,l),
(309,292,ls),
(337,292,o),
(358,286,o),
(369,274,cs),
(380,262,o),
(383,246,o),
(378,223,cs),
(365,160,o),
(309,150,o),
(259,150,cs),
(132,150,l)
);
}
);
width = 600;
}
);
unicode = 66;
},
{
glyphname = Becyr;
layers = (
{
layerId = "33B6963F-6F20-48B1-9EF3-C92BB9E42515";
shapes = (
{
closed = 1;
nodes = (
(48,0,l),
(212,0,ls),
(294,0,o),
(361,21,o),
(411,58,cs),
(461,95,o),
(494,148,o),
(507,213,cs),
(520,277,o),
(508,328,o),
(473,364,cs),
(437,400,o),
(378,420,o),
(296,420,cs),
(221,420,l),
(260,618,l),
(528,618,l),
(544,700,l),
(187,700,l)
);
},
{
closed = 1;
nodes = (
(153,82,l),
(204,339,l),
(271,339,ls),
(334,339,o),
(373,325,o),
(396,302,cs),
(418,279,o),
(423,247,o),
(416,211,cs),
(408,170,o),
(387,139,o),
(355,117,cs),
(323,95,o),
(279,82,o),
(223,82,cs)
);
}
);
width = 587;
},
{
layerId = "241EF7EF-D36E-442A-9877-44FE28558D1E";
shapes = (
{
closed = 1;
nodes = (
(69,0,l),
(185,0,ls),
(275,0,o),
(345,20,o),
(395,56,cs),
(445,92,o),
(476,143,o),
(488,204,cs),
(500,263,o),
(489,313,o),
(454,349,c),
(418,384,o),
(357,404,o),
(266,404,cs),
(193,404,l),
(244,658,l),
(519,658,l),
(527,700,l),
(208,700,l)
);
},
{
closed = 1;
nodes = (
(121,42,l),
(185,361,l),
(258,361,ls),
(336,361,o),
(389,345,o),
(417,316,cs),
(445,287,o),
(451,248,o),
(442,203,cs),
(432,154,o),
(407,114,o),
(366,87,cs),
(324,59,o),
(264,42,o),
(187,42,cs)
);
}
);
width = 587;
},
{
layerId = "BFB6D85B-0443-425C-887B-8FE5CF94470C";
shapes = (
{
closed = 1;
nodes = (
(2,0,l),
(257,0,ls),
(327,0,o),
(390,21,o),
(441,61,cs),
(492,100,o),
(529,157,o),
(543,229,cs),
(557,300,o),
(544,355,o),
(508,393,cs),
(472,431,o),
(416,450,o),
(346,450,cs),
(268,450,l),
(288,550,l),
(553,550,l),
(583,700,l),
(142,700,l)
);
},
{
closed = 1;
nodes = (
(208,150,l),
(238,300,l),
(291,300,ls),
(322,300,o),
(343,291,o),
(354,278,cs),
(365,265,o),
(368,247,o),
(364,227,cs),
(359,202,o),
(347,182,o),
(330,170,c),
(313,157,o),
(290,150,o),
(264,150,cs)
);
}
);
width = 587;
}
);
unicode = 1041;
},
{
glyphname = C;
layers = (
{
layerId = "33B6963F-6F20-48B1-9EF3-C92BB9E42515";
shapes = (
{
closed = 1;
nodes = (
(426,-10,o),
(473,-1,o),
(514,13,cs),
(555,26,o),
(588,45,o),
(616,65,c),
(588,137,l),
(558,115,o),
(526,100,o),
(493,89,c),
(461,79,o),
(427,75,o),
(395,75,cs),
(237,75,o),
(133,183,o),
(166,350,cs),
(199,513,o),
(342,625,o),
(500,625,cs),
(565,625,o),
(621,606,o),
(664,571,c),
(718,645,l),
(671,684,o),
(602,710,o),
(512,710,cs),
(303,710,o),
(117,565,o),
(74,349,cs),
(30,129,o),
(162,-10,o),
(372,-10,cs)
);
}
);
width = 705;
},
{
layerId = "241EF7EF-D36E-442A-9877-44FE28558D1E";
shapes = (
{
closed = 1;
nodes = (
(409,-10,o),
(456,-1,o),
(498,13,cs),
(540,28,o),
(575,46,o),
(603,66,c),
(587,103,l),
(555,80,o),
(518,63,o),
(481,52,c),
(444,40,o),
(405,34,o),
(365,34,cs),
(182,34,o),
(76,163,o),
(114,351,cs),
(152,542,o),
(315,666,o),
(498,666,cs),
(572,666,o),
(635,643,o),
(678,607,c),
(710,645,l),
(663,682,o),
(599,710,o),
(506,710,cs),
(301,710,o),
(112,566,o),
(69,351,cs),
(25,130,o),
(148,-10,o),
(362,-10,cs)
);
}
);
width = 705;
},
{
layerId = "BFB6D85B-0443-425C-887B-8FE5CF94470C";
shapes = (
{
closed = 1;
nodes = (
(408,-7,o),
(459,2,o),
(505,17,cs),
(550,32,o),
(589,53,o),
(618,77,c),
(573,200,l),
(546,179,o),
(518,165,o),
(490,158,cs),
(462,151,o),
(437,149,o),
(417,149,cs),
(292,149,o),
(222,222,o),
(248,354,cs),
(272,474,o),
(367,555,o),
(485,555,cs),
(531,555,o),
(581,542,o),
(621,511,c),
(712,634,l),
(662,682,o),
(593,710,o),
(499,710,cs),
(288,710,o),
(104,567,o),
(60,348,cs),
(15,125,o),
(140,-7,o),
(353,-7,cs)
);
}
);
width = 705;
}
);
leftKerningGroup = public.kern2.C2;
rightKerningGroup = public.kern1.C;
unicode = 67;
},
{
glyphname = Checyr;
layers = (
{
layerId = "33B6963F-6F20-48B1-9EF3-C92BB9E42515";
shapes = (
{
closed = 1;
nodes = (
(353,276,o),
(416,284,o),
(452,291,c),
(469,375,l),
(412,364,o),
(359,361,o),
(316,361,cs),
(258,361,o),
(225,368,o),
(208,385,cs),
(191,402,o),
(188,429,o),
(196,469,cs),
(242,700,l),
(154,700,l),
(106,461,ls),
(92,390,o),
(102,343,o),
(133,315,c),
(163,286,o),
(215,276,o),
(282,276,cs)
);
},
{
closed = 1;
nodes = (
(380,0,l),
(469,0,l),
(609,700,l),
(520,700,l)
);
}
);
width = 636;
},
{
layerId = "241EF7EF-D36E-442A-9877-44FE28558D1E";
shapes = (
{
closed = 1;
nodes = (
(360,289,o),
(430,298,o),
(484,317,c),
(492,360,l),
(417,339,o),
(363,332,o),
(309,332,cs),
(245,332,o),
(205,342,o),
(185,365,cs),
(165,388,o),
(162,422,o),
(172,471,cs),
(218,700,l),
(174,700,l),
(126,461,ls),
(113,396,o),
(123,352,o),
(153,326,cs),
(183,300,o),
(231,289,o),
(297,289,cs)
);
},
{
closed = 1;
nodes = (
(411,0,l),
(454,0,l),
(594,700,l),
(551,700,l)
);
}
);
width = 636;
},
{
layerId = "BFB6D85B-0443-425C-887B-8FE5CF94470C";
shapes = (
{
closed = 1;
nodes = (
(342,252,o),
(408,270,o),
(445,285,c),
(476,439,l),
(417,416,o),
(362,407,o),
(319,407,cs),
(285,407,o),
(265,412,o),
(254,422,cs),
(243,432,o),
(241,446,o),
(246,469,cs),
(292,700,l),
(115,700,l),
(68,461,ls),
(52,380,o),
(63,328,o),
(99,296,cs),
(135,264,o),
(194,252,o),
(271,252,cs)
);
},
{
closed = 1;
nodes = (
(341,0,l),
(517,0,l),
(657,700,l),
(481,700,l)
);
}
);
width = 636;
}
);
leftKerningGroup = public.kern2.uni0427;
rightKerningGroup = public.kern1.uni0418;
unicode = 1063;
},
{
glyphname = Chetailcyr;
layers = (
{
layerId = "33B6963F-6F20-48B1-9EF3-C92BB9E42515";
shapes = (
{
closed = 1;
nodes = (
(427,0,l),
(482,0,l),
(456,-133,l),
(539,-133,l),
(582,82,l),
(450,82,l)
);
},
{
closed = 1;
nodes = (
(352,276,o),
(415,284,o),
(451,291,c),
(468,375,l),
(411,364,o),
(358,361,o),
(315,361,cs),
(257,361,o),
(223,368,o),
(206,385,cs),
(189,402,o),
(186,429,o),
(194,469,cs),
(240,700,l),
(152,700,l),
(104,461,ls),
(90,390,o),
(101,343,o),
(132,315,c),
(161,286,o),
(213,276,o),
(281,276,cs)
);
},
{
closed = 1;
nodes = (
(379,0,l),
(468,0,l),
(608,700,l),
(519,700,l)
);
}
);
width = 677;
},
{
layerId = "241EF7EF-D36E-442A-9877-44FE28558D1E";
shapes = (
{
closed = 1;
nodes = (
(450,0,l),
(532,0,l),
(507,-124,l),
(548,-124,l),
(581,42,l),
(459,42,l)
);
},
{
closed = 1;
nodes = (
(376,289,o),
(444,298,o),
(500,317,c),
(508,360,l),
(433,339,o),
(379,332,o),
(324,332,cs),
(260,332,o),
(223,342,o),
(202,365,cs),
(181,388,o),
(178,422,o),
(188,471,cs),
(233,700,l),
(189,700,l),
(141,461,ls),
(128,396,o),
(139,352,o),
(168,326,cs),
(197,300,o),
(246,289,o),
(312,289,cs)
);
},
{
closed = 1;
nodes = (
(427,0,l),
(471,0,l),
(611,700,l),
(567,700,l)
);
}
);
width = 677;
},
{
layerId = "BFB6D85B-0443-425C-887B-8FE5CF94470C";
shapes = (
{
closed = 1;
nodes = (
(402,0,l),
(446,0,l),
(416,-150,l),
(573,-150,l),
(633,150,l),
(473,150,l)
);
},
{
closed = 1;
nodes = (
(344,252,o),
(411,270,o),
(448,285,c),
(478,439,l),
(419,416,o),
(365,407,o),
(322,407,cs),
(288,407,o),
(267,412,o),
(256,422,cs),
(245,432,o),
(243,446,o),
(248,469,cs),
(294,700,l),
(118,700,l),
(70,461,ls),
(54,380,o),
(66,328,o),
(102,296,cs),
(138,264,o),
(196,252,o),
(273,252,cs)
);
},
{
closed = 1;
nodes = (
(344,0,l),
(520,0,l),
(660,700,l),
(483,700,l)
);
}
);
width = 677;
}
);
leftKerningGroup = public.kern2.uni0427;
rightKerningGroup = public.kern1.uni0414;
unicode = 1206;
},
{
glyphname = D;
layers = (
{
layerId = "33B6963F-6F20-48B1-9EF3-C92BB9E42515";
shapes = (
{
closed = 1;
nodes = (
(109,82,l),
(92,0,l),
(237,0,ls),
(448,0,o),
(629,126,o),
(674,351,cs),
(695,455,o),
(678,541,o),
(628,603,cs),
(577,665,o),
(492,700,o),
(377,700,cs),
(232,700,l),
(216,618,l),
(354,618,ls),
(439,618,o),
(505,593,o),
(545,548,cs),
(585,502,o),
(600,435,o),
(583,350,cs),
(548,174,o),
(412,82,o),
(246,82,cs)
);
},
{
closed = 1;
nodes = (
(278,700,l),
(190,700,l),
(50,0,l),
(139,0,l)
);
}
);
width = 729;
},
{
layerId = "241EF7EF-D36E-442A-9877-44FE28558D1E";
shapes = (
{
closed = 1;
nodes = (
(104,42,l),
(95,0,l),
(233,0,ls),
(446,0,o),
(621,134,o),
(665,356,cs),
(686,460,o),
(666,546,o),
(614,607,cs),
(562,666,o),
(477,700,o),
(366,700,cs),
(236,700,l),
(227,658,l),
(358,658,ls),
(459,658,o),
(534,629,o),
(577,576,cs),
(621,523,o),
(637,446,o),
(618,352,cs),
(579,155,o),
(425,42,o),
(237,42,cs)
);
},
{
closed = 1;
nodes = (
(253,700,l),
(210,700,l),
(70,0,l),
(114,0,l)
);
}
);
width = 729;
},
{
layerId = "BFB6D85B-0443-425C-887B-8FE5CF94470C";
shapes = (
{
closed = 1;
nodes = (
(115,150,l),
(84,0,l),
(249,0,ls),
(468,0,o),
(655,117,o),
(702,354,cs),
(723,458,o),
(709,544,o),
(659,605,cs),
(609,665,o),
(527,700,o),
(409,700,cs),
(225,700,l),
(195,550,l),
(348,550,ls),
(408,550,o),
(458,536,o),
(488,505,cs),
(518,473,o),
(530,424,o),
(516,355,cs),
(487,212,o),
(397,150,o),
(263,150,cs)
);
},
{
closed = 1;
nodes = (
(326,700,l),
(149,700,l),
(9,0,l),
(186,0,l)
);
}
);
width = 729;
}
);
rightKerningGroup = public.kern1.D;
unicode = 68;
},
{
glyphname = Decyr;
layers = (
{
layerId = "33B6963F-6F20-48B1-9EF3-C92BB9E42515";
shapes = (
{
closed = 1;
nodes = (
(126,49,l),
(172,116,o),
(213,196,o),
(247,288,cs),
(281,379,o),
(308,483,o),
(330,591,cs),
(344,664,l),
(265,618,l),
(606,618,l),
(564,660,l),
(445,63,l),
(533,63,l),
(660,700,l),
(265,700,l),
(241,579,ls),
(218,464,o),
(188,364,o),
(155,276,cs),
(121,187,o),
(81,112,o),
(36,49,c)
);
},
{
closed = 1;
nodes = (
(-50,-133,l),
(33,-133,l),
(60,0,l),
(532,0,l),
(505,-133,l),
(590,-133,l),
(633,82,l),
(-7,82,l)
);
}
);
width = 729;
},
{
layerId = "241EF7EF-D36E-442A-9877-44FE28558D1E";
shapes = (
{
closed = 1;
nodes = (
(106,27,l),
(153,102,o),
(194,188,o),
(228,280,cs),
(261,371,o),
(289,472,o),
(310,577,cs),
(330,677,l),
(297,658,l),
(618,658,l),
(603,675,l),
(474,31,l),
(517,31,l),
(651,700,l),
(292,700,l),
(268,579,ls),
(246,468,o),
(218,367,o),
(184,275,cs),
(150,183,o),
(110,102,o),
(65,35,c)
);
},
{
closed = 1;
nodes = (
(-30,-124,l),
(12,-124,l),
(37,0,l),
(572,0,l),
(547,-124,l),
(589,-124,l),
(622,42,l),
(3,42,l)
);
}
);
width = 729;
},
{
layerId = "BFB6D85B-0443-425C-887B-8FE5CF94470C";
shapes = (
{
closed = 1;
nodes = (
(171,62,l),
(217,123,o),
(256,194,o),
(288,278,cs),
(320,362,o),
(347,460,o),
(370,576,cs),
(386,656,l),
(224,550,l),
(598,550,l),
(514,656,l),
(399,80,l),
(576,80,l),
(700,700,l),
(226,700,l),
(202,579,ls),
(178,459,o),
(149,358,o),
(115,274,cs),
(80,189,o),
(41,120,o),
(-3,63,c)
);
},
{
closed = 1;
nodes = (
(-73,-150,l),
(84,-150,l),
(114,0,l),
(486,0,l),
(456,-150,l),
(613,-150,l),
(673,150,l),
(-13,150,l)
);
}
);
width = 729;
}
);
rightKerningGroup = public.kern1.uni0414;
unicode = 1044;
},
{
glyphname = Delta;
layers = (
{
layerId = "33B6963F-6F20-48B1-9EF3-C92BB9E42515";
shapes = (
{
closed = 1;
nodes = (
(-34,0,l),
(57,0,l),
(410,601,l),
(370,601,l),
(484,0,l),
(580,0,l),
(438,700,l),
(384,700,l)
);
},
{
closed = 1;
nodes = (
(29,0,l),
(519,0,l),
(535,80,l),
(45,80,l)
);
}
);
width = 666;
},
{
layerId = "241EF7EF-D36E-442A-9877-44FE28558D1E";
shapes = (
{
closed = 1;
nodes = (
(-15,0,l),
(31,0,l),
(408,635,l),
(388,635,l),
(514,0,l),
(560,0,l),
(419,700,l),
(404,700,l)
);
},
{
closed = 1;
nodes = (
(17,0,l),
(528,0,l),
(537,43,l),
(25,43,l)
);
}
);
width = 666;
},
{
layerId = "BFB6D85B-0443-425C-887B-8FE5CF94470C";
shapes = (
{
closed = 1;
nodes = (
(-70,0,l),
(101,0,l),
(383,508,l),
(351,508,l),
(430,0,l),
(616,0,l),
(485,700,l),
(335,700,l)
);
},
{
closed = 1;
nodes = (
(43,0,l),
(492,0,l),
(520,139,l),
(71,139,l)
);
}
);
width = 666;
}
);
unicode = 916;
},
{
glyphname = Djecyr;
layers = (
{
layerId = "33B6963F-6F20-48B1-9EF3-C92BB9E42515";
shapes = (
{
closed = 1;
nodes = (
(461,-95,o),
(518,-71,o),
(563,-26,cs),
(607,19,o),
(638,85,o),
(655,168,c),
(657,176,l),
(675,267,o),
(666,329,o),
(632,369,c),
(597,408,o),
(540,425,o),
(463,425,cs),
(427,425,o),
(395,420,o),
(363,412,cs),
(330,404,o),
(299,392,o),
(266,379,c),
(253,295,l),
(296,316,o),
(330,327,o),
(360,334,cs),
(389,341,o),
(412,343,o),
(435,343,cs),
(486,343,o),
(527,332,o),
(550,305,c),
(572,277,o),
(578,236,o),
(565,169,cs),
(564,164,ls),
(553,111,o),
(536,67,o),
(508,37,cs),
(480,7,o),
(444,-10,o),
(397,-10,cs),
(374,-10,o),
(349,-7,o),
(328,4,c),
(288,-73,l),
(310,-85,o),
(345,-95,o),
(387,-95,cs)
);
},
{
closed = 1;
nodes = (
(147,0,l),
(235,0,l),
(369,666,l),
(280,666,l)
);
},
{
closed = 1;
nodes = (
(95,618,l),
(609,618,l),
(625,700,l),
(112,700,l)
);
}
);
width = 743;
},
{
layerId = "241EF7EF-D36E-442A-9877-44FE28558D1E";
shapes = (
{
closed = 1;
nodes = (
(454,-95,o),
(512,-68,o),
(555,-23,cs),
(598,22,o),
(626,86,o),
(641,162,c),
(642,164,l),
(657,240,o),
(651,301,o),
(621,343,cs),
(590,385,o),
(537,407,o),
(462,407,cs),
(427,407,o),
(396,403,o),
(363,395,cs),
(330,387,o),
(297,377,o),
(263,362,c),
(254,318,l),
(292,335,o),
(327,346,o),
(360,354,cs),
(393,362,o),
(423,364,o),
(449,364,cs),
(505,364,o),
(549,349,o),
(575,316,cs),
(601,283,o),
(608,230,o),
(594,158,c),
(593,155,l),
(580,92,o),
(557,40,o),
(524,5,cs),
(489,-31,o),
(445,-51,o),
(387,-51,cs),
(359,-51,o),
(331,-44,o),
(310,-32,c),
(288,-74,l),
(309,-85,o),
(338,-95,o),
(380,-95,cs)
);
},
{
closed = 1;
nodes = (
(179,0,l),
(223,0,l),
(359,679,l),
(314,679,l)
);
},
{
closed = 1;
nodes = (
(115,658,l),
(634,658,l),
(642,700,l),
(124,700,l)
);
}
);
width = 743;
},
{
layerId = "BFB6D85B-0443-425C-887B-8FE5CF94470C";
shapes = (
{
closed = 1;
nodes = (
(490,-95,o),
(549,-71,o),
(596,-27,cs),
(643,18,o),
(677,84,o),
(693,165,cs),
(698,192,ls),
(719,296,o),
(705,360,o),
(666,397,cs),
(626,434,o),
(563,446,o),
(489,446,cs),
(442,446,o),
(402,439,o),
(367,431,cs),
(332,423,o),
(304,413,o),
(280,406,c),
(280,261,l),
(306,276,o),
(326,286,o),
(348,294,c),
(369,301,o),
(393,305,o),
(420,305,cs),
(459,305,o),
(491,299,o),
(508,282,cs),
(525,265,o),
(530,235,o),
(520,184,c),
(518,172,l),
(511,136,o),
(501,109,o),
(485,90,cs),
(469,70,o),
(449,60,o),
(423,60,cs),
(412,60,o),
(396,62,o),
(385,66,c),
(308,-69,l),
(328,-80,o),
(363,-95,o),
(419,-95,cs)
);
},
{
closed = 1;
nodes = (
(98,0,l),
(274,0,l),
(402,640,l),
(225,640,l)
);
},
{
closed = 1;
nodes = (
(63,550,l),
(580,550,l),
(610,700,l),
(93,700,l)
);
}
);
width = 743;
}
);
leftKerningGroup = public.kern2.uni0422;
rightKerningGroup = public.kern1.uni042C;
unicode = 1026;
},
{
glyphname = Dzhecyr;
layers = (
{
layerId = "33B6963F-6F20-48B1-9EF3-C92BB9E42515";
shapes = (
{
closed = 1;
nodes = (
(231,-133,l),
(313,-133,l),
(340,0,l),
(544,0,l),
(684,700,l),
(596,700,l),
(473,82,l),
(157,82,l),
(280,700,l),
(192,700,l),
(52,0,l),
(257,0,l)
);
}
);
width = 716;
},
{
layerId = "241EF7EF-D36E-442A-9877-44FE28558D1E";
shapes = (
{
closed = 1;
nodes = (
(252,-124,l),
(294,-124,l),
(319,0,l),
(529,0,l),
(668,700,l),
(624,700,l),
(493,42,l),
(119,42,l),
(250,700,l),
(207,700,l),
(67,0,l),
(277,0,l)
);
}
);
width = 716;
},
{
layerId = "BFB6D85B-0443-425C-887B-8FE5CF94470C";
shapes = (
{
closed = 1;
nodes = (
(190,-150,l),
(347,-150,l),
(377,0,l),
(583,0,l),
(723,700,l),
(547,700,l),
(437,150,l),
(218,150,l),
(328,700,l),
(152,700,l),
(12,0,l),
(220,0,l)
);
}
);
width = 716;
}
);
rightKerningGroup = public.kern1.uni0418;
unicode = 1039;
},
{
glyphname = E;
layers = (
{
layerId = "33B6963F-6F20-48B1-9EF3-C92BB9E42515";
shapes = (
{
closed = 1;
nodes = (
(52,0,l),
(424,0,l),
(441,82,l),
(157,82,l),
(206,331,l),
(434,331,l),
(450,412,l),
(223,412,l),
(264,618,l),
(538,618,l),
(555,700,l),
(192,700,l)
);
}
);
width = 564;
},
{
layerId = "241EF7EF-D36E-442A-9877-44FE28558D1E";
shapes = (
{
closed = 1;
nodes = (
(67,0,l),
(419,0,l),
(427,42,l),
(119,42,l),
(182,357,l),
(430,357,l),
(439,399,l),
(191,399,l),
(242,658,l),
(540,658,l),
(549,700,l),
(207,700,l)
);
}
);
width = 564;
},
{
layerId = "BFB6D85B-0443-425C-887B-8FE5CF94470C";
shapes = (
{
closed = 1;
nodes = (
(32,0,l),
(446,0,l),
(476,150,l),
(238,150,l),
(267,292,l),
(452,292,l),
(481,437,l),
(296,437,l),
(318,550,l),
(546,550,l),
(576,700,l),
(172,700,l)
);
}
);
width = 564;
}
);
rightKerningGroup = public.kern1.E;
unicode = 69;
},
{
glyphname = Efcyr;
layers = (
{
layerId = "33B6963F-6F20-48B1-9EF3-C92BB9E42515";
shapes = (
{
closed = 1;
nodes = (
(432,117,l),
(416,36,l),
(428,36,ls),
(617,36,o),
(786,158,o),
(826,356,cs),
(845,449,o),
(826,530,o),
(779,587,cs),
(732,644,o),
(655,678,o),
(558,678,cs),
(542,678,l),
(526,597,l),
(541,597,ls),
(610,597,o),
(664,573,o),
(699,531,cs),
(735,490,o),
(749,429,o),
(734,355,cs),
(705,208,o),
(591,117,o),
(447,117,cs)
);
},
{
closed = 1;
nodes = (
(355,36,l),
(372,117,l),
(357,117,ls),
(288,117,o),
(234,141,o),
(199,183,c),
(163,223,o),
(149,285,o),
(164,359,cs),
(193,505,o),
(308,597,o),
(451,597,cs),
(466,597,l),
(482,678,l),
(470,678,ls),
(282,678,o),
(112,556,o),
(72,358,cs),
(53,265,o),
(72,184,o),
(119,127,cs),
(166,70,o),
(243,36,o),
(340,36,cs)
);
},
{
closed = 1;
nodes = (
(567,736,l),
(479,736,l),
(325,-34,l),
(413,-34,l)
);
}
);
width = 874;
},
{
layerId = "241EF7EF-D36E-442A-9877-44FE28558D1E";
shapes = (
{
closed = 1;
nodes = (
(407,79,l),
(398,36,l),
(410,36,ls),
(598,36,o),
(765,163,o),
(804,359,cs),
(822,451,o),
(802,531,o),
(755,588,cs),
(707,644,o),
(632,678,o),
(540,678,cs),
(524,678,l),
(516,635,l),
(530,635,ls),
(607,635,o),
(673,608,o),
(715,560,cs),
(757,512,o),
(775,442,o),
(758,358,cs),
(724,186,o),
(588,79,o),
(421,79,cs)
);
},
{
closed = 1;
nodes = (
(373,36,l),
(381,79,l),
(366,79,ls),
(289,79,o),
(224,107,o),
(182,156,cs),
(140,205,o),
(121,275,o),
(138,359,cs),
(172,529,o),
(311,635,o),
(476,635,cs),
(490,635,l),
(499,678,l),
(487,678,ls),
(301,678,o),
(132,553,o),
(93,357,cs),
(75,265,o),
(94,184,o),
(141,127,cs),
(188,70,o),
(265,36,o),
(357,36,cs)
);
},
{
closed = 1;
nodes = (
(546,736,l),
(502,736,l),
(348,-34,l),
(392,-34,l)
);
}
);
width = 874;
},
{
layerId = "BFB6D85B-0443-425C-887B-8FE5CF94470C";
shapes = (
{
closed = 1;
nodes = (
(484,191,l),
(453,36,l),
(464,36,ls),
(660,36,o),
(829,149,o),
(871,357,cs),
(890,450,o),
(872,531,o),
(825,588,c),
(776,644,o),
(698,678,o),
(595,678,cs),
(579,678,l),
(548,523,l),
(563,523,ls),
(613,523,o),
(648,508,o),
(669,480,cs),
(690,452,o),
(695,410,o),
(684,357,cs),
(664,255,o),
(602,191,o),
(498,191,cs)
);
},
{
closed = 1;
nodes = (
(319,36,l),
(350,191,l),
(336,191,ls),
(286,191,o),
(251,206,o),
(230,234,cs),
(209,262,o),
(203,304,o),
(214,357,cs),
(234,459,o),
(296,523,o),
(400,523,cs),
(415,523,l),
(446,678,l),
(434,678,ls),
(240,678,o),
(69,564,o),
(28,357,cs),
(9,264,o),
(27,184,o),
(75,127,cs),
(122,70,o),
(201,36,o),
(304,36,cs)
);
},
{
closed = 1;
nodes = (
(613,736,l),
(437,736,l),
(283,-34,l),
(459,-34,l)
);
}
);
width = 874;
}
);
leftKerningGroup = public.kern2.uni041E_2;
rightKerningGroup = public.kern1.uni041E;
unicode = 1060;
},
{
glyphname = Elcyr;
layers = (
{
layerId = "33B6963F-6F20-48B1-9EF3-C92BB9E42515";
shapes = (
{
closed = 1;
nodes = (
(32,-8,o),
(49,-5,o),
(66,0,c),
(99,11,o),
(129,35,o),
(161,79,c),
(176,101,o),
(191,129,o),
(206,163,cs),
(234,231,o),
(262,324,o),
(287,449,cs),
(320,618,l),
(553,618,l),
(429,0,l),
(517,0,l),
(657,700,l),
(250,700,l),
(208,488,ls),
(197,431,o),
(185,381,o),
(175,339,cs),
(153,254,o),
(132,194,o),
(112,156,c),
(101,137,o),
(92,122,o),
(82,111,cs),
(62,89,o),
(42,81,o),
(21,81,cs),
(12,81,o),
(3,83,o),
(-4,84,c),
(-21,-3,l),
(-15,-6,o),
(-2,-8,o),
(15,-8,cs)
);
}
);
width = 687;
},
{
layerId = "241EF7EF-D36E-442A-9877-44FE28558D1E";
shapes = (
{
closed = 1;
nodes = (
(22,-8,o),
(36,-5,o),
(50,1,c),
(78,12,o),
(106,40,o),
(135,85,cs),
(149,108,o),
(164,137,o),
(179,172,cs),
(208,242,o),
(235,336,o),
(260,463,cs),
(299,658,l),
(579,658,l),
(448,0,l),
(492,0,l),
(632,700,l),
(262,700,l),
(218,476,ls),
(206,416,o),
(193,364,o),
(181,319,cs),
(156,230,o),
(133,166,o),
(110,123,c),
(98,102,o),
(86,85,o),
(75,73,c),
(53,48,o),
(33,40,o),
(16,40,cs),
(7,40,o),
(-2,41,o),
(-13,46,c),
(-23,-2,l),
(-16,-5,o),
(-6,-8,o),
(9,-8,cs)
);
}
);
width = 687;
},
{
layerId = "BFB6D85B-0443-425C-887B-8FE5CF94470C";
shapes = (
{
closed = 1;
nodes = (
(29,-8,o),
(55,-4,o),
(79,5,cs),
(126,22,o),
(169,56,o),
(204,106,cs),
(222,131,o),
(238,160,o),
(253,193,cs),
(283,260,o),
(308,342,o),
(327,439,cs),
(349,550,l),
(487,550,l),
(377,0,l),
(553,0,l),
(693,700,l),
(214,700,l),
(181,536,ls),
(173,495,o),
(166,458,o),
(158,423,cs),
(142,354,o),
(124,296,o),
(107,253,cs),
(98,231,o),
(88,213,o),
(78,198,c),
(57,168,o),
(36,152,o),
(9,152,cs),
(6,152,o),
(2,152,o),
(-3,153,c),
(-34,-5,l),
(-22,-8,o),
(-9,-8,o),
(3,-8,cs)
);
}
);
width = 687;
}
);
leftKerningGroup = public.kern2.uni041B;
rightKerningGroup = public.kern1.uni0418;
unicode = 1051;
},
{
glyphname = Eng;
layers = (
{
layerId = "33B6963F-6F20-48B1-9EF3-C92BB9E42515";
shapes = (
{
closed = 1;
nodes = (
(52,0,l),
(141,0,l),
(255,574,l),
(221,574,l),
(530,19,l),
(571,144,l),
(264,700,l),
(192,700,l)
);
},
{
closed = 1;
nodes = (
(429,-224,o),
(477,-209,o),
(516,-174,cs),
(554,-139,o),
(583,-88,o),
(597,-19,cs),
(741,700,l),
(652,700,l),
(510,-12,ls),
(492,-101,o),
(457,-140,o),
(383,-140,cs),
(370,-140,o),
(353,-138,o),
(342,-134,c),
(325,-218,l),
(335,-221,o),
(348,-224,o),
(371,-224,cs)
);
}
);
width = 773;
},
{
layerId = "241EF7EF-D36E-442A-9877-44FE28558D1E";
shapes = (
{
closed = 1;
nodes = (
(73,0,l),
(118,0,l),
(244,635,l),
(214,635,l),
(556,9,l),
(571,81,l),
(234,700,l),
(213,700,l)
);
},
{
closed = 1;
nodes = (
(433,-190,o),
(474,-176,o),
(508,-149,c),
(541,-121,o),
(564,-78,o),
(576,-19,cs),
(720,700,l),
(676,700,l),
(534,-12,ls),
(516,-104,o),
(470,-146,o),
(389,-146,cs),
(376,-146,o),
(359,-144,o),
(348,-140,c),
(340,-184,l),
(350,-187,o),
(360,-190,o),
(383,-190,cs)
);
}
);
width = 773;
},
{
layerId = "BFB6D85B-0443-425C-887B-8FE5CF94470C";
shapes = (
{
closed = 1;
nodes = (
(10,0,l),
(187,0,l),
(284,489,l),
(217,489,l),
(472,7,l),
(610,158,l),
(325,700,l),
(150,700,l)
);
},
{
closed = 1;
nodes = (
(423,-275,o),
(486,-256,o),
(536,-214,cs),
(586,-172,o),
(621,-107,o),
(639,-19,cs),
(782,700,l),
(606,700,l),
(464,-12,ls),
(449,-85,o),
(420,-120,o),
(370,-120,cs),
(358,-120,o),
(342,-118,o),
(331,-114,c),
(300,-269,l),
(310,-272,o),
(323,-275,o),
(351,-275,cs)
);
}
);
width = 773;
}
);
rightKerningGroup = public.kern1.H;
unicode = 330;
},
{
glyphname = Entailcyr;
layers = (
{
layerId = "33B6963F-6F20-48B1-9EF3-C92BB9E42515";
shapes = (
{
closed = 1;
nodes = (
(598,-133,l),
(681,-133,l),
(724,82,l),
(558,82,l),
(542,0,l),
(624,0,l)
);
},
{
closed = 1;
nodes = (
(620,410,l),
(181,410,l),
(165,329,l),
(604,329,l)
);
},
{
closed = 1;
nodes = (
(283,700,l),
(195,700,l),
(55,0,l),
(143,0,l)
);
},
{
closed = 1;
nodes = (
(495,0,l),
(583,0,l),
(723,700,l),
(635,700,l)
);
}
);
width = 828;
},
{
layerId = "241EF7EF-D36E-442A-9877-44FE28558D1E";
shapes = (
{
closed = 1;
nodes = (
(636,-124,l),
(678,-124,l),
(711,42,l),
(586,42,l),
(578,0,l),
(660,0,l)
);
},
{
closed = 1;
nodes = (
(652,399,l),
(201,399,l),
(193,357,l),
(643,357,l)
);
},
{
closed = 1;
nodes = (
(284,700,l),
(240,700,l),
(100,0,l),
(144,0,l)
);
},
{
closed = 1;
nodes = (
(554,0,l),
(599,0,l),
(738,700,l),
(694,700,l)
);
}
);
width = 828;
},
{
layerId = "BFB6D85B-0443-425C-887B-8FE5CF94470C";
shapes = (
{
closed = 1;
nodes = (
(530,-150,l),
(687,-150,l),
(747,150,l),
(557,150,l),
(527,0,l),
(560,0,l)
);
},
{
closed = 1;
nodes = (
(633,440,l),
(216,440,l),
(186,290,l),
(603,290,l)
);
},
{
closed = 1;
nodes = (
(356,700,l),
(179,700,l),
(39,0,l),
(216,0,l)
);
},
{
closed = 1;
nodes = (
(457,0,l),
(633,0,l),
(773,700,l),
(597,700,l)
);
}
);
width = 828;
}
);
rightKerningGroup = public.kern1.uni0414;
unicode = 1186;
},
{
glyphname = Ereversedcyr;
layers = (
{
layerId = "33B6963F-6F20-48B1-9EF3-C92BB9E42515";
shapes = (
{
closed = 1;
nodes = (
(417,-10,o),
(596,133,o),
(640,354,cs),
(661,459,o),
(645,547,o),
(597,611,cs),
(549,674,o),
(469,710,o),
(362,710,cs),
(258,710,o),
(170,675,o),
(116,634,c),
(143,564,l),
(174,585,o),
(208,601,o),
(241,611,cs),
(273,621,o),
(307,625,o),
(339,625,cs),
(417,625,o),
(479,598,o),
(515,549,cs),
(551,501,o),
(565,433,o),
(549,352,cs),
(515,183,o),
(377,75,o),
(213,75,cs),
(148,75,o),
(85,98,o),
(46,132,c),
(-5,59,l),
(18,38,o),
(46,22,o),
(81,10,c),
(115,-3,o),
(156,-10,o),
(203,-10,cs)
);
},
{
closed = 1;
nodes = (
(202,324,l),
(583,324,l),
(599,404,l),
(218,404,l)
);
}
);
width = 693;
},
{
layerId = "241EF7EF-D36E-442A-9877-44FE28558D1E";
shapes = (
{
closed = 1;
nodes = (
(433,-10,o),
(605,138,o),
(649,356,cs),
(669,458,o),
(651,547,o),
(602,610,cs),
(552,673,o),
(470,710,o),
(361,710,cs),
(268,710,o),
(188,682,o),
(127,644,c),
(143,606,l),
(172,624,o),
(206,640,o),
(242,651,c),
(277,661,o),
(315,666,o),
(352,666,cs),
(453,666,o),
(525,632,o),
(567,576,cs),
(609,519,o),
(622,442,o),
(605,356,cs),
(567,168,o),
(418,34,o),
(232,34,cs),
(153,34,o),
(79,58,o),
(32,103,c),
(0,66,l),
(21,46,o),
(53,27,o),
(89,13,cs),
(125,-1,o),
(171,-10,o),
(218,-10,cs)
);
},
{
closed = 1;
nodes = (
(226,350,l),
(616,350,l),
(624,392,l),
(234,392,l)
);
}
);
width = 693;
},
{
layerId = "BFB6D85B-0443-425C-887B-8FE5CF94470C";
shapes = (
{
closed = 1;
nodes = (
(426,-7,o),
(610,136,o),
(654,355,cs),
(675,459,o),
(660,548,o),
(612,611,cs),
(564,674,o),
(482,710,o),
(371,710,cs),
(260,710,o),
(166,674,o),
(106,626,c),
(156,504,l),
(181,525,o),
(210,538,o),
(237,545,cs),
(264,552,o),
(287,554,o),
(307,554,cs),
(369,554,o),
(417,536,o),
(445,502,cs),
(473,468,o),
(484,417,o),
(471,354,cs),
(447,233,o),
(351,148,o),
(231,148,cs),
(183,148,o),
(133,161,o),
(93,192,c),
(2,69,l),
(28,45,o),
(55,26,o),
(91,13,cs),
(127,0,o),
(168,-7,o),
(215,-7,cs)
);
},
{
closed = 1;
nodes = (
(192,285,l),
(553,285,l),
(582,430,l),
(221,430,l)
);
}
);
width = 693;
}
);
leftKerningGroup = public.kern2.uni0417_2;
rightKerningGroup = public.kern1.uni041E;
unicode = 1069;
},
{
glyphname = Eth;
layers = (
{
layerId = "33B6963F-6F20-48B1-9EF3-C92BB9E42515";
shapes = (
{
closed = 1;
nodes = (
(427,407,l),
(53,407,l),
(37,326,l),
(410,326,l)
);
},
{
closed = 1;
nodes = (
(112,82,l),
(94,0,l),
(239,0,ls),
(450,0,o),
(632,126,o),
(677,351,cs),
(698,455,o),
(680,541,o),
(630,603,cs),
(579,665,o),
(495,700,o),
(380,700,cs),
(235,700,l),
(219,618,l),
(357,618,ls),
(442,618,o),
(508,593,o),
(548,548,cs),
(588,502,o),
(603,435,o),
(586,350,cs),
(551,174,o),
(415,82,o),
(249,82,cs)
);
},
{
closed = 1;
nodes = (
(281,700,l),
(193,700,l),
(53,0,l),
(141,0,l)
);
}
);
width = 729;
},
{
layerId = "241EF7EF-D36E-442A-9877-44FE28558D1E";
shapes = (
{
closed = 1;
nodes = (
(430,399,l),
(56,399,l),
(48,357,l),
(421,357,l)
);
},
{
closed = 1;
nodes = (
(108,42,l),
(99,0,l),
(237,0,ls),
(450,0,o),
(625,134,o),
(669,356,cs),
(690,460,o),
(670,546,o),
(618,607,cs),
(566,666,o),
(481,700,o),
(370,700,cs),
(240,700,l),
(231,658,l),
(362,658,ls),
(463,658,o),
(538,629,o),
(581,576,cs),
(625,523,o),
(641,446,o),
(622,352,cs),
(583,155,o),
(429,42,o),
(241,42,cs)
);
},
{
closed = 1;
nodes = (
(257,700,l),
(214,700,l),
(74,0,l),
(118,0,l)
);
}
);
width = 729;
},
{
layerId = "BFB6D85B-0443-425C-887B-8FE5CF94470C";
shapes = (
{
closed = 1;
nodes = (
(422,438,l),
(48,438,l),
(18,288,l),
(392,288,l)
);
},
{
closed = 1;
nodes = (
(116,150,l),
(85,0,l),
(251,0,ls),
(470,0,o),
(657,117,o),
(704,354,cs),
(725,458,o),
(711,544,o),
(661,605,cs),
(611,665,o),
(528,700,o),
(410,700,cs),
(226,700,l),
(196,550,l),
(350,550,ls),
(410,550,o),
(460,536,o),
(490,505,cs),
(520,473,o),
(532,424,o),
(518,355,cs),
(489,212,o),
(398,150,o),
(264,150,cs)
);
},
{
closed = 1;
nodes = (
(327,700,l),
(151,700,l),
(11,0,l),
(187,0,l)
);
}
);
width = 729;
}
);
rightKerningGroup = public.kern1.D;
unicode = 208;
},
{
glyphname = Eukrcyr;
layers = (
{
layerId = "33B6963F-6F20-48B1-9EF3-C92BB9E42515";
shapes = (
{
closed = 1;
nodes = (
(105,324,l),
(512,324,l),
(528,404,l),
(121,404,l)
);
},
{
closed = 1;
nodes = (
(426,-10,o),
(473,-1,o),
(514,13,cs),
(555,26,o),
(588,45,o),
(616,65,c),
(588,137,l),
(558,115,o),
(526,100,o),
(493,89,c),
(461,79,o),
(427,75,o),
(395,75,cs),
(312,75,o),
(247,104,o),
(207,153,cs),
(166,201,o),
(150,271,o),
(166,350,cs),
(199,513,o),
(342,625,o),
(500,625,cs),
(565,625,o),
(621,606,o),
(664,571,c),
(718,645,l),
(671,684,o),
(602,710,o),
(512,710,cs),
(303,710,o),
(117,565,o),
(74,349,cs),
(53,245,o),
(72,155,o),
(125,91,cs),
(177,27,o),
(261,-10,o),
(372,-10,cs)
);
}
);
width = 705;
},
{
layerId = "241EF7EF-D36E-442A-9877-44FE28558D1E";
shapes = (
{
closed = 1;
nodes = (
(84,349,l),
(515,349,l),
(523,391,l),
(92,391,l)
);
},
{
closed = 1;
nodes = (
(409,-10,o),
(456,-1,o),
(498,13,cs),
(540,28,o),
(575,46,o),
(603,66,c),
(587,103,l),
(555,80,o),
(518,63,o),
(481,52,c),
(444,40,o),
(405,34,o),
(365,34,cs),
(274,34,o),
(203,65,o),
(158,121,cs),
(114,176,o),
(95,256,o),
(114,351,cs),
(152,542,o),
(315,666,o),
(498,666,cs),
(572,666,o),
(635,643,o),
(678,607,c),
(710,645,l),
(663,682,o),
(599,710,o),
(506,710,cs),
(301,710,o),
(112,566,o),
(69,351,cs),
(48,245,o),
(65,155,o),
(116,91,cs),
(167,27,o),
(251,-10,o),
(362,-10,cs)
);
}
);
width = 705;
},
{
layerId = "BFB6D85B-0443-425C-887B-8FE5CF94470C";
shapes = (
{
closed = 1;
nodes = (
(140,285,l),
(488,285,l),
(517,430,l),
(169,430,l)
);
},
{
closed = 1;
nodes = (
(408,-7,o),
(459,2,o),
(505,17,cs),
(550,32,o),
(589,53,o),
(618,77,c),
(573,200,l),
(546,179,o),
(518,165,o),
(490,158,cs),
(462,151,o),
(437,149,o),
(417,149,cs),
(353,149,o),
(304,167,o),
(275,203,cs),
(246,238,o),
(235,289,o),
(248,354,cs),
(272,474,o),
(367,555,o),
(485,555,cs),
(531,555,o),
(581,542,o),
(621,511,c),
(712,634,l),
(662,682,o),
(593,710,o),
(499,710,cs),
(288,710,o),
(104,567,o),
(60,348,cs),
(39,244,o),
(56,155,o),
(106,92,cs),
(155,29,o),
(239,-7,o),
(353,-7,cs)
);
}
);
width = 705;
}
);
leftKerningGroup = public.kern2.uni041E_2;
rightKerningGroup = public.kern1.uni0421;
unicode = 1028;
},
{
glyphname = Euro;
layers = (
{
layerId = "33B6963F-6F20-48B1-9EF3-C92BB9E42515";
shapes = (
{
closed = 1;
nodes = (
(353,-9,o),
(400,7,o),
(441,28,c),
(459,116,l),
(419,87,o),
(369,74,o),
(322,74,cs),
(260,74,o),
(219,96,o),
(197,143,cs),
(175,188,o),
(173,257,o),
(191,349,cs),
(216,476,o),
(287,625,o),
(437,625,cs),
(475,625,o),
(517,615,o),
(544,597,c),
(579,676,l),
(551,695,o),
(502,707,o),
(448,707,cs),
(251,707,o),
(138,524,o),
(103,349,cs),
(81,241,o),
(85,153,o),
(117,90,cs),
(148,27,o),
(206,-9,o),
(294,-9,cs)
);
},
{
closed = 1;
nodes = (
(17,249,l),
(389,249,l),
(421,321,l),
(49,321,l)
);
},
{
closed = 1;
nodes = (
(42,379,l),
(447,379,l),
(480,451,l),
(74,451,l)
);
}
);
width = 537;
},
{
layerId = "241EF7EF-D36E-442A-9877-44FE28558D1E";
shapes = (
{
closed = 1;
nodes = (
(322,-7,o),
(368,11,o),
(414,34,c),
(425,88,l),
(384,53,o),
(326,40,o),
(276,40,cs),
(213,40,o),
(172,64,o),
(153,115,cs),
(134,166,o),
(136,243,o),
(157,349,cs),
(183,479,o),
(252,662,o),
(414,662,cs),
(454,662,o),
(506,651,o),
(538,626,c),
(558,668,l),
(533,691,o),
(483,710,o),
(425,710,cs),
(237,710,o),
(141,507,o),
(109,349,cs),
(87,241,o),
(86,153,o),
(109,91,cs),
(132,28,o),
(182,-7,o),
(263,-7,cs)
);
},
{
closed = 1;
nodes = (
(29,273,l),
(376,273,l),
(396,317,l),
(49,317,l)
);
},
{
closed = 1;
nodes = (
(51,388,l),
(428,388,l),
(448,431,l),
(69,431,l)
);
}
);
width = 537;
},
{
layerId = "BFB6D85B-0443-425C-887B-8FE5CF94470C";
shapes = (
{
closed = 1;
nodes = (
(386,-12,o),
(434,0,o),
(465,13,c),
(498,176,l),
(458,149,o),
(416,144,o),
(386,144,cs),
(331,144,o),
(288,164,o),
(263,200,cs),
(238,235,o),
(228,286,o),
(241,349,cs),
(264,464,o),
(343,557,o),
(463,557,cs),
(493,557,o),
(525,551,o),
(555,538,c),
(622,689,l),
(573,704,o),
(517,712,o),
(461,712,cs),
(258,712,o),
(111,543,o),
(72,349,cs),
(51,242,o),
(65,152,o),
(109,89,cs),
(153,25,o),
(226,-12,o),
(327,-12,cs)
);
},
{
closed = 1;
nodes = (
(-26,216,l),
(410,216,l),
(460,328,l),
(24,328,l)
);
},
{
closed = 1;
nodes = (
(8,374,l),
(481,374,l),
(531,486,l),
(58,486,l)
);
}
);
width = 537;
}
);
unicode = 8364;
},
{
glyphname = Euro.tab;
layers = (
{
layerId = "33B6963F-6F20-48B1-9EF3-C92BB9E42515";
shapes = (
{
closed = 1;
nodes = (
(379,-9,o),
(427,7,o),
(468,28,c),
(485,116,l),
(445,87,o),
(395,74,o),
(348,74,cs),
(286,74,o),
(245,96,o),
(224,143,c),
(202,188,o),
(200,257,o),
(218,349,cs),
(243,476,o),
(313,625,o),
(463,625,cs),
(501,625,o),
(543,615,o),
(570,597,c),
(606,676,l),
(578,695,o),
(529,707,o),
(475,707,cs),
(278,707,o),
(167,523,o),
(132,349,cs),
(110,241,o),
(114,153,o),
(145,90,cs),
(176,27,o),
(232,-9,o),
(320,-9,cs)
);
},
{
closed = 1;
nodes = (
(47,249,l),
(410,249,l),
(442,321,l),
(79,321,l)
);
},
{
closed = 1;
nodes = (
(72,379,l),
(468,379,l),
(500,451,l),
(104,451,l)
);
}
);
width = 600;
},
{
layerId = "241EF7EF-D36E-442A-9877-44FE28558D1E";
shapes = (
{
closed = 1;
nodes = (
(351,-7,o),
(398,11,o),
(445,34,c),
(456,88,l),
(415,53,o),
(358,40,o),
(308,40,cs),
(242,40,o),
(204,64,o),
(184,115,cs),
(165,166,o),
(166,243,o),
(187,349,cs),
(213,479,o),
(283,662,o),
(445,662,cs),
(485,662,o),
(535,651,o),
(567,626,c),
(589,668,l),
(563,691,o),
(512,710,o),
(455,710,cs),
(267,710,o),
(171,507,o),
(139,349,cs),
(117,241,o),
(116,153,o),
(140,91,cs),
(163,28,o),
(211,-7,o),
(292,-7,cs)
);
},
{
closed = 1;
nodes = (
(59,273,l),
(405,273,l),
(426,317,l),
(79,317,l)
);
},
{
closed = 1;
nodes = (
(81,388,l),
(459,388,l),
(478,431,l),
(100,431,l)
);
}
);
width = 600;
},
{
layerId = "BFB6D85B-0443-425C-887B-8FE5CF94470C";
shapes = (
{
closed = 1;
nodes = (
(412,-12,o),
(461,0,o),
(492,13,c),
(524,176,l),
(484,149,o),
(443,144,o),
(413,144,cs),
(358,144,o),
(317,164,o),
(293,200,cs),
(269,235,o),
(262,286,o),
(275,349,cs),
(297,461,o),
(370,557,o),
(490,557,cs),
(520,557,o),
(552,551,o),
(582,538,c),
(648,689,l),
(599,704,o),
(543,712,o),
(487,712,cs),
(286,712,o),
(152,535,o),
(115,349,cs),
(94,242,o),
(104,152,o),
(145,89,cs),
(186,25,o),
(255,-12,o),
(353,-12,cs)
);
},
{
closed = 1;
nodes = (
(28,216,l),
(397,216,l),
(448,328,l),
(77,328,l)
);
},
{
closed = 1;
nodes = (
(61,374,l),
(469,374,l),
(519,486,l),
(111,486,l)
);
}
);
width = 600;
}
);
},
{
glyphname = F;
layers = (
{
layerId = "33B6963F-6F20-48B1-9EF3-C92BB9E42515";
shapes = (
{
closed = 1;
nodes = (
(52,0,l),
(140,0,l),
(202,310,l),
(447,310,l),
(463,391,l),
(218,391,l),
(264,618,l),
(528,618,l),
(545,700,l),
(192,700,l)
);
}
);
width = 541;
},
{
layerId = "241EF7EF-D36E-442A-9877-44FE28558D1E";
shapes = (
{
closed = 1;
nodes = (
(66,0,l),
(110,0,l),
(176,331,l),
(449,331,l),
(458,374,l),
(185,374,l),
(241,658,l),
(534,658,l),
(543,700,l),
(206,700,l)
);
}
);
width = 541;
},
{
layerId = "BFB6D85B-0443-425C-887B-8FE5CF94470C";
shapes = (
{
closed = 1;
nodes = (
(30,0,l),
(207,0,l),
(261,272,l),
(449,272,l),
(479,422,l),
(291,422,l),
(316,550,l),
(524,550,l),
(554,700,l),
(170,700,l)
);
}
);
width = 541;
}
);
unicode = 70;
},
{
glyphname = Fitacyr;
layers = (
{
layerId = "33B6963F-6F20-48B1-9EF3-C92BB9E42515";
shapes = (
{
closed = 1;
nodes = (
(720,388,l),
(146,388,l),
(130,310,l),
(705,310,l)
);
},
{
closed = 1;
nodes = (
(296,74,o),
(237,103,o),
(201,153,c),
(164,200,o),
(150,269,o),
(166,350,cs),
(197,506,o),
(326,626,o),
(482,626,cs),
(557,626,o),
(618,598,o),
(653,549,c),
(690,500,o),
(703,432,o),
(687,350,cs),
(656,194,o),
(527,74,o),
(371,74,cs)
);
},
{
closed = 1;
nodes = (
(561,-10,o),
(735,140,o),
(777,349,cs),
(798,453,o),
(782,542,o),
(733,607,cs),
(684,672,o),
(604,710,o),
(498,710,cs),
(293,710,o),
(118,560,o),
(76,351,cs),
(56,249,o),
(73,158,o),
(121,94,cs),
(170,29,o),
(249,-10,o),
(355,-10,cs)
);
}
);
width = 832;
},
{
layerId = "241EF7EF-D36E-442A-9877-44FE28558D1E";
shapes = (
{
closed = 1;
nodes = (
(743,370,l),
(120,370,l),
(112,328,l),
(734,328,l)
);
},
{
closed = 1;
nodes = (
(279,33,o),
(209,67,o),
(168,125,c),
(126,181,o),
(110,260,o),
(128,350,cs),
(163,523,o),
(316,666,o),
(489,666,cs),
(573,666,o),
(641,632,o),
(683,575,cs),
(725,519,o),
(742,440,o),
(724,350,cs),
(689,177,o),
(536,33,o),
(363,33,cs)
);
},
{
closed = 1;
nodes = (
(552,-11,o),
(728,149,o),
(768,348,cs),
(789,451,o),
(770,541,o),
(721,606,cs),
(673,671,o),
(595,710,o),
(498,710,cs),
(300,710,o),
(123,550,o),
(83,351,cs),
(63,249,o),
(82,158,o),
(131,93,cs),
(180,28,o),
(257,-11,o),
(354,-11,cs)
);
}
);
width = 832;
},
{
layerId = "BFB6D85B-0443-425C-887B-8FE5CF94470C";
shapes = (
{
closed = 1;
nodes = (
(677,414,l),
(191,414,l),
(165,284,l),
(651,284,l)
);
},
{
closed = 1;
nodes = (
(329,143,o),
(285,162,o),
(259,198,cs),
(233,233,o),
(224,284,o),
(237,351,cs),
(261,472,o),
(345,560,o),
(468,560,cs),
(523,560,o),
(567,541,o),
(593,506,cs),
(619,470,o),
(628,418,o),
(615,351,cs),
(591,230,o),
(508,143,o),
(385,143,cs)
);
},
{
closed = 1;
nodes = (
(565,-7,o),
(753,131,o),
(797,351,cs),
(819,459,o),
(799,548,o),
(746,612,cs),
(693,675,o),
(608,710,o),
(498,710,cs),
(287,710,o),
(100,572,o),
(56,351,cs),
(34,243,o),
(53,154,o),
(104,91,cs),
(155,28,o),
(241,-7,o),
(355,-7,cs)
);
}
);
width = 832;
}
);
leftKerningGroup = public.kern2.uni041E_2;
rightKerningGroup = public.kern1.uni041E;
unicode = 1138;
},
{
glyphname = G;
layers = (
{
layerId = "33B6963F-6F20-48B1-9EF3-C92BB9E42515";
shapes = (
{
closed = 1;
nodes = (
(586,-10,o),
(732,143,o),
(777,363,c),
(426,363,l),
(409,277,l),
(695,277,l),
(677,308,l),
(637,158,o),
(526,75,o),
(380,75,cs),
(303,75,o),
(243,104,o),
(206,153,c),
(166,200,o),
(151,268,o),
(167,347,cs),
(199,505,o),
(332,625,o),
(489,625,cs),
(527,625,o),
(567,619,o),
(603,604,cs),
(638,589,o),
(672,566,o),
(696,531,c),
(769,601,l),
(739,641,o),
(698,669,o),
(653,686,cs),
(608,703,o),
(559,710,o),
(510,710,cs),
(299,710,o),
(119,565,o),
(76,348,cs),
(56,246,o),
(73,156,o),
(123,93,cs),
(173,29,o),
(252,-10,o),
(357,-10,cs)
);
}
);
width = 830;
},
{
layerId = "241EF7EF-D36E-442A-9877-44FE28558D1E";
shapes = (
{
closed = 1;
nodes = (
(573,-10,o),
(723,136,o),
(764,342,c),
(433,342,l),
(424,298,l),
(722,298,l),
(713,311,l),
(665,136,o),
(539,34,o),
(367,34,cs),
(269,34,o),
(202,69,o),
(163,127,cs),
(123,184,o),
(111,264,o),
(128,351,cs),
(165,536,o),
(322,666,o),
(504,666,cs),
(546,666,o),
(585,660,o),
(619,646,cs),
(653,633,o),
(684,615,o),
(707,590,c),
(741,630,l),
(717,653,o),
(686,672,o),
(650,687,cs),
(614,702,o),
(570,710,o),
(517,710,cs),
(309,710,o),
(127,565,o),
(84,351,cs),
(64,250,o),
(78,161,o),
(124,95,cs),
(171,30,o),
(250,-10,o),
(359,-10,cs)
);
}
);
width = 830;
},
{
layerId = "BFB6D85B-0443-425C-887B-8FE5CF94470C";
shapes = (
{
closed = 1;
nodes = (
(608,-7,o),
(748,177,o),
(796,408,c),
(413,408,l),
(383,258,l),
(639,258,l),
(602,307,l),
(569,205,o),
(503,148,o),
(402,148,cs),
(350,148,o),
(306,165,o),
(278,199,cs),
(250,233,o),
(239,283,o),
(252,350,cs),
(274,461,o),
(356,555,o),
(472,555,cs),
(510,555,o),
(545,543,o),
(575,526,cs),
(605,509,o),
(631,485,o),
(649,458,c),
(777,571,l),
(754,620,o),
(714,656,o),
(665,678,cs),
(616,700,o),
(559,710,o),
(500,710,cs),
(289,710,o),
(110,569,o),
(66,351,cs),
(44,243,o),
(69,153,o),
(123,91,cs),
(177,29,o),
(260,-7,o),
(357,-7,cs)
);
}
);
width = 830;
}
);
leftKerningGroup = public.kern2.C2;
rightKerningGroup = public.kern1.D;
unicode = 71;
},
{
glyphname = Gamma;
layers = (
{
layerId = "33B6963F-6F20-48B1-9EF3-C92BB9E42515";
shapes = (
{
closed = 1;
nodes = (
(52,0,l),
(139,0,l),
(263,619,l),
(529,619,l),
(545,700,l),
(192,700,l)
);
}
);
width = 541;
},
{
layerId = "241EF7EF-D36E-442A-9877-44FE28558D1E";
shapes = (
{
closed = 1;
nodes = (
(66,0,l),
(110,0,l),
(241,658,l),
(534,658,l),
(543,700,l),
(206,700,l)
);
}
);
width = 541;
},
{
layerId = "BFB6D85B-0443-425C-887B-8FE5CF94470C";
shapes = (
{
closed = 1;
nodes = (
(30,0,l),
(207,0,l),
(316,550,l),
(524,550,l),
(554,700,l),
(170,700,l)
);
}
);
width = 541;
}
);
unicode = 915;
},
{
glyphname = Gecyr;
layers = (
{
layerId = "33B6963F-6F20-48B1-9EF3-C92BB9E42515";
shapes = (
{
closed = 1;
nodes = (
(44,0,l),
(132,0,l),
(255,618,l),
(514,618,l),
(530,700,l),
(184,700,l)
);
}
);
width = 482;
},
{
layerId = "241EF7EF-D36E-442A-9877-44FE28558D1E";
shapes = (
{
closed = 1;
nodes = (
(64,0,l),
(108,0,l),
(239,658,l),
(508,658,l),
(516,700,l),
(204,700,l)
);
}
);
width = 482;
},
{
layerId = "BFB6D85B-0443-425C-887B-8FE5CF94470C";
shapes = (
{
closed = 1;
nodes = (
(-5,0,l),
(172,0,l),
(282,550,l),
(517,550,l),
(547,700,l),
(135,700,l)
);
}
);
width = 482;
}
);
rightKerningGroup = public.kern1.uni0413;
unicode = 1043;
},
{
glyphname = Germandbls;
layers = (
{
layerId = "33B6963F-6F20-48B1-9EF3-C92BB9E42515";
shapes = (
{
closed = 1;
nodes = (
(465,-5,o),
(573,96,o),
(603,246,cs),
(619,326,o),
(605,383,o),
(569,422,cs),
(532,461,o),
(472,481,o),
(394,484,c),
(401,447,l),
(583,583,l),
(603,680,l),
(563,694,o),
(495,710,o),
(410,710,cs),
(341,710,o),
(285,698,o),
(241,667,cs),
(195,635,o),
(165,585,o),
(149,507,cs),
(48,0,l),
(136,0,l),
(234,494,ls),
(244,544,o),
(259,578,o),
(285,599,cs),
(312,621,o),
(350,630,o),
(408,630,cs),
(444,630,o),
(479,626,o),
(519,619,c),
(368,505,l),
(350,413,l),
(367,413,ls),
(423,413,o),
(463,396,o),
(489,367,c),
(512,337,o),
(522,295,o),
(512,243,cs),
(491,140,o),
(417,77,o),
(317,77,cs),
(290,77,o),
(264,80,o),
(248,87,c),
(232,5,l),
(242,1,o),
(256,-1,o),
(269,-3,cs),
(282,-5,o),
(298,-5,o),
(314,-5,cs)
);
}
);
width = 676;
},
{
layerId = "241EF7EF-D36E-442A-9877-44FE28558D1E";
shapes = (
{
closed = 1;
nodes = (
(453,-10,o),
(558,103,o),
(587,247,cs),
(601,319,o),
(593,379,o),
(560,421,cs),
(526,463,o),
(467,485,o),
(383,486,c),
(387,469,l),
(567,628,l),
(579,684,l),
(541,694,o),
(476,710,o),
(405,710,cs),
(347,710,o),
(298,701,o),
(260,672,c),
(220,643,o),
(189,593,o),
(173,512,cs),
(70,0,l),
(115,0,l),
(217,511,ls),
(228,565,o),
(242,602,o),
(270,629,cs),
(297,654,o),
(334,666,o),
(393,666,cs),
(440,666,o),
(487,661,o),
(535,648,c),
(369,497,l),
(359,447,l),
(379,447,ls),
(436,447,o),
(486,432,o),
(515,398,c),
(545,365,o),
(557,313,o),
(543,245,cs),
(519,123,o),
(433,34,o),
(309,34,cs),
(282,34,o),
(255,38,o),
(240,43,c),
(231,0,l),
(242,-4,o),
(254,-7,o),
(268,-8,cs),
(282,-9,o),
(293,-10,o),
(305,-10,cs)
);
}
);
width = 676;
},
{
layerId = "BFB6D85B-0443-425C-887B-8FE5CF94470C";
shapes = (
{
closed = 1;
nodes = (
(463,-5,o),
(604,83,o),
(631,219,cs),
(647,300,o),
(625,353,o),
(582,386,c),
(537,418,o),
(473,430,o),
(402,430,c),
(423,385,l),
(608,490,l),
(643,668,l),
(595,696,o),
(513,710,o),
(404,710,cs),
(319,710,o),
(249,693,o),
(198,658,cs),
(147,622,o),
(113,570,o),
(99,501,cs),
(-1,0,l),
(175,0,l),
(267,458,ls),
(276,501,o),
(289,529,o),
(313,548,cs),
(336,567,o),
(372,575,o),
(424,575,cs),
(451,575,o),
(478,573,o),
(505,569,c),
(358,485,l),
(324,315,l),
(349,315,ls),
(384,315,o),
(414,309,o),
(433,294,c),
(451,278,o),
(459,255,o),
(452,222,cs),
(441,168,o),
(396,130,o),
(343,130,cs),
(312,130,o),
(284,130,o),
(262,137,c),
(234,1,l),
(244,-2,o),
(254,-3,o),
(269,-4,c),
(285,-4,o),
(307,-5,o),
(339,-5,cs)
);
}
);
width = 676;
}
);
unicode = 7838;
},
{
glyphname = Gestrokecyr;
layers = (
{
layerId = "33B6963F-6F20-48B1-9EF3-C92BB9E42515";
shapes = (
{
closed = 1;
nodes = (
(46,0,l),
(135,0,l),
(258,618,l),
(517,618,l),
(533,700,l),
(186,700,l)
);
},
{
closed = 1;
nodes = (
(443,413,l),
(62,413,l),
(46,331,l),
(426,331,l)
);
}
);
width = 482;
},
{
layerId = "241EF7EF-D36E-442A-9877-44FE28558D1E";
shapes = (
{
closed = 1;
nodes = (
(67,0,l),
(111,0,l),
(243,658,l),
(511,658,l),
(520,700,l),
(207,700,l)
);
},
{
closed = 1;
nodes = (
(428,396,l),
(44,396,l),
(36,353,l),
(420,353,l)
);
}
);
width = 482;
},
{
layerId = "BFB6D85B-0443-425C-887B-8FE5CF94470C";
shapes = (
{
closed = 1;
nodes = (
(-3,0,l),
(173,0,l),
(283,550,l),
(518,550,l),
(548,700,l),
(137,700,l)
);
},
{
closed = 1;
nodes = (
(434,440,l),
(36,440,l),
(6,290,l),
(404,290,l)
);
}
);
width = 482;
}
);
unicode = 1170;
},
{
glyphname = Geupcyr;
layers = (
{
layerId = "33B6963F-6F20-48B1-9EF3-C92BB9E42515";
shapes = (
{
closed = 1;
nodes = (
(445,700,l),
(184,700,l),
(44,0,l),
(132,0,l),
(255,618,l),
(514,618,l),
(556,830,l),
(471,830,l)
);
}
);
width = 482;
},
{
layerId = "241EF7EF-D36E-442A-9877-44FE28558D1E";
shapes = (
{
closed = 1;
nodes = (
(474,700,l),
(204,700,l),
(64,0,l),
(108,0,l),
(239,658,l),
(508,658,l),
(542,830,l),
(500,830,l)
);
}
);
width = 482;
},
{
layerId = "BFB6D85B-0443-425C-887B-8FE5CF94470C";
shapes = (
{
closed = 1;
nodes = (
(380,700,l),
(135,700,l),
(-5,0,l),
(172,0,l),
(282,550,l),
(517,550,l),
(573,830,l),
(406,830,l)
);
}
);
width = 482;
}
);
rightKerningGroup = public.kern1.uni0413;
unicode = 1168;
},
{
glyphname = H;
layers = (
{
layerId = "33B6963F-6F20-48B1-9EF3-C92BB9E42515";
shapes = (
{
closed = 1;
nodes = (
(618,410,l),
(179,410,l),
(163,329,l),
(602,329,l)
);
},
{
closed = 1;
nodes = (
(281,700,l),
(193,700,l),
(53,0,l),
(141,0,l)
);
},
{
closed = 1;
nodes = (
(492,0,l),
(581,0,l),
(720,700,l),
(632,700,l)
);
}
);
width = 754;
},
{
layerId = "241EF7EF-D36E-442A-9877-44FE28558D1E";
shapes = (
{
closed = 1;
nodes = (
(620,399,l),
(169,399,l),
(161,357,l),
(612,357,l)
);
},
{
closed = 1;
nodes = (
(252,700,l),
(208,700,l),
(68,0,l),
(112,0,l)
);
},
{
closed = 1;
nodes = (
(522,0,l),
(566,0,l),
(706,700,l),
(662,700,l)
);
}
);
width = 754;
},
{
layerId = "BFB6D85B-0443-425C-887B-8FE5CF94470C";
shapes = (
{
closed = 1;
nodes = (
(614,440,l),
(196,440,l),
(166,290,l),
(584,290,l)
);
},
{
closed = 1;
nodes = (
(337,700,l),
(160,700,l),
(20,0,l),
(197,0,l)
);
},
{
closed = 1;
nodes = (
(438,0,l),
(614,0,l),
(754,700,l),
(578,700,l)
);
}
);
width = 754;
}
);
rightKerningGroup = public.kern1.H;
unicode = 72;
},
{
glyphname = Hardcyr;
layers = (
{
layerId = "33B6963F-6F20-48B1-9EF3-C92BB9E42515";
shapes = (
{
closed = 1;
nodes = (
(278,440,l),
(330,700,l),
(108,700,l),
(92,618,l),
(225,618,l),
(101,0,l),
(288,0,ls),
(418,0,o),
(537,85,o),
(564,222,cs),
(577,285,o),
(565,338,o),
(533,378,cs),
(501,417,o),
(447,440,o),
(375,440,cs)
);
},
{
closed = 1;
nodes = (
(207,82,l),
(262,358,l),
(347,358,ls),
(399,358,o),
(435,344,o),
(455,319,cs),
(475,293,o),
(481,259,o),
(473,221,cs),
(455,129,o),
(378,82,o),
(292,82,cs)
);
}
);
width = 624;
},
{
layerId = "241EF7EF-D36E-442A-9877-44FE28558D1E";
shapes = (
{
closed = 1;
nodes = (
(270,422,l),
(326,700,l),
(117,700,l),
(109,658,l),
(273,658,l),
(142,0,l),
(298,0,ls),
(420,0,o),
(532,85,o),
(558,213,cs),
(569,267,o),
(559,318,o),
(530,358,cs),
(502,397,o),
(452,422,o),
(382,422,cs)
);
},
{
closed = 1;
nodes = (
(194,42,l),
(262,379,l),
(369,379,ls),
(426,379,o),
(468,360,o),
(492,330,c),
(515,299,o),
(522,257,o),
(513,212,cs),
(492,106,o),
(401,42,o),
(301,42,cs)
);
}
);
width = 624;
},
{
layerId = "BFB6D85B-0443-425C-887B-8FE5CF94470C";
shapes = (
{
closed = 1;
nodes = (
(328,474,l),
(373,700,l),
(76,700,l),
(46,550,l),
(166,550,l),
(57,0,l),
(300,0,ls),
(447,0,o),
(579,80,o),
(611,240,cs),
(627,319,o),
(611,376,o),
(572,416,cs),
(533,455,o),
(469,474,o),
(394,474,cs)
);
},
{
closed = 1;
nodes = (
(263,150,l),
(298,324,l),
(339,324,ls),
(378,324,o),
(404,314,o),
(419,299,c),
(433,283,o),
(436,262,o),
(431,238,cs),
(418,174,o),
(363,150,o),
(307,150,cs)
);
}
);
width = 624;
}
);
leftKerningGroup = public.kern2.uni0422;
rightKerningGroup = public.kern1.uni042C;
unicode = 1066;
},
{
glyphname = Hbar;
layers = (
{
layerId = "33B6963F-6F20-48B1-9EF3-C92BB9E42515";
shapes = (
{
closed = 1;
nodes = (
(90,507,l),
(154,507,l),
(53,0,l),
(141,0,l),
(207,329,l),
(558,329,l),
(492,0,l),
(580,0,l),
(681,507,l),
(746,507,l),
(762,586,l),
(697,586,l),
(720,700,l),
(632,700,l),
(609,586,l),
(258,586,l),
(281,700,l),
(193,700,l),
(170,586,l),
(105,586,l)
);
},
{
closed = 1;
nodes = (
(223,410,l),
(242,507,l),
(593,507,l),
(574,410,l)
);
}
);
width = 754;
},
{
layerId = "241EF7EF-D36E-442A-9877-44FE28558D1E";
shapes = (
{
closed = 1;
nodes = (
(86,521,l),
(172,521,l),
(68,0,l),
(112,0,l),
(184,357,l),
(593,357,l),
(522,0,l),
(566,0,l),
(670,521,l),
(756,521,l),
(765,564,l),
(679,564,l),
(706,700,l),
(662,700,l),
(635,564,l),
(225,564,l),
(252,700,l),
(208,700,l),
(181,564,l),
(95,564,l)
);
},
{
closed = 1;
nodes = (
(192,399,l),
(216,521,l),
(626,521,l),
(602,399,l)
);
}
);
width = 754;
},
{
layerId = "BFB6D85B-0443-425C-887B-8FE5CF94470C";
shapes = (
{
closed = 1;
nodes = (
(72,490,l),
(117,490,l),
(20,0,l),
(196,0,l),
(254,290,l),
(495,290,l),
(437,0,l),
(613,0,l),
(711,490,l),
(756,490,l),
(782,620,l),
(737,620,l),
(753,700,l),
(577,700,l),
(561,620,l),
(320,620,l),
(336,700,l),
(159,700,l),
(143,620,l),
(98,620,l)
);
},
{
closed = 1;
nodes = (
(284,440,l),
(294,490,l),
(535,490,l),
(525,440,l)
);
}
);
width = 754;
}
);
rightKerningGroup = public.kern1.H;
unicode = 294;
},
{
glyphname = I;
layers = (
{
layerId = "33B6963F-6F20-48B1-9EF3-C92BB9E42515";
shapes = (
{
closed = 1;
nodes = (
(275,700,l),
(186,700,l),
(46,0,l),
(135,0,l)
);
}
);
width = 302;
},
{
layerId = "241EF7EF-D36E-442A-9877-44FE28558D1E";
shapes = (
{
closed = 1;
nodes = (
(252,700,l),
(208,700,l),
(68,0,l),
(113,0,l)
);
}
);
width = 302;
},
{
layerId = "BFB6D85B-0443-425C-887B-8FE5CF94470C";
shapes = (
{
closed = 1;
nodes = (
(319,700,l),
(142,700,l),
(3,0,l),
(179,0,l)
);
}
);
width = 302;
}
);
rightKerningGroup = public.kern1.H;
unicode = 73;
},
{
glyphname = Icyr;
layers = (
{
layerId = "33B6963F-6F20-48B1-9EF3-C92BB9E42515";
shapes = (
{
closed = 1;
nodes = (
(54,0,l),
(110,0,l),
(656,571,l),
(626,586,l),
(509,0,l),
(597,0,l),
(737,700,l),
(683,700,l),
(154,148,l),
(170,139,l),
(282,701,l),
(194,701,l)
);
}
);
width = 772;
},
{
layerId = "241EF7EF-D36E-442A-9877-44FE28558D1E";
shapes = (
{
closed = 1;
nodes = (
(68,0,l),
(96,0,l),
(680,626,l),
(667,640,l),
(539,0,l),
(583,0,l),
(723,700,l),
(697,700,l),
(110,70,l),
(124,60,l),
(252,701,l),
(208,701,l)
);
}
);
width = 772;
},
{
layerId = "BFB6D85B-0443-425C-887B-8FE5CF94470C";
shapes = (
{
closed = 1;
nodes = (
(24,0,l),
(137,0,l),
(616,469,l),
(552,502,l),
(451,0,l),
(628,0,l),
(768,700,l),
(655,700,l),
(228,282,l),
(252,257,l),
(340,700,l),
(164,700,l)
);
}
);
width = 772;
}
);
rightKerningGroup = public.kern1.uni0418;
unicode = 1048;
},
{
glyphname = Izhitsacyr;
layers = (
{
layerId = "33B6963F-6F20-48B1-9EF3-C92BB9E42515";
shapes = (
{
closed = 1;
nodes = (
(236,-10,l),
(265,-10,l),
(578,518,l),
(604,563,o),
(624,587,o),
(641,603,c),
(658,618,o),
(669,622,o),
(684,622,cs),
(693,622,o),
(695,621,o),
(703,620,c),
(719,702,l),
(712,703,o),
(705,706,o),
(688,706,cs),
(660,706,o),
(632,698,o),
(606,679,cs),
(579,659,o),
(553,628,o),
(527,583,cs),
(290,177,l),
(191,700,l),
(101,700,l),
(97,680,l)
);
}
);
width = 632;
},
{
layerId = "241EF7EF-D36E-442A-9877-44FE28558D1E";
shapes = (
{
closed = 1;
nodes = (
(239,-10,l),
(247,-10,l),
(563,539,ls),
(595,595,o),
(617,625,o),
(634,641,cs),
(651,657,o),
(663,659,o),
(678,659,cs),
(682,659,o),
(687,660,o),
(690,659,c),
(698,703,l),
(691,703,o),
(689,703,o),
(685,703,cs),
(661,703,o),
(639,697,o),
(617,678,cs),
(594,659,o),
(572,629,o),
(544,582,cs),
(266,100,l),
(159,700,l),
(121,700,l),
(117,680,l)
);
}
);
width = 632;
},
{
layerId = "BFB6D85B-0443-425C-887B-8FE5CF94470C";
shapes = (
{
closed = 1;
nodes = (
(216,-7,l),
(284,-7,l),
(591,494,ls),
(607,519,o),
(621,537,o),
(635,548,cs),
(649,559,o),
(661,564,o),
(676,564,cs),
(687,564,o),
(696,562,o),
(706,558,c),
(735,701,l),
(723,704,o),
(705,711,o),
(674,711,cs),
(636,711,o),
(600,701,o),
(568,681,cs),
(535,660,o),
(505,629,o),
(478,585,cs),
(319,323,l),
(234,700,l),
(60,700,l),
(56,680,l)
);
}
);
width = 632;
}
);
rightKerningGroup = public.kern1.uni0423;
unicode = 1140;
},
{
glyphname = J;
layers = (
{
layerId = "33B6963F-6F20-48B1-9EF3-C92BB9E42515";
shapes = (
{
closed = 1;
nodes = (
(77,-5,o),
(127,13,o),
(166,47,cs),
(204,81,o),
(232,131,o),
(246,200,cs),
(346,700,l),
(257,700,l),
(158,202,ls),
(141,117,o),
(104,80,o),
(32,80,cs),
(19,80,o),
(3,82,o),
(-8,86,c),
(-25,1,l),
(-15,-2,o),
(-5,-5,o),
(18,-5,cs)
);
}
);
width = 362;
},
{
layerId = "241EF7EF-D36E-442A-9877-44FE28558D1E";
shapes = (
{
closed = 1;
nodes = (
(70,-5,o),
(111,8,o),
(145,36,cs),
(178,64,o),
(201,106,o),
(213,166,cs),
(320,700,l),
(276,700,l),
(170,172,ls),
(152,80,o),
(108,39,o),
(27,39,cs),
(10,39,o),
(-4,41,o),
(-15,45,c),
(-23,1,l),
(-13,-2,o),
(-3,-5,o),
(20,-5,cs)
);
}
);
width = 362;
},
{
layerId = "BFB6D85B-0443-425C-887B-8FE5CF94470C";
shapes = (
{
closed = 1;
nodes = (
(77,-5,o),
(142,15,o),
(193,57,cs),
(244,99,o),
(278,163,o),
(296,251,cs),
(386,700,l),
(209,700,l),
(121,258,ls),
(106,185,o),
(79,150,o),
(29,150,cs),
(16,150,o),
(0,152,o),
(-11,156,c),
(-42,1,l),
(-32,-2,o),
(-21,-5,o),
(2,-5,cs)
);
}
);
width = 362;
}
);
leftKerningGroup = public.kern2.J2;
rightKerningGroup = public.kern1.J;
unicode = 74;
},
{
glyphname = K;
layers = (
{
layerId = "33B6963F-6F20-48B1-9EF3-C92BB9E42515";
shapes = (
{
closed = 1;
nodes = (
(462,0,l),
(561,0,l),
(565,20,l),
(315,409,l),
(301,343,l),
(624,680,l),
(628,700,l),
(536,700,l),
(226,367,l)
);
},
{
closed = 1;
nodes = (
(152,328,l),
(286,328,l),
(302,408,l),
(168,408,l)
);
},
{
closed = 1;
nodes = (
(273,700,l),
(185,700,l),
(45,0,l),
(133,0,l)
);
}
);
width = 647;
},
{
layerId = "241EF7EF-D36E-442A-9877-44FE28558D1E";
shapes = (
{
closed = 1;
nodes = (
(491,0,l),
(532,0,l),
(536,20,l),
(260,394,l),
(250,343,l),
(600,680,l),
(604,700,l),
(568,700,l),
(219,364,l)
);
},
{
closed = 1;
nodes = (
(161,343,l),
(243,343,l),
(252,386,l),
(169,386,l)
);
},
{
closed = 1;
nodes = (
(262,700,l),
(219,700,l),
(79,0,l),
(123,0,l)
);
}
);
width = 647;
},
{
layerId = "BFB6D85B-0443-425C-887B-8FE5CF94470C";
shapes = (
{
closed = 1;
nodes = (
(395,0,l),
(602,0,l),
(606,20,l),
(418,430,l),
(404,359,l),
(681,680,l),
(685,700,l),
(494,700,l),
(231,370,l)
);
},
{
closed = 1;
nodes = (
(142,291,l),
(339,291,l),
(370,445,l),
(173,445,l)
);
},
{
closed = 1;
nodes = (
(300,700,l),
(123,700,l),
(-17,0,l),
(160,0,l)
);
}
);
width = 647;
}
);
rightKerningGroup = public.kern1.K;
unicode = 75;
},
{
glyphname = Kabashkcyr;
layers = (
{
layerId = "33B6963F-6F20-48B1-9EF3-C92BB9E42515";
shapes = (
{
closed = 1;
nodes = (
(312,700,l),
(105,700,l),
(89,618,l),
(296,618,l)
);
},
{
closed = 1;
nodes = (
(531,0,l),
(631,0,l),
(635,20,l),
(384,409,l),
(371,343,l),
(692,680,l),
(696,700,l),
(606,700,l),
(294,367,l)
);
},
{
closed = 1;
nodes = (
(222,328,l),
(355,328,l),
(371,408,l),
(238,408,l)
);
},
{
closed = 1;
nodes = (
(342,700,l),
(253,700,l),
(113,0,l),
(202,0,l)
);
}
);
width = 712;
},
{
layerId = "241EF7EF-D36E-442A-9877-44FE28558D1E";
shapes = (
{
closed = 1;
nodes = (
(323,700,l),
(134,700,l),
(126,658,l),
(314,658,l)
);
},
{
closed = 1;
nodes = (
(562,0,l),
(603,0,l),
(607,20,l),
(331,394,l),
(321,343,l),
(670,680,l),
(674,700,l),
(639,700,l),
(290,364,l)
);
},
{
closed = 1;
nodes = (
(232,343,l),
(314,343,l),
(323,386,l),
(240,386,l)
);
},
{
closed = 1;
nodes = (
(334,700,l),
(289,700,l),
(149,0,l),
(195,0,l)
);
}
);
width = 712;
},
{
layerId = "BFB6D85B-0443-425C-887B-8FE5CF94470C";
shapes = (
{
closed = 1;
nodes = (
(330,700,l),
(62,700,l),
(32,550,l),
(300,550,l)
);
},
{
closed = 1;
nodes = (
(480,0,l),
(687,0,l),
(691,20,l),
(503,430,l),
(489,359,l),
(766,680,l),
(770,700,l),
(579,700,l),
(316,370,l)
);
},
{
closed = 1;
nodes = (
(227,291,l),
(424,291,l),
(455,445,l),
(258,445,l)
);
},
{
closed = 1;
nodes = (
(385,700,l),
(208,700,l),
(68,0,l),
(245,0,l)
);
}
);
width = 712;
}
);
leftKerningGroup = public.kern2.uni0422;
rightKerningGroup = public.kern1.uni0416;
unicode = 1184;
},
{
glyphname = Kaisymbol;
layers = (
{
layerId = "33B6963F-6F20-48B1-9EF3-C92BB9E42515";
shapes = (
{
closed = 1;
nodes = (
(347,-148,l),
(447,-148,l),
(557,0,l),
(561,20,l),
(470,20,l)
);
},
{
alignment = -1;
pos = (-11,0);
ref = K;
}
);
width = 638;
},
{
layerId = "241EF7EF-D36E-442A-9877-44FE28558D1E";
shapes = (
{
closed = 1;
nodes = (
(351,-144,l),
(401,-140,l),
(529,0,l),
(533,20,l),
(497,16,l)
);
},
{
alignment = -1;
pos = (-13,0);
ref = K;
}
);
width = 638;
},
{
layerId = "BFB6D85B-0443-425C-887B-8FE5CF94470C";
shapes = (
{
closed = 1;
nodes = (
(291,-114,l),
(497,-114,l),
(598,0,l),
(602,20,l),
(407,20,l)
);
},
{
alignment = -1;
pos = (-7.5,0);
ref = K;
}
);
width = 638;
}
);
unicode = 975;
},
{
glyphname = Katailcyr;
layers = (
{
layerId = "33B6963F-6F20-48B1-9EF3-C92BB9E42515";
shapes = (
{
closed = 1;
nodes = (
(509,-133,l),
(593,-133,l),
(636,82,l),
(496,82,l),
(476,0,l),
(535,0,l)
);
},
{
closed = 1;
nodes = (
(459,0,l),
(558,0,l),
(562,20,l),
(311,409,l),
(298,343,l),
(620,680,l),
(624,700,l),
(533,700,l),
(223,367,l)
);
},
{
closed = 1;
nodes = (
(155,328,l),
(282,328,l),
(298,408,l),
(171,408,l)
);
},
{
closed = 1;
nodes = (
(275,700,l),
(187,700,l),
(47,0,l),
(135,0,l)
);
}
);
width = 654;
},
{
layerId = "241EF7EF-D36E-442A-9877-44FE28558D1E";
shapes = (
{
closed = 1;
nodes = (
(525,-124,l),
(566,-124,l),
(599,42,l),
(504,42,l),
(491,0,l),
(550,0,l)
);
},
{
closed = 1;
nodes = (
(490,0,l),
(531,0,l),
(535,20,l),
(259,394,l),
(249,343,l),
(598,680,l),
(602,700,l),
(566,700,l),
(218,364,l)
);
},
{
closed = 1;
nodes = (
(160,343,l),
(242,343,l),
(251,386,l),
(168,386,l)
);
},
{
closed = 1;
nodes = (
(262,700,l),
(218,700,l),
(78,0,l),
(123,0,l)
);
}
);
width = 654;
},
{
layerId = "BFB6D85B-0443-425C-887B-8FE5CF94470C";
shapes = (
{
closed = 1;
nodes = (
(439,-150,l),
(596,-150,l),
(656,150,l),
(443,150,l),
(387,0,l),
(469,0,l)
);
},
{
closed = 1;
nodes = (
(387,0,l),
(594,0,l),
(598,20,l),
(410,430,l),
(396,359,l),
(673,680,l),
(677,700,l),
(486,700,l),
(223,370,l)
);
},
{
closed = 1;
nodes = (
(174,291,l),
(331,291,l),
(362,445,l),
(204,445,l)
);
},
{
closed = 1;
nodes = (
(331,700,l),
(154,700,l),
(14,0,l),
(191,0,l)
);
}
);
width = 654;
}
);
rightKerningGroup = public.kern1.uni0416;
unicode = 1178;
},
{
glyphname = L;
layers = (
{
layerId = "33B6963F-6F20-48B1-9EF3-C92BB9E42515";
shapes = (
{
closed = 1;
nodes = (
(277,700,l),
(189,700,l),
(49,0,l),
(400,0,l),
(416,82,l),
(111,82,l),
(146,42,l)
);
}
);
width = 504;
},
{
layerId = "241EF7EF-D36E-442A-9877-44FE28558D1E";
shapes = (
{
closed = 1;
nodes = (
(247,700,l),
(203,700,l),
(63,0,l),
(397,0,l),
(406,42,l),
(100,42,l),
(112,26,l)
);
}
);
width = 504;
},
{
layerId = "BFB6D85B-0443-425C-887B-8FE5CF94470C";
shapes = (
{
closed = 1;
nodes = (
(336,700,l),
(160,700,l),
(20,0,l),
(404,0,l),
(434,150,l),
(128,150,l),
(210,69,l)
);
}
);
width = 504;
}
);
rightKerningGroup = public.kern1.L;
unicode = 76;
},
{
glyphname = Lambda;
layers = (
{
layerId = "33B6963F-6F20-48B1-9EF3-C92BB9E42515";
shapes = (
{
closed = 1;
nodes = (
(416,700,l),
(383,700,l),
(-33,11,l),
(-37,-9,l),
(47,-9,l),
(386,563,l),
(351,563,l),
(464,-9,l),
(551,-9,l),
(555,11,l)
);
}
);
width = 638;
},
{
layerId = "241EF7EF-D36E-442A-9877-44FE28558D1E";
shapes = (
{
closed = 1;
nodes = (
(404,700,l),
(396,700,l),
(-8,10,l),
(-12,-10,l),
(24,-10,l),
(394,622,l),
(372,622,l),
(488,-10,l),
(526,-10,l),
(530,10,l)
);
}
);
width = 638;
},
{
layerId = "BFB6D85B-0443-425C-887B-8FE5CF94470C";
shapes = (
{
closed = 1;
nodes = (
(446,700,l),
(348,700,l),
(-65,14,l),
(-69,-6,l),
(97,-6,l),
(403,517,l),
(305,517,l),
(406,-6,l),
(584,-6,l),
(588,14,l)
);
}
);
width = 638;
}
);
unicode = 923;
},
{
glyphname = Ljecyr;
layers = (
{
layerId = "33B6963F-6F20-48B1-9EF3-C92BB9E42515";
shapes = (
{
closed = 1;
nodes = (
(27,-8,o),
(44,-6,o),
(61,0,c),
(93,10,o),
(125,35,o),
(156,78,c),
(171,100,o),
(185,128,o),
(201,162,c),
(229,229,o),
(257,321,o),
(282,447,cs),
(316,618,l),
(543,618,l),
(420,0,l),
(606,0,ls),
(734,0,o),
(855,86,o),
(882,222,cs),
(895,285,o),
(883,339,o),
(850,378,cs),
(817,417,o),
(765,440,o),
(694,440,cs),
(596,440,l),
(648,700,l),
(245,700,l),
(202,485,ls),
(168,316,o),
(138,214,o),
(108,156,cs),
(77,98,o),
(47,81,o),
(15,81,cs),
(7,81,o),
(-2,83,o),
(-8,85,c),
(-26,-3,l),
(-20,-6,o),
(-8,-8,o),
(10,-8,cs)
);
},
{
closed = 1;
nodes = (
(524,82,l),
(579,358,l),
(666,358,ls),
(716,358,o),
(751,344,o),
(772,319,c),
(792,293,o),
(799,260,o),
(791,221,cs),
(773,130,o),
(693,82,o),
(610,82,cs)
);
}
);
width = 950;
},
{
layerId = "241EF7EF-D36E-442A-9877-44FE28558D1E";
shapes = (
{
closed = 1;
nodes = (
(35,-8,o),
(48,-5,o),
(62,0,c),
(89,12,o),
(117,39,o),
(147,85,c),
(160,107,o),
(175,137,o),
(190,172,cs),
(219,242,o),
(247,336,o),
(272,463,cs),
(311,658,l),
(576,658,l),
(444,0,l),
(593,0,ls),
(712,0,o),
(826,88,o),
(851,213,cs),
(862,266,o),
(853,318,o),
(823,356,cs),
(793,394,o),
(745,420,o),
(677,420,cs),
(572,420,l),
(628,700,l),
(275,700,l),
(230,476,ls),
(194,296,o),
(157,187,o),
(122,124,cs),
(87,60,o),
(55,40,o),
(29,40,cs),
(20,40,o),
(10,42,o),
(0,45,c),
(-9,-2,l),
(-3,-5,o),
(7,-8,o),
(22,-8,cs)
);
},
{
closed = 1;
nodes = (
(497,42,l),
(564,378,l),
(664,378,ls),
(720,378,o),
(759,358,o),
(783,328,cs),
(806,298,o),
(816,257,o),
(807,212,cs),
(786,107,o),
(695,42,o),
(595,42,cs)
);
}
);
width = 950;
},
{
layerId = "BFB6D85B-0443-425C-887B-8FE5CF94470C";
shapes = (
{
closed = 1;
nodes = (
(-1,-8,o),
(25,-4,o),
(49,4,cs),
(96,20,o),
(138,51,o),
(173,99,cs),
(191,123,o),
(206,151,o),
(221,183,cs),
(250,247,o),
(275,329,o),
(294,426,cs),
(319,550,l),
(457,550,l),
(347,0,l),
(589,0,ls),
(736,0,o),
(870,81,o),
(902,241,cs),
(918,320,o),
(900,378,o),
(861,417,cs),
(822,456,o),
(759,475,o),
(684,475,cs),
(618,475,l),
(663,700,l),
(184,700,l),
(151,536,ls),
(127,415,o),
(105,319,o),
(78,253,cs),
(51,187,o),
(18,152,o),
(-22,152,cs),
(-25,152,o),
(-28,152,o),
(-33,153,c),
(-64,-5,l),
(-52,-8,o),
(-39,-8,o),
(-27,-8,cs)
);
},
{
closed = 1;
nodes = (
(553,150,l),
(588,325,l),
(628,325,ls),
(667,325,o),
(694,315,o),
(709,300,c),
(723,284,o),
(727,263,o),
(722,239,cs),
(709,175,o),
(652,150,o),
(596,150,cs)
);
}
);
width = 950;
}
);
leftKerningGroup = public.kern2.uni041B;
rightKerningGroup = public.kern1.uni042C;
unicode = 1033;
},
{
glyphname = Lslash;
layers = (
{
layerId = "33B6963F-6F20-48B1-9EF3-C92BB9E42515";
shapes = (
{
closed = 1;
nodes = (
(281,700,l),
(192,700,l),
(52,0,l),
(403,0,l),
(420,82,l),
(114,82,l),
(149,42,l)
);
},
{
closed = 1;
nodes = (
(10,155,l),
(133,247,l),
(175,271,l),
(414,452,l),
(433,548,l),
(182,359,l),
(141,336,l),
(29,251,l)
);
}
);
width = 504;
},
{
layerId = "241EF7EF-D36E-442A-9877-44FE28558D1E";
shapes = (
{
closed = 1;
nodes = (
(250,700,l),
(206,700,l),
(66,0,l),
(400,0,l),
(408,42,l),
(103,42,l),
(115,26,l)
);
},
{
closed = 1;
nodes = (
(19,172,l),
(132,259,l),
(154,273,l),
(410,472,l),
(420,522,l),
(152,313,l),
(136,306,l),
(29,221,l)
);
}
);
width = 504;
},
{
layerId = "BFB6D85B-0443-425C-887B-8FE5CF94470C";
shapes = (
{
closed = 1;
nodes = (
(338,700,l),
(161,700,l),
(21,0,l),
(406,0,l),
(436,150,l),
(130,150,l),
(212,69,l)
);
},
{
closed = 1;
nodes = (
(-1,135,l),
(132,231,l),
(225,285,l),
(419,422,l),
(451,581,l),
(222,416,l),
(145,372,l),
(30,287,l)
);
}
);
width = 504;
}
);
rightKerningGroup = public.kern1.L;
unicode = 321;
},
{
glyphname = M;
layers = (
{
layerId = "33B6963F-6F20-48B1-9EF3-C92BB9E42515";
shapes = (
{
closed = 1;
nodes = (
(17,0,l),
(102,0,l),
(279,544,l),
(257,544,l),
(368,-4,l),
(394,-4,l),
(718,543,l),
(700,543,l),
(668,0,l),
(754,0,l),
(793,700,l),
(729,700,l),
(384,110,l),
(429,112,l),
(312,700,l),
(249,700,l)
);
}
);
width = 890;
},
{
layerId = "241EF7EF-D36E-442A-9877-44FE28558D1E";
shapes = (
{
closed = 1;
nodes = (
(33,0,l),
(74,0,l),
(271,594,l),
(257,594,l),
(374,-1,l),
(389,-1,l),
(741,591,l),
(732,591,l),
(695,0,l),
(737,0,l),
(787,700,l),
(766,700,l),
(391,71,l),
(403,71,l),
(279,700,l),
(258,700,l)
);
}
);
width = 890;
},
{
layerId = "BFB6D85B-0443-425C-887B-8FE5CF94470C";
shapes = (
{
closed = 1;
nodes = (
(-19,0,l),
(144,0,l),
(286,439,l),
(257,439,l),
(345,0,l),
(419,0,l),
(676,438,l),
(648,438,l),
(619,0,l),
(789,0,l),
(834,700,l),
(678,700,l),
(375,172,l),
(464,183,l),
(363,700,l),
(206,700,l)
);
}
);
width = 890;
}
);
unicode = 77;
},
{
glyphname = N;
layers = (
{
layerId = "33B6963F-6F20-48B1-9EF3-C92BB9E42515";
shapes = (
{
closed = 1;
nodes = (
(53,0,l),
(141,0,l),
(254,565,l),
(225,565,l),
(547,0,l),
(599,0,l),
(739,700,l),
(651,700,l),
(540,146,l),
(572,146,l),
(258,700,l),
(193,700,l)
);
}
);
width = 773;
},
{
layerId = "241EF7EF-D36E-442A-9877-44FE28558D1E";
shapes = (
{
closed = 1;
nodes = (
(73,0,l),
(118,0,l),
(244,635,l),
(214,635,l),
(562,0,l),
(580,0,l),
(720,700,l),
(676,700,l),
(552,80,l),
(572,80,l),
(233,700,l),
(213,700,l)
);
}
);
width = 773;
},
{
layerId = "BFB6D85B-0443-425C-887B-8FE5CF94470C";
shapes = (
{
closed = 1;
nodes = (
(20,0,l),
(197,0,l),
(284,437,l),
(241,437,l),
(516,0,l),
(633,0,l),
(773,700,l),
(596,700,l),
(505,245,l),
(569,245,l),
(286,700,l),
(160,700,l)
);
}
);
width = 773;
}
);
rightKerningGroup = public.kern1.H;
unicode = 78;
},
{
glyphname = Njecyr;
layers = (
{
layerId = "33B6963F-6F20-48B1-9EF3-C92BB9E42515";
shapes = (
{
closed = 1;
nodes = (
(46,0,l),
(134,0,l),
(201,334,l),
(510,334,l),
(443,0,l),
(637,0,ls),
(758,0,o),
(874,82,o),
(900,211,cs),
(912,270,o),
(900,322,o),
(869,358,cs),
(837,394,o),
(787,416,o),
(720,416,cs),
(614,416,l),
(671,700,l),
(583,700,l),
(526,416,l),
(217,416,l),
(274,700,l),
(186,700,l)
);
},
{
closed = 1;
nodes = (
(547,82,l),
(598,334,l),
(691,334,ls),
(737,334,o),
(770,321,o),
(791,298,cs),
(811,276,o),
(816,246,o),
(809,210,cs),
(792,126,o),
(718,82,o),
(642,82,cs)
);
}
);
width = 973;
},
{
layerId = "241EF7EF-D36E-442A-9877-44FE28558D1E";
shapes = (
{
closed = 1;
nodes = (
(84,0,l),
(129,0,l),
(199,351,l),
(542,351,l),
(471,0,l),
(627,0,ls),
(741,0,o),
(852,87,o),
(875,204,cs),
(885,255,o),
(875,303,o),
(847,337,cs),
(819,371,o),
(772,393,o),
(706,393,cs),
(593,393,l),
(654,700,l),
(611,700,l),
(550,393,l),
(207,393,l),
(268,700,l),
(224,700,l)
);
},
{
closed = 1;
nodes = (
(523,42,l),
(585,351,l),
(693,351,ls),
(746,351,o),
(783,335,o),
(807,309,cs),
(831,282,o),
(838,245,o),
(829,202,cs),
(809,103,o),
(722,42,o),
(629,42,cs)
);
}
);
width = 973;
},
{
layerId = "BFB6D85B-0443-425C-887B-8FE5CF94470C";
shapes = (
{
closed = 1;
nodes = (
(-32,0,l),
(145,0,l),
(204,298,l),
(445,298,l),
(386,0,l),
(624,0,ls),
(762,0,o),
(888,77,o),
(918,227,cs),
(933,300,o),
(918,356,o),
(881,393,cs),
(844,430,o),
(785,449,o),
(714,450,c),
(652,450,l),
(702,700,l),
(526,700,l),
(476,450,l),
(235,450,l),
(285,700,l),
(108,700,l)
);
},
{
closed = 1;
nodes = (
(592,150,l),
(622,298,l),
(658,298,ls),
(692,298,o),
(714,289,o),
(727,276,c),
(739,263,o),
(742,244,o),
(738,225,cs),
(727,171,o),
(678,150,o),
(631,150,cs)
);
}
);
width = 973;
}
);
rightKerningGroup = public.kern1.uni042C;
unicode = 1034;
},
{
glyphname = O;
layers = (
{
layerId = "33B6963F-6F20-48B1-9EF3-C92BB9E42515";
shapes = (
{
closed = 1;
nodes = (
(296,74,o),
(237,103,o),
(201,153,c),
(164,200,o),
(150,269,o),
(166,350,cs),
(197,506,o),
(326,626,o),
(482,626,cs),
(557,626,o),
(618,598,o),
(653,549,c),
(690,500,o),
(703,432,o),
(687,350,cs),
(656,194,o),
(527,74,o),
(371,74,cs)
);
},
{
closed = 1;
nodes = (
(561,-10,o),
(735,140,o),
(777,349,cs),
(798,453,o),
(782,542,o),
(733,607,cs),
(684,672,o),
(604,710,o),
(498,710,cs),
(293,710,o),
(118,560,o),
(76,351,cs),
(56,249,o),
(73,158,o),
(121,94,cs),
(170,29,o),
(249,-10,o),
(355,-10,cs)
);
}
);
width = 832;
},
{
layerId = "241EF7EF-D36E-442A-9877-44FE28558D1E";
shapes = (
{
closed = 1;
nodes = (
(279,33,o),
(209,67,o),
(168,125,c),
(126,181,o),
(110,260,o),
(128,350,cs),
(163,523,o),
(316,666,o),
(489,666,cs),
(573,666,o),
(641,632,o),
(683,575,cs),
(725,519,o),
(742,440,o),
(724,350,cs),
(689,177,o),
(536,33,o),
(363,33,cs)
);
},
{
closed = 1;
nodes = (
(552,-11,o),
(728,149,o),
(768,348,cs),
(789,451,o),
(770,541,o),
(721,606,cs),
(673,671,o),
(595,710,o),
(498,710,cs),
(300,710,o),
(123,550,o),
(83,351,cs),
(63,249,o),
(82,158,o),
(131,93,cs),
(180,28,o),
(257,-11,o),
(354,-11,cs)
);
}
);
width = 832;
},
{
layerId = "BFB6D85B-0443-425C-887B-8FE5CF94470C";
shapes = (
{
closed = 1;
nodes = (
(329,143,o),
(285,162,o),
(259,198,cs),
(233,233,o),
(224,284,o),
(237,351,cs),
(261,472,o),
(345,560,o),
(468,560,cs),
(523,560,o),
(567,541,o),
(593,506,cs),
(619,470,o),
(628,418,o),
(615,351,cs),
(591,230,o),
(508,143,o),
(385,143,cs)
);
},
{
closed = 1;
nodes = (
(565,-7,o),
(753,131,o),
(797,351,cs),
(819,459,o),
(799,548,o),
(746,612,cs),
(693,675,o),
(608,710,o),
(498,710,cs),
(287,710,o),
(100,572,o),
(56,351,cs),
(34,243,o),
(53,154,o),
(104,91,cs),
(155,28,o),
(241,-7,o),
(355,-7,cs)
);
}
);
width = 832;
}
);
leftKerningGroup = public.kern2.C2;
rightKerningGroup = public.kern1.D;
unicode = 79;
},
{
glyphname = OE;
layers = (
{
layerId = "33B6963F-6F20-48B1-9EF3-C92BB9E42515";
shapes = (
{
closed = 1;
nodes = (
(770,0,l),
(787,82,l),
(509,82,l),
(560,334,l),
(776,334,l),
(792,415,l),
(576,415,l),
(616,618,l),
(884,618,l),
(900,700,l),
(508,700,ls),
(299,700,o),
(120,570,o),
(76,349,cs),
(56,249,o),
(71,161,o),
(121,99,cs),
(171,38,o),
(253,0,o),
(369,0,cs)
);
},
{
closed = 1;
nodes = (
(392,82,ls),
(307,82,o),
(241,107,o),
(203,153,cs),
(163,199,o),
(150,266,o),
(167,351,cs),
(201,521,o),
(337,618,o),
(499,618,cs),
(528,618,l),
(421,82,l)
);
}
);
width = 908;
},
{
layerId = "241EF7EF-D36E-442A-9877-44FE28558D1E";
shapes = (
{
closed = 1;
nodes = (
(756,0,l),
(764,42,l),
(457,42,l),
(520,357,l),
(768,357,l),
(777,399,l),
(529,399,l),
(580,658,l),
(877,658,l),
(886,700,l),
(521,700,ls),
(306,700,o),
(133,571,o),
(88,347,cs),
(68,246,o),
(82,158,o),
(134,97,cs),
(185,36,o),
(268,0,o),
(381,0,cs)
);
},
{
closed = 1;
nodes = (
(391,42,ls),
(293,42,o),
(220,74,o),
(176,128,cs),
(132,181,o),
(114,257,o),
(132,348,cs),
(172,547,o),
(323,658,o),
(513,658,cs),
(536,658,l),
(413,42,l)
);
}
);
width = 908;
},
{
layerId = "BFB6D85B-0443-425C-887B-8FE5CF94470C";
shapes = (
{
closed = 1;
nodes = (
(809,0,l),
(839,150,l),
(598,150,l),
(628,300,l),
(791,300,l),
(820,444,l),
(657,444,l),
(678,550,l),
(908,550,l),
(938,700,l),
(483,700,ls),
(269,700,o),
(93,571,o),
(48,346,cs),
(27,242,o),
(43,156,o),
(95,96,cs),
(146,35,o),
(232,0,o),
(351,0,cs)
);
},
{
closed = 1;
nodes = (
(374,150,ls),
(318,150,o),
(277,170,o),
(253,204,cs),
(229,238,o),
(223,287,o),
(235,348,cs),
(259,467,o),
(336,550,o),
(458,550,cs),
(502,550,l),
(422,150,l)
);
}
);
width = 908;
}
);
leftKerningGroup = public.kern2.C2;
rightKerningGroup = public.kern1.E;
unicode = 338;
},
{
glyphname = Obarcyr;
layers = (
{
layerId = "33B6963F-6F20-48B1-9EF3-C92BB9E42515";
shapes = (
{
closed = 1;
nodes = (
(722,388,l),
(145,388,l),
(129,310,l),
(707,310,l)
);
},
{
closed = 1;
nodes = (
(296,74,o),
(237,103,o),
(201,153,c),
(164,200,o),
(150,269,o),
(166,350,cs),
(197,506,o),
(326,626,o),
(482,626,cs),
(557,626,o),
(618,598,o),
(653,549,c),
(690,500,o),
(703,432,o),
(687,350,cs),
(656,194,o),
(527,74,o),
(371,74,cs)
);
},
{
closed = 1;
nodes = (
(561,-10,o),
(735,140,o),
(777,349,cs),
(798,453,o),
(782,542,o),
(733,607,cs),
(684,672,o),
(604,710,o),
(498,710,cs),
(293,710,o),
(118,560,o),
(76,351,cs),
(56,249,o),
(73,158,o),
(121,94,cs),
(170,29,o),
(249,-10,o),
(355,-10,cs)
);
}
);
width = 832;
},
{
layerId = "241EF7EF-D36E-442A-9877-44FE28558D1E";
shapes = (
{
closed = 1;
nodes = (
(740,370,l),
(120,370,l),
(112,328,l),
(731,328,l)
);
},
{
closed = 1;
nodes = (
(279,33,o),
(209,67,o),
(168,125,c),
(126,181,o),
(110,260,o),
(128,350,cs),
(163,523,o),
(316,666,o),
(489,666,cs),
(573,666,o),
(641,632,o),
(683,575,cs),
(725,519,o),
(742,440,o),
(724,350,cs),
(689,177,o),
(536,33,o),
(363,33,cs)
);
},
{
closed = 1;
nodes = (
(552,-11,o),
(728,149,o),
(768,348,cs),
(789,451,o),
(770,541,o),
(721,606,cs),
(673,671,o),
(595,710,o),
(498,710,cs),
(300,710,o),
(123,550,o),
(83,351,cs),
(63,249,o),
(82,158,o),
(131,93,cs),
(180,28,o),
(257,-11,o),
(354,-11,cs)
);
}
);
width = 832;
},
{
layerId = "BFB6D85B-0443-425C-887B-8FE5CF94470C";
shapes = (
{
closed = 1;
nodes = (
(718,414,l),
(166,414,l),
(140,284,l),
(692,284,l)
);
},
{
closed = 1;
nodes = (
(329,143,o),
(285,162,o),
(259,198,cs),
(233,233,o),
(224,284,o),
(237,351,cs),
(261,472,o),
(345,560,o),
(468,560,cs),
(523,560,o),
(567,541,o),
(593,506,cs),
(619,470,o),
(628,418,o),
(615,351,cs),
(591,230,o),
(508,143,o),
(385,143,cs)
);
},
{
closed = 1;
nodes = (
(565,-7,o),
(753,131,o),
(797,351,cs),
(819,459,o),
(799,548,o),
(746,612,cs),
(693,675,o),
(608,710,o),
(498,710,cs),
(287,710,o),
(100,572,o),
(56,351,cs),
(34,243,o),
(53,154,o),
(104,91,cs),
(155,28,o),
(241,-7,o),
(355,-7,cs)
);
}
);
width = 832;
}
);
leftKerningGroup = public.kern2.uni041E_2;
rightKerningGroup = public.kern1.uni041E;
unicode = 1256;
},
{
glyphname = Ohm;
layers = (
{
layerId = "33B6963F-6F20-48B1-9EF3-C92BB9E42515";
shapes = (
{
closed = 1;
nodes = (
(7,0,l),
(319,0,l),
(332,64,l),
(275,77,o),
(226,111,o),
(193,161,cs),
(160,211,o),
(146,278,o),
(162,356,cs),
(192,505,o),
(316,626,o),
(467,626,cs),
(619,626,o),
(697,499,o),
(667,350,cs),
(652,273,o),
(612,209,o),
(559,160,cs),
(506,110,o),
(442,77,o),
(382,64,c),
(369,0,l),
(681,0,l),
(698,81,l),
(504,81,l),
(494,47,l),
(559,77,o),
(619,122,o),
(666,178,cs),
(712,233,o),
(746,298,o),
(761,371,cs),
(801,572,o),
(679,710,o),
(485,710,cs),
(290,710,o),
(112,568,o),
(72,366,cs),
(58,294,o),
(67,229,o),
(92,175,cs),
(116,121,o),
(159,78,o),
(214,48,c),
(217,81,l),
(23,81,l)
);
}
);
width = 806;
},
{
layerId = "241EF7EF-D36E-442A-9877-44FE28558D1E";
shapes = (
{
closed = 1;
nodes = (
(38,0,l),
(313,0,l),
(320,35,l),
(253,60,o),
(199,103,o),
(166,158,cs),
(133,214,o),
(120,284,o),
(136,364,cs),
(168,525,o),
(312,667,o),
(476,667,cs),
(641,667,o),
(728,527,o),
(695,364,cs),
(679,284,o),
(638,213,o),
(583,158,cs),
(527,102,o),
(456,60,o),
(380,35,c),
(373,0,l),
(648,0,l),
(656,42,l),
(447,42,l),
(456,31,l),
(544,67,o),
(608,118,o),
(654,178,cs),
(700,237,o),
(728,304,o),
(741,367,cs),
(779,559,o),
(677,710,o),
(485,710,cs),
(293,710,o),
(130,559,o),
(92,367,cs),
(79,303,o),
(80,237,o),
(103,178,cs),
(126,119,o),
(169,67,o),
(242,31,c),
(256,42,l),
(47,42,l)
);
}
);
width = 806;
},
{
layerId = "BFB6D85B-0443-425C-887B-8FE5CF94470C";
shapes = (
{
closed = 1;
nodes = (
(-51,0,l),
(285,0,l),
(302,84,l),
(259,104,o),
(227,132,o),
(209,171,cs),
(191,210,o),
(187,258,o),
(199,318,cs),
(225,449,o),
(317,555,o),
(453,555,cs),
(593,555,o),
(641,448,o),
(614,315,cs),
(602,255,o),
(578,208,o),
(545,170,cs),
(512,132,o),
(469,104,o),
(418,84,c),
(402,0,l),
(737,0,l),
(767,150,l),
(600,150,l),
(437,13,l),
(519,53,o),
(603,94,o),
(671,148,cs),
(739,202,o),
(790,269,o),
(809,362,cs),
(854,586,o),
(688,710,o),
(485,710,cs),
(281,710,o),
(66,584,o),
(21,359,cs),
(3,267,o),
(28,200,o),
(74,147,cs),
(120,94,o),
(188,53,o),
(256,14,c),
(147,150,l),
(-21,150,l)
);
}
);
width = 806;
}
);
unicode = 8486;
},
{
glyphname = Omega;
layers = (
{
layerId = "33B6963F-6F20-48B1-9EF3-C92BB9E42515";
shapes = (
{
closed = 1;
nodes = (
(390,0,l),
(721,0,l),
(738,82,l),
(613,82,l),
(700,151,o),
(756,248,o),
(776,349,cs),
(817,555,o),
(709,710,o),
(498,710,cs),
(286,710,o),
(116,554,o),
(75,351,cs),
(53,242,o),
(71,153,o),
(139,82,c),
(7,82,l),
(-10,0,l),
(311,0,l),
(327,82,l),
(197,116,o),
(133,196,o),
(164,350,cs),
(197,513,o),
(331,627,o),
(481,627,cs),
(631,627,o),
(719,512,o),
(687,350,cs),
(654,183,o),
(558,120,o),
(406,82,c)
);
}
);
width = 832;
},
{
layerId = "241EF7EF-D36E-442A-9877-44FE28558D1E";
shapes = (
{
closed = 1;
nodes = (
(390,0,l),
(721,0,l),
(730,43,l),
(545,43,l),
(661,106,o),
(743,226,o),
(767,348,cs),
(808,553,o),
(693,710,o),
(498,710,cs),
(304,710,o),
(124,554,o),
(83,351,cs),
(58,224,o),
(93,110,o),
(185,43,c),
(-1,43,l),
(-10,0,l),
(311,0,l),
(318,36,l),
(173,80,o),
(92,176,o),
(127,350,cs),
(163,530,o),
(319,667,o),
(489,667,cs),
(658,667,o),
(759,530,o),
(724,350,cs),
(687,160,o),
(563,88,o),
(397,36,c)
);
}
);
width = 832;
},
{
layerId = "BFB6D85B-0443-425C-887B-8FE5CF94470C";
shapes = (
{
closed = 1;
nodes = (
(390,0,l),
(722,0,l),
(750,143,l),
(691,143,l),
(748,204,o),
(782,275,o),
(797,351,cs),
(840,567,o),
(718,710,o),
(498,710,cs),
(268,710,o),
(97,554,o),
(56,351,cs),
(41,276,o),
(36,188,o),
(93,143,c),
(19,143,l),
(-10,0,l),
(311,0,l),
(340,143,l),
(251,185,o),
(214,235,o),
(237,351,cs),
(264,487,o),
(358,560,o),
(468,560,cs),
(578,560,o),
(642,484,o),
(615,351,cs),
(592,237,o),
(529,166,o),
(419,143,c)
);
}
);
width = 832;
}
);
unicode = 937;
},
{
glyphname = Oslash;
layers = (
{
layerId = "33B6963F-6F20-48B1-9EF3-C92BB9E42515";
shapes = (
{
closed = 1;
nodes = (
(834,648,l),
(791,705,l),
(17,52,l),
(59,-3,l)
);
},
{
closed = 1;
nodes = (
(295,74,o),
(236,103,o),
(200,153,c),
(163,200,o),
(149,269,o),
(165,350,cs),
(196,506,o),
(325,626,o),
(481,626,cs),
(556,626,o),
(617,598,o),
(652,549,c),
(689,500,o),
(702,432,o),
(686,350,cs),
(655,194,o),
(526,74,o),
(370,74,cs)
);
},
{
closed = 1;
nodes = (
(560,-10,o),
(734,140,o),
(776,349,cs),
(797,453,o),
(781,542,o),
(732,607,cs),
(683,672,o),
(603,710,o),
(497,710,cs),
(292,710,o),
(117,560,o),
(75,351,cs),
(55,249,o),
(72,158,o),
(120,94,cs),
(169,29,o),
(248,-10,o),
(354,-10,cs)
);
}
);
width = 832;
},
{
layerId = "241EF7EF-D36E-442A-9877-44FE28558D1E";
shapes = (
{
closed = 1;
nodes = (
(830,666,l),
(808,696,l),
(22,42,l),
(45,12,l)
);
},
{
closed = 1;
nodes = (
(279,33,o),
(209,67,o),
(168,125,c),
(126,181,o),
(110,260,o),
(128,350,cs),
(163,523,o),
(316,666,o),
(489,666,cs),
(573,666,o),
(641,632,o),
(683,575,cs),
(725,519,o),
(742,440,o),
(724,350,cs),
(689,177,o),
(536,33,o),
(363,33,cs)
);
},
{
closed = 1;
nodes = (
(552,-11,o),
(728,149,o),
(768,348,cs),
(789,451,o),
(770,541,o),
(721,606,cs),
(673,671,o),
(595,710,o),
(498,710,cs),
(300,710,o),
(123,550,o),
(83,351,cs),
(63,249,o),
(82,158,o),
(131,93,cs),
(180,28,o),
(257,-11,o),
(354,-11,cs)
);
}
);
width = 832;
},
{
layerId = "BFB6D85B-0443-425C-887B-8FE5CF94470C";
shapes = (
{
closed = 1;
nodes = (
(847,639,l),
(775,726,l),
(1,49,l),
(73,-38,l)
);
},
{
closed = 1;
nodes = (
(329,143,o),
(285,162,o),
(259,198,cs),
(233,233,o),
(224,284,o),
(237,351,cs),
(261,472,o),
(345,560,o),
(468,560,cs),
(523,560,o),
(567,541,o),
(593,506,cs),
(619,470,o),
(628,418,o),
(615,351,cs),
(591,230,o),
(508,143,o),
(385,143,cs)
);
},
{
closed = 1;
nodes = (
(565,-7,o),
(753,131,o),
(797,351,cs),
(819,459,o),
(799,548,o),
(746,612,cs),
(693,675,o),
(608,710,o),
(498,710,cs),
(287,710,o),
(100,572,o),
(56,351,cs),
(34,243,o),
(53,154,o),
(104,91,cs),
(155,28,o),
(241,-7,o),
(355,-7,cs)
);
}
);
width = 832;
}
);
leftKerningGroup = public.kern2.C2;
rightKerningGroup = public.kern1.D;
unicode = 216;
},
{
glyphname = P;
layers = (
{
layerId = "33B6963F-6F20-48B1-9EF3-C92BB9E42515";
shapes = (
{
closed = 1;
nodes = (
(186,700,l),
(47,0,l),
(136,0,l),
(191,279,l),
(293,279,ls),
(417,279,o),
(538,358,o),
(565,492,cs),
(577,551,o),
(565,604,o),
(533,641,cs),
(500,678,o),
(449,700,o),
(379,700,cs)
);
},
{
closed = 1;
nodes = (
(208,361,l),
(259,618,l),
(355,618,ls),
(402,618,o),
(434,603,o),
(454,580,cs),
(475,556,o),
(482,525,o),
(475,490,cs),
(458,405,o),
(380,361,o),
(305,361,cs)
);
}
);
width = 577;
},
{
layerId = "241EF7EF-D36E-442A-9877-44FE28558D1E";
shapes = (
{
closed = 1;
nodes = (
(209,700,l),
(69,0,l),
(113,0,l),
(174,304,l),
(312,304,ls),
(424,304,o),
(531,388,o),
(554,504,cs),
(564,556,o),
(556,605,o),
(528,641,cs),
(500,677,o),
(454,700,o),
(390,700,cs)
);
},
{
closed = 1;
nodes = (
(183,347,l),
(245,658,l),
(376,658,ls),
(426,658,o),
(463,640,o),
(487,613,cs),
(511,586,o),
(519,547,o),
(510,503,cs),
(491,408,o),
(402,347,o),
(313,347,cs)
);
}
);
width = 577;
},
{
layerId = "BFB6D85B-0443-425C-887B-8FE5CF94470C";
shapes = (
{
closed = 1;
nodes = (
(143,700,l),
(3,0,l),
(179,0,l),
(225,230,l),
(260,230,ls),
(412,230,o),
(550,301,o),
(584,470,cs),
(599,547,o),
(585,605,o),
(547,643,cs),
(509,681,o),
(446,700,o),
(364,700,cs)
);
},
{
closed = 1;
nodes = (
(255,380,l),
(289,550,l),
(314,550,ls),
(356,550,o),
(381,540,o),
(394,525,c),
(406,509,o),
(409,489,o),
(404,466,cs),
(391,401,o),
(340,380,o),
(283,380,cs)
);
}
);
width = 577;
}
);
unicode = 80;
},
{
glyphname = Pecyr;
layers = (
{
layerId = "33B6963F-6F20-48B1-9EF3-C92BB9E42515";
shapes = (
{
closed = 1;
nodes = (
(52,0,l),
(141,0,l),
(270,650,l),
(234,618,l),
(627,618,l),
(601,648,l),
(472,0,l),
(560,0,l),
(700,700,l),
(192,700,l)
);
}
);
width = 733;
},
{
layerId = "241EF7EF-D36E-442A-9877-44FE28558D1E";
shapes = (
{
closed = 1;
nodes = (
(68,0,l),
(112,0,l),
(244,662,l),
(236,658,l),
(636,658,l),
(632,662,l),
(500,0,l),
(543,0,l),
(683,700,l),
(208,700,l)
);
}
);
width = 733;
},
{
layerId = "BFB6D85B-0443-425C-887B-8FE5CF94470C";
shapes = (
{
closed = 1;
nodes = (
(14,0,l),
(190,0,l),
(317,632,l),
(229,550,l),
(609,550,l),
(545,616,l),
(422,0,l),
(598,0,l),
(738,700,l),
(154,700,l)
);
}
);
width = 733;
}
);
rightKerningGroup = public.kern1.uni0418;
unicode = 1055;
},
{
glyphname = Psi;
layers = (
{
layerId = "33B6963F-6F20-48B1-9EF3-C92BB9E42515";
shapes = (
{
closed = 1;
nodes = (
(473,319,l),
(457,239,l),
(468,239,ls),
(656,239,o),
(826,360,o),
(866,559,cs),
(894,700,l),
(803,700,l),
(774,558,ls),
(744,410,o),
(631,319,o),
(487,319,cs)
);
},
{
closed = 1;
nodes = (
(396,239,l),
(412,319,l),
(397,319,ls),
(328,319,o),
(274,343,o),
(239,384,cs),
(203,426,o),
(189,488,o),
(204,561,cs),
(232,700,l),
(141,700,l),
(113,560,ls),
(94,467,o),
(113,387,o),
(160,330,cs),
(207,273,o),
(284,239,o),
(380,239,cs)
);
},
{
closed = 1;
nodes = (
(471,700,l),
(325,-34,l),
(412,-34,l),
(559,700,l)
);
}
);
width = 874;
},
{
layerId = "241EF7EF-D36E-442A-9877-44FE28558D1E";
shapes = (
{
closed = 1;
nodes = (
(446,279,l),
(438,237,l),
(450,237,ls),
(638,237,o),
(805,364,o),
(844,560,cs),
(872,700,l),
(827,700,l),
(798,559,ls),
(764,387,o),
(628,279,o),
(461,279,cs)
);
},
{
closed = 1;
nodes = (
(413,237,l),
(421,279,l),
(406,279,ls),
(329,279,o),
(264,308,o),
(222,357,cs),
(180,406,o),
(161,476,o),
(178,560,cs),
(206,700,l),
(162,700,l),
(134,558,ls),
(116,466,o),
(134,385,o),
(181,328,cs),
(228,271,o),
(305,237,o),
(397,237,cs)
);
},
{
closed = 1;
nodes = (
(494,700,l),
(348,-34,l),
(392,-34,l),
(538,700,l)
);
}
);
width = 874;
},
{
layerId = "BFB6D85B-0443-425C-887B-8FE5CF94470C";
shapes = (
{
closed = 1;
nodes = (
(524,391,l),
(493,236,l),
(504,236,ls),
(700,236,o),
(868,349,o),
(910,557,cs),
(939,701,l),
(753,701,l),
(724,557,ls),
(704,455,o),
(642,391,o),
(538,391,cs)
);
},
{
closed = 1;
nodes = (
(359,236,l),
(390,391,l),
(376,391,ls),
(326,391,o),
(290,406,o),
(269,434,cs),
(248,462,o),
(243,504,o),
(254,557,cs),
(282,700,l),
(96,700,l),
(68,557,ls),
(49,464,o),
(67,384,o),
(115,327,cs),
(162,270,o),
(241,236,o),
(344,236,cs)
);
},
{
closed = 1;
nodes = (
(429,700,l),
(283,-34,l),
(459,-34,l),
(606,700,l)
);
}
);
width = 874;
}
);
unicode = 936;
},
{
glyphname = Q;
layers = (
{
layerId = "33B6963F-6F20-48B1-9EF3-C92BB9E42515";
shapes = (
{
closed = 1;
nodes = (
(617,-179,l),
(636,-179,l),
(654,-90,l),
(452,60,l),
(361,14,l)
);
},
{
closed = 1;
nodes = (
(296,74,o),
(237,103,o),
(201,153,c),
(164,200,o),
(150,269,o),
(166,350,cs),
(197,506,o),
(326,626,o),
(482,626,cs),
(557,626,o),
(618,598,o),
(653,549,c),
(690,500,o),
(703,432,o),
(687,350,cs),
(656,194,o),
(527,74,o),
(371,74,cs)
);
},
{
closed = 1;
nodes = (
(561,-10,o),
(735,140,o),
(777,349,cs),
(798,453,o),
(782,542,o),
(733,607,cs),
(684,672,o),
(604,710,o),
(498,710,cs),
(293,710,o),
(118,560,o),
(76,351,cs),
(56,249,o),
(73,158,o),
(121,94,cs),
(170,29,o),
(249,-10,o),
(355,-10,cs)
);
}
);
width = 832;
},
{
layerId = "241EF7EF-D36E-442A-9877-44FE28558D1E";
shapes = (
{
closed = 1;
nodes = (
(631,-171,l),
(650,-171,l),
(658,-132,l),
(454,36,l),
(406,15,l)
);
},
{
closed = 1;
nodes = (
(279,33,o),
(209,67,o),
(168,125,c),
(126,181,o),
(110,260,o),
(128,350,cs),
(163,523,o),
(316,666,o),
(489,666,cs),
(573,666,o),
(641,632,o),
(683,575,cs),
(725,519,o),
(742,440,o),
(724,350,cs),
(689,177,o),
(536,33,o),
(363,33,cs)
);
},
{
closed = 1;
nodes = (
(552,-11,o),
(728,149,o),
(768,348,cs),
(789,451,o),
(770,541,o),
(721,606,cs),
(673,671,o),
(595,710,o),
(498,710,cs),
(300,710,o),
(123,550,o),
(83,351,cs),
(63,249,o),
(82,158,o),
(131,93,cs),
(180,28,o),
(257,-11,o),
(354,-11,cs)
);
}
);
width = 832;
},
{
layerId = "BFB6D85B-0443-425C-887B-8FE5CF94470C";
shapes = (
{
closed = 1;
nodes = (
(593,-176,l),
(613,-176,l),
(648,0,l),
(443,101,l),
(310,-1,l)
);
},
{
closed = 1;
nodes = (
(329,143,o),
(285,162,o),
(259,198,cs),
(233,233,o),
(224,284,o),
(237,351,cs),
(261,472,o),
(345,560,o),
(468,560,cs),
(523,560,o),
(567,541,o),
(593,506,cs),
(619,470,o),
(628,418,o),
(615,351,cs),
(591,230,o),
(508,143,o),
(385,143,cs)
);
},
{
closed = 1;
nodes = (
(565,-7,o),
(753,131,o),
(797,351,cs),
(819,459,o),
(799,548,o),
(746,612,cs),
(693,675,o),
(608,710,o),
(498,710,cs),
(287,710,o),
(100,572,o),
(56,351,cs),
(34,243,o),
(53,154,o),
(104,91,cs),
(155,28,o),
(241,-7,o),
(355,-7,cs)
);
}
);
width = 832;
}
);
leftKerningGroup = public.kern2.C2;
rightKerningGroup = public.kern1.D;
unicode = 81;
},
{
glyphname = R;
layers = (
{
layerId = "33B6963F-6F20-48B1-9EF3-C92BB9E42515";
shapes = (
{
closed = 1;
nodes = (
(431,0,l),
(525,0,l),
(529,21,l),
(352,322,l),
(256,296,l)
);
},
{
closed = 1;
nodes = (
(185,700,l),
(45,0,l),
(133,0,l),
(189,282,l),
(299,282,ls),
(421,282,o),
(535,364,o),
(561,493,cs),
(573,553,o),
(563,605,o),
(530,642,cs),
(498,678,o),
(449,700,o),
(380,700,cs)
);
},
{
closed = 1;
nodes = (
(206,365,l),
(256,618,l),
(355,618,ls),
(400,618,o),
(432,604,o),
(452,582,cs),
(472,559,o),
(477,528,o),
(470,492,cs),
(453,407,o),
(381,365,o),
(305,365,cs)
);
}
);
width = 611;
},
{
layerId = "241EF7EF-D36E-442A-9877-44FE28558D1E";
shapes = (
{
closed = 1;
nodes = (
(458,0,l),
(498,0,l),
(502,21,l),
(320,307,l),
(265,301,l)
);
},
{
closed = 1;
nodes = (
(207,700,l),
(67,0,l),
(111,0,l),
(170,295,l),
(298,295,ls),
(413,295,o),
(526,378,o),
(550,499,cs),
(560,551,o),
(551,601,o),
(522,638,cs),
(492,675,o),
(442,700,o),
(370,700,cs)
);
},
{
closed = 1;
nodes = (
(178,337,l),
(242,658,l),
(361,658,ls),
(417,658,o),
(456,640,o),
(482,611,cs),
(507,583,o),
(514,543,o),
(505,498,cs),
(484,394,o),
(395,337,o),
(300,337,cs)
);
}
);
width = 611;
},
{
layerId = "BFB6D85B-0443-425C-887B-8FE5CF94470C";
shapes = (
{
closed = 1;
nodes = (
(366,0,l),
(556,0,l),
(560,21,l),
(414,359,l),
(241,296,l)
);
},
{
closed = 1;
nodes = (
(131,700,l),
(-9,0,l),
(167,0,l),
(219,260,l),
(287,260,ls),
(422,260,o),
(544,336,o),
(573,483,cs),
(588,556,o),
(574,611,o),
(535,647,cs),
(496,683,o),
(434,700,o),
(356,700,cs)
);
},
{
closed = 1;
nodes = (
(249,410,l),
(277,550,l),
(331,550,ls),
(355,550,o),
(374,543,o),
(384,531,c),
(393,518,o),
(396,501,o),
(392,481,cs),
(383,434,o),
(343,410,o),
(300,410,cs)
);
}
);
width = 611;
}
);
rightKerningGroup = public.kern1.R;
unicode = 82;
},
{
glyphname = S;
layers = (
{
layerId = "33B6963F-6F20-48B1-9EF3-C92BB9E42515";
shapes = (
{
closed = 1;
nodes = (
(339,-10,o),
(451,64,o),
(478,200,cs),
(490,259,o),
(478,300,o),
(453,330,cs),
(428,360,o),
(392,380,o),
(354,398,cs),
(315,416,o),
(278,431,o),
(251,451,cs),
(224,471,o),
(208,496,o),
(216,534,cs),
(230,602,o),
(291,625,o),
(349,625,cs),
(412,625,o),
(450,599,o),
(476,563,c),
(543,625,l),
(529,648,o),
(508,669,o),
(480,685,cs),
(452,700,o),
(414,710,o),
(368,710,cs),
(256,710,o),
(149,653,o),
(124,529,cs),
(113,473,o),
(125,435,o),
(152,407,c),
(177,379,o),
(212,360,o),
(251,344,cs),
(290,327,o),
(327,312,o),
(354,290,cs),
(381,267,o),
(394,237,o),
(385,191,cs),
(369,111,o),
(304,75,o),
(230,75,cs),
(192,75,o),
(161,85,o),
(137,101,c),
(113,116,o),
(94,137,o),
(79,163,c),
(3,95,l),
(21,66,o),
(45,41,o),
(79,22,cs),
(113,3,o),
(156,-10,o),
(213,-10,cs)
);
}
);
width = 544;
},
{
layerId = "241EF7EF-D36E-442A-9877-44FE28558D1E";
shapes = (
{
closed = 1;
nodes = (
(312,-10,o),
(425,54,o),
(452,187,cs),
(463,244,o),
(449,283,o),
(422,314,cs),
(394,345,o),
(356,366,o),
(316,386,cs),
(276,405,o),
(235,423,o),
(208,448,c),
(179,472,o),
(163,503,o),
(172,547,cs),
(190,635,o),
(275,666,o),
(349,666,cs),
(415,666,o),
(460,643,o),
(491,616,c),
(523,653,l),
(504,672,o),
(478,685,o),
(451,696,c),
(423,705,o),
(392,710,o),
(358,710,cs),
(259,710,o),
(151,660,o),
(128,547,cs),
(117,491,o),
(131,454,o),
(159,425,c),
(186,395,o),
(225,375,o),
(266,355,cs),
(306,335,o),
(344,317,o),
(373,291,c),
(401,264,o),
(417,232,o),
(407,183,cs),
(387,81,o),
(293,34,o),
(202,34,cs),
(166,34,o),
(134,40,o),
(107,52,cs),
(80,64,o),
(56,82,o),
(37,102,c),
(5,64,l),
(26,41,o),
(51,24,o),
(82,11,cs),
(113,-2,o),
(148,-10,o),
(191,-10,cs)
);
}
);
width = 544;
},
{
layerId = "BFB6D85B-0443-425C-887B-8FE5CF94470C";
shapes = (
{
closed = 1;
nodes = (
(342,-7,o),
(476,62,o),
(508,221,cs),
(520,281,o),
(509,321,o),
(488,352,cs),
(467,383,o),
(433,401,o),
(399,416,cs),
(365,431,o),
(330,442,o),
(305,455,cs),
(280,468,o),
(265,486,o),
(270,511,cs),
(277,545,o),
(309,555,o),
(336,555,cs),
(378,555,o),
(404,533,o),
(423,494,c),
(557,597,l),
(551,620,o),
(536,647,o),
(506,670,cs),
(476,693,o),
(432,710,o),
(365,710,cs),
(238,710,o),
(117,648,o),
(88,505,cs),
(77,448,o),
(87,408,o),
(108,377,cs),
(129,346,o),
(161,327,o),
(194,311,cs),
(227,294,o),
(261,282,o),
(285,266,cs),
(309,250,o),
(324,232,o),
(318,204,cs),
(310,163,o),
(268,148,o),
(234,148,cs),
(202,148,o),
(177,160,o),
(160,177,cs),
(143,194,o),
(133,215,o),
(126,235,c),
(-16,122,l),
(-7,91,o),
(12,59,o),
(46,35,cs),
(80,10,o),
(129,-7,o),
(200,-7,cs)
);
}
);
width = 544;
}
);
leftKerningGroup = public.kern2.S2;
rightKerningGroup = public.kern1.S;
unicode = 83;
},
{
glyphname = Schwa;
layers = (
{
layerId = "33B6963F-6F20-48B1-9EF3-C92BB9E42515";
shapes = (
{
closed = 1;
nodes = (
(555,-10,o),
(721,135,o),
(763,347,cs),
(783,448,o),
(769,539,o),
(720,605,cs),
(671,670,o),
(590,710,o),
(476,710,cs),
(373,710,o),
(271,679,o),
(182,604,c),
(227,539,l),
(291,595,o),
(385,625,o),
(462,625,cs),
(544,625,o),
(605,595,o),
(640,545,cs),
(675,495,o),
(688,426,o),
(672,347,cs),
(640,187,o),
(524,75,o),
(363,75,cs),
(289,75,o),
(231,99,o),
(197,142,c),
(161,184,o),
(148,247,o),
(164,326,cs),
(175,379,l),
(112,324,l),
(722,324,l),
(738,404,l),
(86,404,l),
(74,340,ls),
(50,220,o),
(71,132,o),
(122,75,cs),
(173,18,o),
(252,-10,o),
(346,-10,cs)
);
}
);
width = 820;
},
{
layerId = "241EF7EF-D36E-442A-9877-44FE28558D1E";
shapes = (
{
closed = 1;
nodes = (
(546,-10,o),
(714,141,o),
(756,349,cs),
(775,442,o),
(765,533,o),
(722,600,cs),
(679,667,o),
(600,710,o),
(487,710,cs),
(394,710,o),
(290,684,o),
(209,615,c),
(232,582,l),
(305,643,o),
(399,666,o),
(481,666,cs),
(572,666,o),
(640,632,o),
(679,575,cs),
(718,518,o),
(730,438,o),
(712,350,cs),
(675,167,o),
(532,34,o),
(349,34,cs),
(264,34,o),
(199,63,o),
(162,117,cs),
(124,170,o),
(111,248,o),
(131,346,cs),
(138,379,l),
(105,348,l),
(721,348,l),
(729,391,l),
(92,391,l),
(85,354,ls),
(60,228,o),
(77,136,o),
(124,77,cs),
(171,18,o),
(248,-10,o),
(340,-10,cs)
);
}
);
width = 820;
},
{
layerId = "BFB6D85B-0443-425C-887B-8FE5CF94470C";
shapes = (
{
closed = 1;
nodes = (
(559,-7,o),
(731,130,o),
(775,349,cs),
(797,461,o),
(776,552,o),
(722,614,cs),
(668,676,o),
(582,710,o),
(476,710,cs),
(363,710,o),
(249,671,o),
(162,576,c),
(256,459,l),
(311,526,o),
(373,555,o),
(449,555,cs),
(508,555,o),
(551,539,o),
(574,504,cs),
(597,469,o),
(602,417,o),
(588,345,cs),
(564,224,o),
(503,148,o),
(377,148,cs),
(319,148,o),
(282,164,o),
(261,197,cs),
(240,229,o),
(236,279,o),
(250,347,cs),
(257,379,l),
(95,285,l),
(724,285,l),
(753,429,l),
(80,429,l),
(60,328,ls),
(38,217,o),
(61,133,o),
(114,77,cs),
(167,21,o),
(249,-7,o),
(347,-7,cs)
);
}
);
width = 820;
}
);
leftKerningGroup = public.kern2.C2;
rightKerningGroup = public.kern1.D;
unicode = 399;
},
{
glyphname = Shacyr;
layers = (
{
layerId = "33B6963F-6F20-48B1-9EF3-C92BB9E42515";
shapes = (
{
closed = 1;
nodes = (
(51,0,l),
(788,0,l),
(928,700,l),
(839,700,l),
(716,82,l),
(480,82,l),
(603,700,l),
(515,700,l),
(391,82,l),
(155,82,l),
(279,700,l),
(191,700,l)
);
}
);
width = 958;
},
{
layerId = "241EF7EF-D36E-442A-9877-44FE28558D1E";
shapes = (
{
closed = 1;
nodes = (
(71,0,l),
(767,0,l),
(907,700,l),
(862,700,l),
(731,42,l),
(449,42,l),
(580,700,l),
(536,700,l),
(405,42,l),
(123,42,l),
(255,700,l),
(211,700,l)
);
}
);
width = 958;
},
{
layerId = "BFB6D85B-0443-425C-887B-8FE5CF94470C";
shapes = (
{
closed = 1;
nodes = (
(-7,0,l),
(846,0,l),
(986,700,l),
(809,700,l),
(699,150,l),
(538,150,l),
(647,700,l),
(471,700,l),
(361,150,l),
(199,150,l),
(309,700,l),
(133,700,l)
);
}
);
width = 958;
}
);
rightKerningGroup = public.kern1.uni0418;
unicode = 1064;
},
{
glyphname = Shchacyr;
layers = (
{
layerId = "33B6963F-6F20-48B1-9EF3-C92BB9E42515";
shapes = (
{
closed = 1;
nodes = (
(772,-133,l),
(855,-133,l),
(898,82,l),
(802,82,l),
(925,700,l),
(837,700,l),
(714,82,l),
(479,82,l),
(602,700,l),
(514,700,l),
(390,82,l),
(154,82,l),
(278,700,l),
(190,700,l),
(50,0,l),
(798,0,l)
);
}
);
width = 996;
},
{
layerId = "241EF7EF-D36E-442A-9877-44FE28558D1E";
shapes = (
{
closed = 1;
nodes = (
(817,-124,l),
(858,-124,l),
(891,42,l),
(789,42,l),
(921,700,l),
(877,700,l),
(745,42,l),
(463,42,l),
(595,700,l),
(550,700,l),
(419,42,l),
(138,42,l),
(269,700,l),
(225,700,l),
(85,0,l),
(842,0,l)
);
}
);
width = 996;
},
{
layerId = "BFB6D85B-0443-425C-887B-8FE5CF94470C";
shapes = (
{
closed = 1;
nodes = (
(743,-150,l),
(900,-150,l),
(960,150,l),
(876,150,l),
(986,700,l),
(810,700,l),
(700,150,l),
(538,150,l),
(648,700,l),
(472,700,l),
(362,150,l),
(200,150,l),
(310,700,l),
(134,700,l),
(-6,0,l),
(773,0,l)
);
}
);
width = 996;
}
);
rightKerningGroup = public.kern1.uni0414;
unicode = 1065;
},
{
glyphname = Shhacyr;
layers = (
{
layerId = "33B6963F-6F20-48B1-9EF3-C92BB9E42515";
shapes = (
{
closed = 1;
nodes = (
(414,0,l),
(502,0,l),
(550,241,ls),
(564,312,o),
(555,358,o),
(525,386,c),
(494,413,o),
(444,424,o),
(378,424,cs),
(342,424,o),
(307,421,o),
(276,418,c),
(245,414,o),
(220,410,o),
(200,409,c),
(183,324,l),
(240,336,o),
(294,341,o),
(333,341,cs),
(393,341,o),
(429,333,o),
(447,314,cs),
(465,295,o),
(468,267,o),
(459,224,cs)
);
},
{
closed = 1;
nodes = (
(48,0,l),
(137,0,l),
(277,700,l),
(187,700,l)
);
}
);
width = 636;
},
{
layerId = "241EF7EF-D36E-442A-9877-44FE28558D1E";
shapes = (
{
closed = 1;
nodes = (
(435,0,l),
(480,0,l),
(528,241,ls),
(541,308,o),
(530,350,o),
(500,376,cs),
(470,402,o),
(420,411,o),
(354,411,cs),
(318,411,o),
(283,409,o),
(252,405,cs),
(221,401,o),
(195,396,o),
(176,393,c),
(167,351,l),
(232,364,o),
(293,368,o),
(335,368,cs),
(395,368,o),
(437,359,o),
(462,339,cs),
(487,319,o),
(494,289,o),
(485,246,cs)
);
},
{
closed = 1;
nodes = (
(65,0,l),
(108,0,l),
(248,700,l),
(205,700,l)
);
}
);
width = 636;
},
{
layerId = "BFB6D85B-0443-425C-887B-8FE5CF94470C";
shapes = (
{
closed = 1;
nodes = (
(360,0,l),
(537,0,l),
(585,242,ls),
(601,321,o),
(592,372,o),
(561,404,cs),
(530,435,o),
(478,446,o),
(410,446,cs),
(366,446,o),
(322,442,o),
(283,435,cs),
(244,428,o),
(211,421,o),
(187,414,c),
(155,250,l),
(217,287,o),
(272,301,o),
(323,301,cs),
(361,301,o),
(384,293,o),
(396,274,c),
(407,255,o),
(406,227,o),
(397,184,cs)
);
},
{
closed = 1;
nodes = (
(3,0,l),
(179,0,l),
(319,700,l),
(143,700,l)
);
}
);
width = 636;
}
);
rightKerningGroup = public.kern1.uni042C;
unicode = 1210;
},
{
glyphname = Sigma;
layers = (
{
layerId = "33B6963F-6F20-48B1-9EF3-C92BB9E42515";
shapes = (
{
closed = 1;
nodes = (
(603,700,l),
(151,700,l),
(139,641,l),
(270,333,l),
(283,392,l),
(5,55,l),
(-5,0,l),
(457,0,l),
(473,82,l),
(99,82,l),
(101,47,l),
(339,334,l),
(350,391,l),
(234,660,l),
(211,618,l),
(586,618,l)
);
}
);
width = 582;
},
{
layerId = "241EF7EF-D36E-442A-9877-44FE28558D1E";
shapes = (
{
closed = 1;
nodes = (
(603,700,l),
(152,700,l),
(147,678,l),
(296,338,l),
(307,388,l),
(2,23,l),
(-3,0,l),
(453,0,l),
(461,42,l),
(47,42,l),
(42,13,l),
(316,340,l),
(325,385,l),
(189,694,l),
(181,658,l),
(594,658,l)
);
}
);
width = 582;
},
{
layerId = "BFB6D85B-0443-425C-887B-8FE5CF94470C";
shapes = (
{
closed = 1;
nodes = (
(604,700,l),
(152,700,l),
(128,578,l),
(228,324,l),
(244,400,l),
(14,109,l),
(-8,0,l),
(466,0,l),
(496,150,l),
(189,150,l),
(203,104,l),
(377,324,l),
(392,400,l),
(312,602,l),
(265,550,l),
(574,550,l)
);
}
);
width = 582;
}
);
unicode = 931;
},
{
glyphname = Softcyr;
layers = (
{
layerId = "33B6963F-6F20-48B1-9EF3-C92BB9E42515";
shapes = (
{
closed = 1;
nodes = (
(45,0,l),
(231,0,ls),
(361,0,o),
(481,85,o),
(508,222,cs),
(521,285,o),
(508,338,o),
(476,378,cs),
(444,417,o),
(391,440,o),
(319,440,cs),
(221,440,l),
(273,700,l),
(185,700,l)
);
},
{
closed = 1;
nodes = (
(149,82,l),
(204,358,l),
(291,358,ls),
(343,358,o),
(379,344,o),
(399,319,c),
(418,293,o),
(424,259,o),
(416,221,cs),
(398,129,o),
(322,82,o),
(236,82,cs)
);
}
);
width = 571;
},
{
layerId = "241EF7EF-D36E-442A-9877-44FE28558D1E";
shapes = (
{
closed = 1;
nodes = (
(72,0,l),
(228,0,ls),
(350,0,o),
(462,86,o),
(487,213,cs),
(498,267,o),
(488,318,o),
(460,358,c),
(431,397,o),
(382,422,o),
(312,422,cs),
(201,422,l),
(256,700,l),
(212,700,l)
);
},
{
closed = 1;
nodes = (
(125,42,l),
(192,379,l),
(300,379,ls),
(357,379,o),
(397,360,o),
(420,330,cs),
(444,299,o),
(451,257,o),
(442,212,cs),
(421,106,o),
(332,42,o),
(231,42,cs)
);
}
);
width = 571;
},
{
layerId = "BFB6D85B-0443-425C-887B-8FE5CF94470C";
shapes = (
{
closed = 1;
nodes = (
(-10,0,l),
(233,0,ls),
(380,0,o),
(512,80,o),
(544,240,cs),
(560,319,o),
(544,376,o),
(505,416,cs),
(466,455,o),
(403,474,o),
(328,474,cs),
(261,474,l),
(306,700,l),
(130,700,l)
);
},
{
closed = 1;
nodes = (
(196,150,l),
(231,324,l),
(272,324,ls),
(311,324,o),
(337,314,o),
(352,299,c),
(366,283,o),
(370,262,o),
(365,238,cs),
(352,174,o),
(296,150,o),
(240,150,cs)
);
}
);
width = 571;
}
);
rightKerningGroup = public.kern1.uni042C;
unicode = 1068;
},
{
glyphname = T;
layers = (
{
layerId = "33B6963F-6F20-48B1-9EF3-C92BB9E42515";
shapes = (
{
closed = 1;
nodes = (
(150,0,l),
(238,0,l),
(362,618,l),
(542,618,l),
(558,700,l),
(110,700,l),
(93,618,l),
(274,618,l)
);
}
);
width = 508;
},
{
layerId = "241EF7EF-D36E-442A-9877-44FE28558D1E";
shapes = (
{
closed = 1;
nodes = (
(172,0,l),
(216,0,l),
(348,658,l),
(540,658,l),
(548,700,l),
(120,700,l),
(111,658,l),
(303,658,l)
);
}
);
width = 508;
},
{
layerId = "BFB6D85B-0443-425C-887B-8FE5CF94470C";
shapes = (
{
closed = 1;
nodes = (
(106,0,l),
(282,0,l),
(392,550,l),
(540,550,l),
(570,700,l),
(98,700,l),
(68,550,l),
(216,550,l)
);
}
);
width = 508;
}
);
leftKerningGroup = public.kern2.T2;
rightKerningGroup = public.kern1.T;
unicode = 84;
},
{
glyphname = Tbar;
layers = (
{
layerId = "33B6963F-6F20-48B1-9EF3-C92BB9E42515";
shapes = (
{
closed = 1;
nodes = (
(150,0,l),
(238,0,l),
(362,618,l),
(542,618,l),
(558,700,l),
(110,700,l),
(93,618,l),
(274,618,l)
);
},
{
closed = 1;
nodes = (
(462,416,l),
(89,416,l),
(73,334,l),
(445,334,l)
);
}
);
width = 508;
},
{
layerId = "241EF7EF-D36E-442A-9877-44FE28558D1E";
shapes = (
{
closed = 1;
nodes = (
(172,0,l),
(216,0,l),
(348,658,l),
(540,658,l),
(548,700,l),
(120,700,l),
(111,658,l),
(303,658,l)
);
},
{
closed = 1;
nodes = (
(445,396,l),
(87,396,l),
(79,354,l),
(437,354,l)
);
}
);
width = 508;
},
{
layerId = "BFB6D85B-0443-425C-887B-8FE5CF94470C";
shapes = (
{
closed = 1;
nodes = (
(106,0,l),
(282,0,l),
(392,550,l),
(540,550,l),
(570,700,l),
(98,700,l),
(68,550,l),
(216,550,l)
);
},
{
closed = 1;
nodes = (
(477,450,l),
(81,450,l),
(51,300,l),
(447,300,l)
);
}
);
width = 508;
}
);
leftKerningGroup = public.kern2.T2;
rightKerningGroup = public.kern1.T;
unicode = 358;
},
{
glyphname = Thorn;
layers = (
{
layerId = "33B6963F-6F20-48B1-9EF3-C92BB9E42515";
shapes = (
{
closed = 1;
nodes = (
(130,148,l),
(268,148,ls),
(338,148,o),
(397,171,o),
(444,210,cs),
(491,249,o),
(523,302,o),
(535,362,cs),
(547,421,o),
(536,474,o),
(504,511,cs),
(472,548,o),
(423,571,o),
(353,571,cs),
(215,571,l),
(198,488,l),
(327,488,ls),
(374,488,o),
(406,474,o),
(426,451,cs),
(445,428,o),
(451,397,o),
(444,361,cs),
(437,324,o),
(418,292,o),
(389,269,cs),
(360,245,o),
(320,231,o),
(274,231,cs),
(147,231,l)
);
},
{
closed = 1;
nodes = (
(271,700,l),
(183,700,l),
(43,0,l),
(131,0,l)
);
}
);
width = 567;
},
{
layerId = "241EF7EF-D36E-442A-9877-44FE28558D1E";
shapes = (
{
closed = 1;
nodes = (
(149,158,l),
(260,158,ls),
(323,158,o),
(378,181,o),
(422,218,cs),
(465,254,o),
(496,304,o),
(507,357,cs),
(518,410,o),
(506,458,o),
(477,494,cs),
(448,530,o),
(402,551,o),
(339,551,cs),
(228,551,l),
(219,508,l),
(319,508,ls),
(373,508,o),
(413,492,o),
(438,465,cs),
(463,438,o),
(470,400,o),
(461,356,cs),
(452,313,o),
(430,274,o),
(395,246,cs),
(360,218,o),
(313,200,o),
(261,200,cs),
(158,200,l)
);
},
{
closed = 1;
nodes = (
(262,700,l),
(219,700,l),
(79,0,l),
(123,0,l)
);
}
);
width = 567;
},
{
layerId = "BFB6D85B-0443-425C-887B-8FE5CF94470C";
shapes = (
{
closed = 1;
nodes = (
(84,111,l),
(271,111,ls),
(354,111,o),
(424,135,o),
(477,178,cs),
(530,221,o),
(565,281,o),
(580,354,cs),
(595,427,o),
(583,487,o),
(548,528,c),
(512,568,o),
(452,591,o),
(367,591,cs),
(180,591,l),
(148,431,l),
(330,431,ls),
(361,431,o),
(381,422,o),
(392,407,c),
(403,391,o),
(404,372,o),
(400,352,cs),
(396,331,o),
(386,311,o),
(367,296,c),
(348,280,o),
(322,271,o),
(288,271,cs),
(116,271,l)
);
},
{
closed = 1;
nodes = (
(288,700,l),
(111,700,l),
(-29,0,l),
(148,0,l)
);
}
);
width = 567;
}
);
unicode = 222;
},
{
glyphname = Tsecyr;
layers = (
{
layerId = "33B6963F-6F20-48B1-9EF3-C92BB9E42515";
shapes = (
{
closed = 1;
nodes = (
(533,-133,l),
(618,-133,l),
(661,82,l),
(565,82,l),
(688,700,l),
(600,700,l),
(476,82,l),
(156,82,l),
(279,700,l),
(191,700,l),
(51,0,l),
(560,0,l)
);
}
);
width = 760;
},
{
layerId = "241EF7EF-D36E-442A-9877-44FE28558D1E";
shapes = (
{
closed = 1;
nodes = (
(582,-124,l),
(624,-124,l),
(657,42,l),
(554,42,l),
(686,700,l),
(642,700,l),
(511,42,l),
(137,42,l),
(268,700,l),
(224,700,l),
(84,0,l),
(606,0,l)
);
}
);
width = 760;
},
{
layerId = "BFB6D85B-0443-425C-887B-8FE5CF94470C";
shapes = (
{
closed = 1;
nodes = (
(484,-150,l),
(641,-150,l),
(701,150,l),
(618,150,l),
(728,700,l),
(551,700,l),
(441,150,l),
(223,150,l),
(333,700,l),
(156,700,l),
(17,0,l),
(514,0,l)
);
}
);
width = 760;
}
);
rightKerningGroup = public.kern1.uni0414;
unicode = 1062;
},
{
glyphname = Tshecyr;
layers = (
{
layerId = "33B6963F-6F20-48B1-9EF3-C92BB9E42515";
shapes = (
{
closed = 1;
nodes = (
(515,0,l),
(603,0,l),
(651,241,ls),
(665,312,o),
(655,358,o),
(625,386,c),
(594,413,o),
(545,424,o),
(479,424,cs),
(443,424,o),
(408,421,o),
(378,418,c),
(348,414,o),
(320,410,o),
(301,409,c),
(284,324,l),
(341,336,o),
(395,341,o),
(435,341,cs),
(494,341,o),
(529,333,o),
(548,314,cs),
(567,295,o),
(568,267,o),
(559,224,cs)
);
},
{
closed = 1;
nodes = (
(371,670,l),
(282,670,l),
(148,0,l),
(237,0,l)
);
},
{
closed = 1;
nodes = (
(627,700,l),
(114,700,l),
(97,618,l),
(611,618,l)
);
}
);
width = 734;
},
{
layerId = "241EF7EF-D36E-442A-9877-44FE28558D1E";
shapes = (
{
closed = 1;
nodes = (
(542,0,l),
(586,0,l),
(634,241,ls),
(647,308,o),
(636,350,o),
(606,376,cs),
(576,402,o),
(526,411,o),
(460,411,cs),
(424,411,o),
(389,409,o),
(358,405,cs),
(327,401,o),
(301,396,o),
(282,393,c),
(274,351,l),
(339,364,o),
(400,368,o),
(440,368,cs),
(502,368,o),
(544,359,o),
(568,339,cs),
(592,319,o),
(600,289,o),
(591,246,cs)
);
},
{
closed = 1;
nodes = (
(350,671,l),
(306,671,l),
(171,0,l),
(216,0,l)
);
},
{
closed = 1;
nodes = (
(634,700,l),
(116,700,l),
(108,658,l),
(625,658,l)
);
}
);
width = 734;
},
{
layerId = "BFB6D85B-0443-425C-887B-8FE5CF94470C";
shapes = (
{
closed = 1;
nodes = (
(461,0,l),
(637,0,l),
(686,242,ls),
(702,321,o),
(692,372,o),
(661,404,cs),
(630,435,o),
(579,446,o),
(511,446,cs),
(467,446,o),
(422,442,o),
(383,435,cs),
(344,428,o),
(312,421,o),
(288,414,c),
(255,250,l),
(317,287,o),
(372,301,o),
(423,301,cs),
(461,301,o),
(484,293,o),
(496,274,c),
(507,255,o),
(507,227,o),
(498,184,cs)
);
},
{
closed = 1;
nodes = (
(413,670,l),
(237,670,l),
(103,0,l),
(279,0,l)
);
},
{
closed = 1;
nodes = (
(615,700,l),
(99,700,l),
(69,550,l),
(585,550,l)
);
}
);
width = 734;
}
);
leftKerningGroup = public.kern2.uni0422;
rightKerningGroup = public.kern1.uni042C;
unicode = 1035;
},
{
glyphname = U;
layers = (
{
layerId = "33B6963F-6F20-48B1-9EF3-C92BB9E42515";
shapes = (
{
closed = 1;
nodes = (
(470,-10,o),
(576,115,o),
(609,278,cs),
(694,700,l),
(606,700,l),
(523,281,ls),
(496,144,o),
(421,76,o),
(315,76,cs),
(191,76,o),
(166,170,o),
(189,283,cs),
(272,700,l),
(184,700,l),
(99,277,ls),
(66,114,o),
(128,-10,o),
(298,-10,cs)
);
}
);
width = 718;
},
{
layerId = "241EF7EF-D36E-442A-9877-44FE28558D1E";
shapes = (
{
closed = 1;
nodes = (
(459,-10,o),
(563,112,o),
(594,266,cs),
(681,700,l),
(637,700,l),
(551,269,ls),
(521,119,o),
(433,34,o),
(307,34,cs),
(170,34,o),
(131,141,o),
(157,269,cs),
(243,700,l),
(199,700,l),
(112,266,ls),
(81,112,o),
(137,-10,o),
(298,-10,cs)
);
}
);
width = 718;
},
{
layerId = "BFB6D85B-0443-425C-887B-8FE5CF94470C";
shapes = (
{
closed = 1;
nodes = (
(485,-10,o),
(602,108,o),
(638,287,cs),
(721,700,l),
(554,700,l),
(471,283,ls),
(454,198,o),
(402,155,o),
(334,155,cs),
(248,155,o),
(236,217,o),
(252,295,cs),
(333,700,l),
(156,700,l),
(72,279,ls),
(34,89,o),
(120,-10,o),
(304,-10,cs)
);
}
);
width = 718;
}
);
leftKerningGroup = public.kern2.U;
rightKerningGroup = public.kern1.J;
unicode = 85;
},
{
glyphname = Ucyr;
layers = (
{
layerId = "33B6963F-6F20-48B1-9EF3-C92BB9E42515";
shapes = (
{
closed = 1;
nodes = (
(165,-8,o),
(195,-2,o),
(224,17,cs),
(253,36,o),
(285,67,o),
(314,116,c),
(666,680,l),
(670,700,l),
(588,700,l),
(251,153,ls),
(235,128,o),
(218,110,o),
(200,98,cs),
(182,86,o),
(166,81,o),
(147,81,cs),
(139,81,o),
(129,80,o),
(117,83,c),
(99,-5,l),
(113,-8,o),
(124,-8,o),
(137,-8,cs)
);
},
{
closed = 1;
nodes = (
(264,129,l),
(329,225,l),
(195,700,l),
(107,700,l),
(103,680,l)
);
}
);
width = 617;
},
{
layerId = "241EF7EF-D36E-442A-9877-44FE28558D1E";
shapes = (
{
closed = 1;
nodes = (
(170,-8,o),
(196,0,o),
(221,17,cs),
(246,34,o),
(273,64,o),
(298,107,c),
(652,679,l),
(656,700,l),
(618,700,l),
(264,117,ls),
(248,92,o),
(232,73,o),
(213,58,cs),
(194,43,o),
(175,36,o),
(152,36,cs),
(143,36,o),
(135,36,o),
(121,39,c),
(112,-5,l),
(123,-8,o),
(133,-8,o),
(144,-8,cs)
);
},
{
closed = 1;
nodes = (
(278,107,l),
(307,161,l),
(158,700,l),
(122,700,l),
(117,679,l)
);
}
);
width = 617;
},
{
layerId = "BFB6D85B-0443-425C-887B-8FE5CF94470C";
shapes = (
{
closed = 1;
nodes = (
(163,-8,o),
(201,-2,o),
(239,18,cs),
(277,38,o),
(316,72,o),
(351,131,cs),
(687,680,l),
(691,700,l),
(528,700,l),
(241,216,ls),
(225,189,o),
(211,173,o),
(196,164,cs),
(181,155,o),
(165,152,o),
(144,152,cs),
(129,152,o),
(123,154,o),
(116,155,c),
(85,-2,l),
(99,-6,o),
(114,-8,o),
(131,-8,cs)
);
},
{
closed = 1;
nodes = (
(245,159,l),
(394,258,l),
(265,700,l),
(86,700,l),
(82,680,l)
);
}
);
width = 617;
}
);
leftKerningGroup = public.kern2.uni0423_2;
rightKerningGroup = public.kern1.uni0423;
unicode = 1059;
},
{
glyphname = Uogonek;
layers = (
{
layerId = "33B6963F-6F20-48B1-9EF3-C92BB9E42515";
shapes = (
{
closed = 1;
nodes = (
(420,-244,o),
(438,-241,o),
(458,-234,c),
(470,-176,l),
(454,-181,o),
(440,-182,o),
(431,-182,cs),
(391,-182,o),
(375,-156,o),
(383,-115,cs),
(389,-87,o),
(401,-62,o),
(421,-31,cs),
(441,0,o),
(469,34,o),
(510,78,cs),
(555,125,o),
(593,192,o),
(609,272,cs),
(695,700,l),
(607,700,l),
(523,276,ls),
(510,212,o),
(483,163,o),
(449,128,cs),
(414,93,o),
(369,76,o),
(315,76,cs),
(263,76,o),
(223,93,o),
(203,128,cs),
(183,163,o),
(176,213,o),
(189,278,cs),
(273,700,l),
(185,700,l),
(99,270,ls),
(82,186,o),
(92,116,o),
(127,68,c),
(160,19,o),
(219,-10,o),
(297,-10,cs),
(331,-10,o),
(361,-4,o),
(392,7,c),
(366,-24,o),
(347,-51,o),
(333,-76,cs),
(319,-100,o),
(309,-121,o),
(305,-140,cs),
(299,-168,o),
(303,-194,o),
(318,-214,cs),
(333,-233,o),
(358,-244,o),
(392,-244,cs)
);
}
);
width = 718;
},
{
layerId = "241EF7EF-D36E-442A-9877-44FE28558D1E";
shapes = (
{
closed = 1;
nodes = (
(399,-241,o),
(424,-237,o),
(437,-233,c),
(444,-195,l),
(429,-199,o),
(414,-201,o),
(401,-201,cs),
(355,-201,o),
(340,-175,o),
(348,-134,cs),
(353,-110,o),
(365,-84,o),
(387,-52,cs),
(409,-20,o),
(443,17,o),
(491,68,c),
(544,121,o),
(577,185,o),
(593,266,cs),
(680,700,l),
(636,700,l),
(550,269,ls),
(535,194,o),
(506,136,o),
(464,96,cs),
(421,55,o),
(369,34,o),
(306,34,cs),
(243,34,o),
(199,55,o),
(173,96,cs),
(147,136,o),
(141,194,o),
(156,269,cs),
(242,700,l),
(198,700,l),
(111,266,ls),
(94,183,o),
(101,114,o),
(134,66,cs),
(167,18,o),
(222,-10,o),
(297,-10,cs),
(331,-10,o),
(375,-1,o),
(411,19,c),
(374,-22,o),
(348,-54,o),
(331,-80,c),
(313,-106,o),
(304,-126,o),
(300,-145,cs),
(295,-172,o),
(299,-195,o),
(312,-213,c),
(324,-231,o),
(349,-241,o),
(383,-241,cs)
);
}
);
width = 718;
},
{
layerId = "BFB6D85B-0443-425C-887B-8FE5CF94470C";
shapes = (
{
closed = 1;
nodes = (
(440,-250,o),
(462,-242,o),
(478,-235,c),
(494,-158,l),
(480,-165,o),
(465,-166,o),
(457,-166,cs),
(431,-166,o),
(419,-141,o),
(428,-94,cs),
(434,-65,o),
(447,-36,o),
(464,-8,c),
(480,20,o),
(500,46,o),
(523,69,cs),
(577,122,o),
(619,192,o),
(638,287,cs),
(721,700,l),
(554,700,l),
(471,283,ls),
(462,240,o),
(445,208,o),
(421,187,cs),
(396,166,o),
(365,155,o),
(330,155,cs),
(298,155,o),
(273,165,o),
(259,187,cs),
(245,209,o),
(242,244,o),
(252,295,cs),
(333,700,l),
(156,700,l),
(72,279,ls),
(54,187,o),
(64,114,o),
(102,66,cs),
(139,17,o),
(205,-10,o),
(298,-10,cs),
(329,-10,o),
(356,-7,o),
(381,-2,c),
(365,-25,o),
(351,-47,o),
(340,-69,cs),
(329,-91,o),
(322,-112,o),
(318,-132,cs),
(311,-165,o),
(315,-195,o),
(330,-216,c),
(344,-237,o),
(371,-250,o),
(410,-250,cs)
);
}
);
width = 718;
}
);
leftKerningGroup = public.kern2.U;
rightKerningGroup = public.kern1.J;
unicode = 370;
},
{
glyphname = Ustraightstrokecyr;
layers = (
{
layerId = "33B6963F-6F20-48B1-9EF3-C92BB9E42515";
shapes = (
{
closed = 1;
nodes = (
(521,323,l),
(75,323,l),
(58,242,l),
(504,242,l)
);
},
{
closed = 1;
nodes = (
(275,236,l),
(289,239,l),
(628,680,l),
(632,700,l),
(545,700,l),
(287,363,l),
(325,363,l),
(195,700,l),
(107,700,l),
(103,680,l)
);
},
{
closed = 1;
nodes = (
(348,359,l),
(260,359,l),
(189,0,l),
(277,0,l)
);
}
);
width = 580;
},
{
layerId = "241EF7EF-D36E-442A-9877-44FE28558D1E";
shapes = (
{
closed = 1;
nodes = (
(518,319,l),
(80,319,l),
(72,277,l),
(510,277,l)
);
},
{
closed = 1;
nodes = (
(290,305,l),
(303,306,l),
(603,679,l),
(607,700,l),
(572,700,l),
(294,354,l),
(318,355,l),
(170,700,l),
(133,700,l),
(128,679,l)
);
},
{
closed = 1;
nodes = (
(329,363,l),
(286,363,l),
(213,0,l),
(256,0,l)
);
}
);
width = 580;
},
{
layerId = "BFB6D85B-0443-425C-887B-8FE5CF94470C";
shapes = (
{
closed = 1;
nodes = (
(524,330,l),
(67,330,l),
(39,190,l),
(496,190,l)
);
},
{
closed = 1;
nodes = (
(247,132,l),
(265,132,l),
(668,680,l),
(672,700,l),
(500,700,l),
(283,401,l),
(352,402,l),
(253,700,l),
(67,700,l),
(63,680,l)
);
},
{
closed = 1;
nodes = (
(379,307,l),
(203,307,l),
(141,0,l),
(318,0,l)
);
}
);
width = 580;
}
);
leftKerningGroup = public.kern2.uni04AE_2;
rightKerningGroup = public.kern1.uni04AE;
unicode = 1200;
},
{
glyphname = V;
layers = (
{
layerId = "33B6963F-6F20-48B1-9EF3-C92BB9E42515";
shapes = (
{
closed = 1;
nodes = (
(240,-9,l),
(274,-9,l),
(684,680,l),
(688,700,l),
(604,700,l),
(270,128,l),
(305,128,l),
(197,700,l),
(110,700,l),
(106,680,l)
);
}
);
width = 638;
},
{
layerId = "241EF7EF-D36E-442A-9877-44FE28558D1E";
shapes = (
{
closed = 1;
nodes = (
(251,-10,l),
(259,-10,l),
(663,680,l),
(667,700,l),
(630,700,l),
(262,69,l),
(283,69,l),
(167,700,l),
(129,700,l),
(125,680,l)
);
}
);
width = 638;
},
{
layerId = "BFB6D85B-0443-425C-887B-8FE5CF94470C";
shapes = (
{
closed = 1;
nodes = (
(210,-6,l),
(308,-6,l),
(692,680,l),
(696,700,l),
(531,700,l),
(254,177,l),
(352,177,l),
(280,700,l),
(102,700,l),
(98,680,l)
);
}
);
width = 638;
}
);
unicode = 86;
},
{
glyphname = W;
layers = (
{
layerId = "33B6963F-6F20-48B1-9EF3-C92BB9E42515";
shapes = (
{
closed = 1;
nodes = (
(172,-9,l),
(209,-9,l),
(532,585,l),
(484,585,l),
(567,-9,l),
(605,-9,l),
(928,680,l),
(932,700,l),
(850,700,l),
(590,141,l),
(627,136,l),
(550,700,l),
(512,700,l),
(210,136,l),
(247,147,l),
(212,700,l),
(128,700,l),
(124,680,l)
);
}
);
width = 900;
},
{
layerId = "241EF7EF-D36E-442A-9877-44FE28558D1E";
shapes = (
{
closed = 1;
nodes = (
(189,-3,l),
(422,436,l),
(520,610,l),
(558,171,l),
(587,-3,l),
(816,483,l),
(911,694,l),
(894,700,l),
(672,260,l),
(603,98,l),
(558,538,l),
(530,700,l),
(295,260,l),
(215,98,l),
(195,539,l),
(165,700,l),
(143,686,l),
(169,194,l)
);
}
);
width = 900;
},
{
layerId = "BFB6D85B-0443-425C-887B-8FE5CF94470C";
shapes = (
{
closed = 1;
nodes = (
(117,0,l),
(245,0,l),
(536,514,l),
(455,514,l),
(533,0,l),
(656,0,l),
(961,680,l),
(965,700,l),
(803,700,l),
(570,180,l),
(673,149,l),
(591,700,l),
(478,700,l),
(177,150,l),
(285,220,l),
(266,700,l),
(94,700,l),
(90,680,l)
);
}
);
width = 900;
}
);
leftKerningGroup = public.kern2.W2;
rightKerningGroup = public.kern1.W;
unicode = 87;
},
{
glyphname = X;
layers = (
{
layerId = "33B6963F-6F20-48B1-9EF3-C92BB9E42515";
shapes = (
{
closed = 1;
nodes = (
(-17,0,l),
(68,0,l),
(306,297,l),
(422,0,l),
(513,0,l),
(517,20,l),
(376,373,l),
(623,680,l),
(627,700,l),
(545,700,l),
(339,443,l),
(243,700,l),
(150,700,l),
(146,680,l),
(269,369,l),
(-13,20,l)
);
}
);
width = 615;
},
{
layerId = "241EF7EF-D36E-442A-9877-44FE28558D1E";
shapes = (
{
closed = 1;
nodes = (
(2,0,l),
(40,0,l),
(311,332,l),
(453,0,l),
(491,0,l),
(495,20,l),
(347,369,l),
(605,680,l),
(609,700,l),
(571,700,l),
(328,407,l),
(203,700,l),
(166,700,l),
(162,680,l),
(294,371,l),
(6,20,l)
);
}
);
width = 615;
},
{
layerId = "BFB6D85B-0443-425C-887B-8FE5CF94470C";
shapes = (
{
closed = 1;
nodes = (
(-83,0,l),
(92,0,l),
(291,262,l),
(388,0,l),
(577,0,l),
(581,20,l),
(426,382,l),
(665,680,l),
(669,700,l),
(498,700,l),
(346,503,l),
(277,700,l),
(90,700,l),
(86,680,l),
(205,380,l),
(-79,20,l)
);
}
);
width = 615;
}
);
unicode = 88;
},
{
glyphname = Xatailcyr;
layers = (
{
layerId = "33B6963F-6F20-48B1-9EF3-C92BB9E42515";
shapes = (
{
closed = 1;
nodes = (
(466,-133,l),
(550,-133,l),
(593,82,l),
(467,82,l),
(434,0,l),
(492,0,l)
);
},
{
closed = 1;
nodes = (
(-23,0,l),
(62,0,l),
(300,297,l),
(416,0,l),
(507,0,l),
(511,20,l),
(370,373,l),
(618,680,l),
(622,700,l),
(539,700,l),
(334,443,l),
(237,700,l),
(144,700,l),
(140,680,l),
(263,369,l),
(-19,20,l)
);
}
);
width = 605;
},
{
layerId = "241EF7EF-D36E-442A-9877-44FE28558D1E";
shapes = (
{
closed = 1;
nodes = (
(487,-124,l),
(530,-124,l),
(563,42,l),
(462,42,l),
(453,0,l),
(512,0,l)
);
},
{
closed = 1;
nodes = (
(2,0,l),
(40,0,l),
(311,332,l),
(452,0,l),
(490,0,l),
(494,20,l),
(347,369,l),
(604,680,l),
(608,700,l),
(570,700,l),
(328,407,l),
(203,700,l),
(166,700,l),
(162,680,l),
(293,371,l),
(6,20,l)
);
}
);
width = 605;
},
{
layerId = "BFB6D85B-0443-425C-887B-8FE5CF94470C";
shapes = (
{
closed = 1;
nodes = (
(412,-150,l),
(569,-150,l),
(629,150,l),
(509,150,l),
(371,0,l),
(442,0,l)
);
},
{
closed = 1;
nodes = (
(-103,0,l),
(73,0,l),
(272,262,l),
(369,0,l),
(558,0,l),
(562,20,l),
(407,382,l),
(646,680,l),
(650,700,l),
(478,700,l),
(327,503,l),
(258,700,l),
(71,700,l),
(67,680,l),
(186,380,l),
(-99,20,l)
);
}
);
width = 605;
}
);
leftKerningGroup = public.kern2.uni0416_2;
rightKerningGroup = public.kern1.uni0425;
unicode = 1202;
},
{
glyphname = Xi;
layers = (
{
layerId = "33B6963F-6F20-48B1-9EF3-C92BB9E42515";
shapes = (
{
closed = 1;
nodes = (
(586,619,l),
(602,700,l),
(151,700,l),
(135,619,l)
);
},
{
closed = 1;
nodes = (
(11,81,l),
(-5,0,l),
(457,0,l),
(473,81,l)
);
},
{
closed = 1;
nodes = (
(459,406,l),
(165,406,l),
(151,336,l),
(445,336,l)
);
}
);
width = 582;
},
{
layerId = "241EF7EF-D36E-442A-9877-44FE28558D1E";
shapes = (
{
closed = 1;
nodes = (
(594,658,l),
(603,700,l),
(152,700,l),
(144,658,l)
);
},
{
closed = 1;
nodes = (
(6,42,l),
(-3,0,l),
(453,0,l),
(461,42,l)
);
},
{
closed = 1;
nodes = (
(433,387,l),
(184,387,l),
(177,348,l),
(426,348,l)
);
}
);
width = 582;
},
{
layerId = "BFB6D85B-0443-425C-887B-8FE5CF94470C";
shapes = (
{
closed = 1;
nodes = (
(574,550,l),
(604,700,l),
(152,700,l),
(122,550,l)
);
},
{
closed = 1;
nodes = (
(22,150,l),
(-8,0,l),
(466,0,l),
(496,150,l)
);
},
{
closed = 1;
nodes = (
(465,435,l),
(171,435,l),
(147,315,l),
(441,315,l)
);
}
);
width = 582;
}
);
unicode = 926;
},
{
glyphname = Y;
layers = (
{
layerId = "33B6963F-6F20-48B1-9EF3-C92BB9E42515";
shapes = (
{
closed = 1;
nodes = (
(275,236,l),
(290,239,l),
(623,680,l),
(627,700,l),
(541,700,l),
(288,363,l),
(325,363,l),
(202,700,l),
(113,700,l),
(109,680,l)
);
},
{
closed = 1;
nodes = (
(349,359,l),
(261,359,l),
(189,0,l),
(277,0,l)
);
}
);
width = 580;
},
{
layerId = "241EF7EF-D36E-442A-9877-44FE28558D1E";
shapes = (
{
closed = 1;
nodes = (
(290,305,l),
(303,306,l),
(603,679,l),
(607,700,l),
(572,700,l),
(294,354,l),
(318,355,l),
(170,700,l),
(133,700,l),
(128,679,l)
);
},
{
closed = 1;
nodes = (
(329,363,l),
(286,363,l),
(213,0,l),
(256,0,l)
);
}
);
width = 580;
},
{
layerId = "BFB6D85B-0443-425C-887B-8FE5CF94470C";
shapes = (
{
closed = 1;
nodes = (
(247,132,l),
(265,132,l),
(629,680,l),
(633,700,l),
(461,700,l),
(283,401,l),
(352,402,l),
(292,700,l),
(106,700,l),
(102,680,l)
);
},
{
closed = 1;
nodes = (
(379,307,l),
(203,307,l),
(142,0,l),
(318,0,l)
);
}
);
width = 580;
}
);
leftKerningGroup = public.kern2.Y2;
rightKerningGroup = public.kern1.Y;
unicode = 89;
},
{
glyphname = Yacyr;
layers = (
{
layerId = "33B6963F-6F20-48B1-9EF3-C92BB9E42515";
shapes = (
{
closed = 1;
nodes = (
(339,0,l),
(427,0,l),
(567,700,l),
(382,700,ls),
(314,700,o),
(254,677,o),
(208,641,cs),
(161,604,o),
(130,551,o),
(118,492,cs),
(106,432,o),
(117,380,o),
(149,342,cs),
(180,304,o),
(228,281,o),
(296,281,cs),
(395,281,l)
);
},
{
closed = 1;
nodes = (
(-25,0,l),
(67,0,l),
(306,303,l),
(219,320,l),
(-21,20,l)
);
},
{
closed = 1;
nodes = (
(324,362,ls),
(278,362,o),
(247,376,o),
(227,400,cs),
(207,423,o),
(202,453,o),
(209,489,cs),
(216,526,o),
(235,557,o),
(264,581,cs),
(292,604,o),
(329,618,o),
(375,618,cs),
(463,618,l),
(411,362,l)
);
}
);
width = 591;
},
{
layerId = "241EF7EF-D36E-442A-9877-44FE28558D1E";
shapes = (
{
closed = 1;
nodes = (
(355,0,l),
(400,0,l),
(539,700,l),
(383,700,ls),
(320,700,o),
(263,675,o),
(220,638,cs),
(176,601,o),
(146,550,o),
(135,495,cs),
(125,446,o),
(136,396,o),
(165,359,cs),
(194,322,o),
(241,297,o),
(308,297,cs),
(415,297,l)
);
},
{
closed = 1;
nodes = (
(8,0,l),
(47,0,l),
(292,303,l),
(254,320,l),
(12,21,l)
);
},
{
closed = 1;
nodes = (
(320,340,ls),
(266,340,o),
(228,359,o),
(204,387,cs),
(180,415,o),
(172,455,o),
(181,498,cs),
(190,541,o),
(213,581,o),
(248,610,cs),
(283,639,o),
(329,658,o),
(384,658,cs),
(487,658,l),
(423,340,l)
);
}
);
width = 591;
},
{
layerId = "BFB6D85B-0443-425C-887B-8FE5CF94470C";
shapes = (
{
closed = 1;
nodes = (
(318,0,l),
(495,0,l),
(635,700,l),
(394,700,ls),
(317,700,o),
(248,680,o),
(196,641,cs),
(144,602,o),
(108,545,o),
(93,472,cs),
(78,399,o),
(92,343,o),
(128,306,cs),
(163,269,o),
(217,250,o),
(287,250,cs),
(368,250,l)
);
},
{
closed = 1;
nodes = (
(-78,0,l),
(114,0,l),
(341,303,l),
(163,320,l),
(-74,20,l)
);
},
{
closed = 1;
nodes = (
(346,400,ls),
(315,400,o),
(296,409,o),
(285,422,cs),
(274,435,o),
(271,454,o),
(275,474,cs),
(279,495,o),
(291,515,o),
(307,528,cs),
(323,541,o),
(346,550,o),
(373,550,cs),
(428,550,l),
(398,400,l)
);
}
);
width = 591;
}
);
rightKerningGroup = public.kern1.uni0418;
unicode = 1071;
},
{
glyphname = Yatcyr;
layers = (
{
layerId = "33B6963F-6F20-48B1-9EF3-C92BB9E42515";
shapes = (
{
closed = 1;
nodes = (
(100,0,l),
(292,0,ls),
(360,0,o),
(422,24,o),
(470,64,cs),
(517,103,o),
(549,157,o),
(561,218,cs),
(573,279,o),
(562,331,o),
(531,371,c),
(499,410,o),
(447,432,o),
(379,432,cs),
(275,432,l),
(294,526,l),
(483,526,l),
(500,612,l),
(311,612,l),
(328,700,l),
(240,700,l),
(222,612,l),
(93,612,l),
(76,526,l),
(205,526,l)
);
},
{
closed = 1;
nodes = (
(205,82,l),
(258,350,l),
(350,350,ls),
(398,350,o),
(432,335,o),
(452,311,cs),
(471,287,o),
(478,254,o),
(471,217,cs),
(464,180,o),
(442,145,o),
(414,121,cs),
(385,97,o),
(345,82,o),
(297,82,cs)
);
}
);
width = 624;
},
{
layerId = "241EF7EF-D36E-442A-9877-44FE28558D1E";
shapes = (
{
closed = 1;
nodes = (
(138,0,l),
(291,0,ls),
(363,0,o),
(423,26,o),
(468,66,cs),
(513,106,o),
(543,158,o),
(554,213,cs),
(565,266,o),
(556,318,o),
(527,358,cs),
(498,397,o),
(448,422,o),
(376,422,cs),
(265,422,l),
(292,558,l),
(493,558,l),
(501,600,l),
(301,600,l),
(321,700,l),
(277,700,l),
(257,600,l),
(102,600,l),
(93,558,l),
(249,558,l)
);
},
{
closed = 1;
nodes = (
(189,42,l),
(256,379,l),
(363,379,ls),
(422,379,o),
(463,360,o),
(487,330,cs),
(511,300,o),
(517,256,o),
(508,212,cs),
(499,167,o),
(476,124,o),
(439,93,cs),
(402,62,o),
(354,42,o),
(295,42,cs)
);
}
);
width = 624;
},
{
layerId = "BFB6D85B-0443-425C-887B-8FE5CF94470C";
shapes = (
{
closed = 1;
nodes = (
(42,0,l),
(328,0,ls),
(391,0,o),
(450,20,o),
(497,57,cs),
(543,93,o),
(578,146,o),
(591,213,cs),
(604,277,o),
(590,328,o),
(558,364,cs),
(526,400,o),
(475,420,o),
(412,420,cs),
(302,420,l),
(313,477,l),
(490,477,l),
(520,627,l),
(343,627,l),
(358,700,l),
(182,700,l),
(167,627,l),
(76,627,l),
(46,477,l),
(137,477,l)
);
},
{
closed = 1;
nodes = (
(248,150,l),
(272,270,l),
(356,270,ls),
(380,270,o),
(395,262,o),
(405,251,c),
(413,239,o),
(414,225,o),
(411,210,cs),
(408,195,o),
(400,180,o),
(387,169,cs),
(373,157,o),
(356,150,o),
(335,150,cs)
);
}
);
width = 624;
}
);
rightKerningGroup = public.kern1.uni042C;
unicode = 1122;
},
{
glyphname = Ylongcyr;
layers = (
{
layerId = "33B6963F-6F20-48B1-9EF3-C92BB9E42515";
shapes = (
{
closed = 1;
nodes = (
(49,0,l),
(223,0,ls),
(351,0,o),
(473,86,o),
(500,222,cs),
(513,285,o),
(500,339,o),
(467,378,cs),
(434,417,o),
(382,440,o),
(311,440,cs),
(225,440,l),
(277,700,l),
(189,700,l)
);
},
{
closed = 1;
nodes = (
(153,82,l),
(208,358,l),
(283,358,ls),
(333,358,o),
(369,344,o),
(389,319,cs),
(409,293,o),
(416,260,o),
(408,221,cs),
(390,130,o),
(311,82,o),
(228,82,cs)
);
},
{
closed = 1;
nodes = (
(556,0,l),
(645,0,l),
(784,700,l),
(696,700,l)
);
}
);
width = 814;
},
{
layerId = "241EF7EF-D36E-442A-9877-44FE28558D1E";
shapes = (
{
closed = 1;
nodes = (
(80,0,l),
(227,0,ls),
(347,0,o),
(460,88,o),
(485,213,cs),
(496,266,o),
(486,318,o),
(457,357,cs),
(428,396,o),
(379,420,o),
(311,420,cs),
(208,420,l),
(264,700,l),
(220,700,l)
);
},
{
closed = 1;
nodes = (
(132,42,l),
(200,378,l),
(297,378,ls),
(352,378,o),
(393,359,o),
(417,328,cs),
(441,298,o),
(450,257,o),
(441,212,cs),
(420,107,o),
(327,42,o),
(229,42,cs)
);
},
{
closed = 1;
nodes = (
(571,0,l),
(615,0,l),
(755,700,l),
(711,700,l)
);
}
);
width = 814;
},
{
layerId = "BFB6D85B-0443-425C-887B-8FE5CF94470C";
shapes = (
{
closed = 1;
nodes = (
(-10,0,l),
(217,0,ls),
(364,0,o),
(498,81,o),
(530,241,cs),
(546,320,o),
(529,378,o),
(490,417,cs),
(451,456,o),
(387,475,o),
(312,475,cs),
(261,475,l),
(306,700,l),
(130,700,l)
);
},
{
closed = 1;
nodes = (
(197,150,l),
(231,325,l),
(257,325,ls),
(296,325,o),
(322,315,o),
(337,300,c),
(351,284,o),
(356,263,o),
(351,239,cs),
(338,175,o),
(281,150,o),
(225,150,cs)
);
},
{
closed = 1;
nodes = (
(527,0,l),
(704,0,l),
(843,700,l),
(667,700,l)
);
}
);
width = 814;
}
);
rightKerningGroup = public.kern1.uni0418;
unicode = 1067;
},
{
glyphname = Yucyr;
layers = (
{
layerId = "33B6963F-6F20-48B1-9EF3-C92BB9E42515";
shapes = (
{
closed = 1;
nodes = (
(156,334,l),
(377,334,l),
(393,416,l),
(173,416,l)
);
},
{
closed = 1;
nodes = (
(549,74,o),
(492,103,o),
(457,152,cs),
(422,200,o),
(407,269,o),
(423,351,cs),
(453,503,o),
(580,626,o),
(732,626,cs),
(806,626,o),
(863,597,o),
(898,549,cs),
(932,500,o),
(946,432,o),
(930,350,cs),
(900,199,o),
(776,74,o),
(622,74,cs)
);
},
{
closed = 1;
nodes = (
(810,-10,o),
(980,143,o),
(1021,349,cs),
(1042,453,o),
(1025,542,o),
(978,607,cs),
(931,672,o),
(853,710,o),
(749,710,cs),
(546,710,o),
(377,558,o),
(336,353,cs),
(315,249,o),
(332,158,o),
(379,94,cs),
(425,29,o),
(503,-10,o),
(605,-10,cs)
);
},
{
closed = 1;
nodes = (
(284,700,l),
(196,700,l),
(56,0,l),
(144,0,l)
);
}
);
width = 1081;
},
{
layerId = "241EF7EF-D36E-442A-9877-44FE28558D1E";
shapes = (
{
closed = 1;
nodes = (
(148,351,l),
(371,351,l),
(379,393,l),
(156,393,l)
);
},
{
closed = 1;
nodes = (
(529,33,o),
(462,67,o),
(422,125,c),
(380,181,o),
(365,260,o),
(383,350,cs),
(417,522,o),
(566,666,o),
(739,666,cs),
(820,666,o),
(887,632,o),
(929,575,cs),
(970,519,o),
(987,440,o),
(969,350,cs),
(935,180,o),
(784,33,o),
(612,33,cs)
);
},
{
closed = 1;
nodes = (
(800,-11,o),
(973,152,o),
(1012,348,cs),
(1033,451,o),
(1014,541,o),
(967,606,cs),
(920,671,o),
(844,710,o),
(748,710,cs),
(551,710,o),
(377,548,o),
(338,351,cs),
(317,248,o),
(335,158,o),
(383,93,cs),
(432,28,o),
(507,-11,o),
(603,-11,cs)
);
},
{
closed = 1;
nodes = (
(257,700,l),
(214,700,l),
(74,0,l),
(118,0,l)
);
}
);
width = 1081;
},
{
layerId = "BFB6D85B-0443-425C-887B-8FE5CF94470C";
shapes = (
{
closed = 1;
nodes = (
(170,300,l),
(376,300,l),
(406,450,l),
(200,450,l)
);
},
{
closed = 1;
nodes = (
(596,143,o),
(557,160,o),
(534,196,cs),
(510,232,o),
(500,286,o),
(515,359,cs),
(537,468,o),
(612,557,o),
(726,557,cs),
(774,557,o),
(812,539,o),
(834,504,cs),
(856,469,o),
(862,417,o),
(849,350,cs),
(827,242,o),
(762,143,o),
(643,143,cs)
);
},
{
closed = 1;
nodes = (
(821,-12,o),
(993,137,o),
(1035,349,cs),
(1057,457,o),
(1040,548,o),
(991,612,cs),
(941,676,o),
(862,712,o),
(757,712,cs),
(550,712,o),
(387,570,o),
(345,360,cs),
(323,248,o),
(337,155,o),
(384,91,cs),
(430,26,o),
(507,-12,o),
(612,-12,cs)
);
},
{
closed = 1;
nodes = (
(343,700,l),
(167,700,l),
(27,0,l),
(203,0,l)
);
}
);
width = 1081;
}
);
rightKerningGroup = public.kern1.uni041E;
unicode = 1070;
},
{
glyphname = Z;
layers = (
{
layerId = "33B6963F-6F20-48B1-9EF3-C92BB9E42515";
shapes = (
{
closed = 1;
nodes = (
(-5,0,l),
(457,0,l),
(473,82,l),
(91,82,l),
(100,58,l),
(590,639,l),
(602,700,l),
(151,700,l),
(135,618,l),
(518,618,l),
(501,653,l),
(8,67,l)
);
}
);
width = 582;
},
{
layerId = "241EF7EF-D36E-442A-9877-44FE28558D1E";
shapes = (
{
closed = 1;
nodes = (
(-3,0,l),
(453,0,l),
(461,42,l),
(47,42,l),
(42,13,l),
(598,678,l),
(603,700,l),
(152,700,l),
(144,658,l),
(557,658,l),
(563,693,l),
(2,23,l)
);
}
);
width = 582;
},
{
layerId = "BFB6D85B-0443-425C-887B-8FE5CF94470C";
shapes = (
{
closed = 1;
nodes = (
(-8,0,l),
(466,0,l),
(496,150,l),
(189,150,l),
(203,104,l),
(580,578,l),
(604,700,l),
(152,700,l),
(122,550,l),
(431,550,l),
(405,602,l),
(14,109,l)
);
}
);
width = 582;
}
);
leftKerningGroup = public.kern2.Z2;
rightKerningGroup = public.kern1.Z;
unicode = 90;
},
{
glyphname = Zecyr;
layers = (
{
layerId = "33B6963F-6F20-48B1-9EF3-C92BB9E42515";
shapes = (
{
closed = 1;
nodes = (
(335,-10,o),
(460,63,o),
(489,207,cs),
(501,267,o),
(487,311,o),
(459,341,cs),
(431,370,o),
(387,385,o),
(340,386,c),
(333,370,l),
(378,379,o),
(419,399,o),
(450,428,cs),
(480,455,o),
(501,494,o),
(510,537,cs),
(520,587,o),
(510,632,o),
(483,662,cs),
(455,692,o),
(407,710,o),
(340,710,cs),
(293,710,o),
(252,699,o),
(217,684,cs),
(181,668,o),
(152,647,o),
(130,629,c),
(169,567,l),
(195,587,o),
(216,601,o),
(242,611,cs),
(267,621,o),
(293,625,o),
(319,625,cs),
(359,625,o),
(389,617,o),
(405,600,c),
(421,582,o),
(426,558,o),
(419,524,cs),
(412,489,o),
(394,460,o),
(369,442,c),
(343,422,o),
(310,412,o),
(270,412,cs),
(225,412,l),
(210,336,l),
(262,336,ls),
(319,336,o),
(357,322,o),
(379,299,cs),
(400,277,o),
(407,244,o),
(399,206,cs),
(380,111,o),
(297,75,o),
(215,75,cs),
(174,75,o),
(141,86,o),
(118,101,cs),
(94,116,o),
(78,135,o),
(63,154,c),
(-4,90,l),
(36,26,o),
(104,-10,o),
(202,-10,cs)
);
}
);
width = 566;
},
{
layerId = "241EF7EF-D36E-442A-9877-44FE28558D1E";
shapes = (
{
closed = 1;
nodes = (
(337,-10,o),
(456,63,o),
(484,201,cs),
(496,263,o),
(480,310,o),
(446,341,c),
(413,373,o),
(362,388,o),
(308,388,c),
(305,372,l),
(372,381,o),
(421,406,o),
(458,438,cs),
(493,469,o),
(514,509,o),
(521,546,cs),
(530,591,o),
(521,632,o),
(495,662,cs),
(469,692,o),
(422,710,o),
(357,710,cs),
(314,710,o),
(274,702,o),
(240,690,c),
(206,677,o),
(177,660,o),
(155,641,c),
(173,610,l),
(200,633,o),
(230,646,o),
(259,655,cs),
(287,664,o),
(315,666,o),
(341,666,cs),
(391,666,o),
(430,655,o),
(453,635,cs),
(476,614,o),
(485,585,o),
(477,546,cs),
(468,501,o),
(440,465,o),
(403,439,cs),
(366,413,o),
(319,398,o),
(273,398,cs),
(223,398,l),
(215,357,l),
(278,357,ls),
(344,357,o),
(388,340,o),
(415,311,cs),
(441,282,o),
(448,241,o),
(439,197,cs),
(417,85,o),
(322,34,o),
(221,34,cs),
(172,34,o),
(136,45,o),
(110,61,c),
(83,76,o),
(65,100,o),
(51,123,c),
(12,90,l),
(53,26,o),
(118,-10,o),
(211,-10,cs)
);
}
);
width = 566;
},
{
layerId = "BFB6D85B-0443-425C-887B-8FE5CF94470C";
shapes = (
{
closed = 1;
nodes = (
(337,-7,o),
(487,54,o),
(518,210,cs),
(529,266,o),
(518,312,o),
(485,344,cs),
(452,376,o),
(397,393,o),
(320,393,c),
(311,349,l),
(350,349,o),
(401,361,o),
(446,389,cs),
(491,416,o),
(529,459,o),
(541,520,cs),
(554,583,o),
(535,630,o),
(498,662,cs),
(461,694,o),
(407,710,o),
(347,710,cs),
(301,710,o),
(256,701,o),
(217,685,cs),
(177,668,o),
(141,642,o),
(111,610,c),
(179,504,l),
(195,520,o),
(215,532,o),
(236,540,cs),
(257,548,o),
(281,553,o),
(301,553,cs),
(324,553,o),
(342,551,o),
(355,543,c),
(368,534,o),
(374,518,o),
(369,493,cs),
(365,473,o),
(355,457,o),
(341,446,cs),
(326,434,o),
(304,428,o),
(280,428,cs),
(242,428,l),
(217,304,l),
(249,304,ls),
(289,304,o),
(316,296,o),
(331,283,cs),
(346,270,o),
(350,250,o),
(345,225,cs),
(332,162,o),
(267,150,o),
(218,150,cs),
(191,150,o),
(167,157,o),
(147,169,c),
(126,180,o),
(109,196,o),
(96,213,c),
(-22,89,l),
(25,26,o),
(94,-7,o),
(203,-7,cs)
);
}
);
width = 566;
}
);
leftKerningGroup = public.kern2.uni0417_2;
rightKerningGroup = public.kern1.uni0417;
unicode = 1047;
},
{
glyphname = Zhecyr;
layers = (
{
layerId = "33B6963F-6F20-48B1-9EF3-C92BB9E42515";
shapes = (
{
closed = 1;
nodes = (
(-34,0,l),
(60,0,l),
(361,368,l),
(248,700,l),
(165,700,l),
(161,681,l),
(278,336,l),
(297,415,l),
(-30,19,l)
);
},
{
closed = 1;
nodes = (
(673,0,l),
(766,0,l),
(770,19,l),
(601,412,l),
(589,336,l),
(842,681,l),
(846,700,l),
(763,700,l),
(518,367,l)
);
},
{
closed = 1;
nodes = (
(306,331,l),
(560,331,l),
(575,407,l),
(321,407,l)
);
},
{
closed = 1;
nodes = (
(550,700,l),
(461,700,l),
(321,0,l),
(410,0,l)
);
}
);
width = 852;
},
{
layerId = "241EF7EF-D36E-442A-9877-44FE28558D1E";
shapes = (
{
closed = 1;
nodes = (
(3,0,l),
(42,0,l),
(372,367,l),
(234,700,l),
(200,700,l),
(195,679,l),
(334,349,l),
(350,399,l),
(7,21,l)
);
},
{
closed = 1;
nodes = (
(689,0,l),
(728,0,l),
(732,21,l),
(540,399,l),
(536,349,l),
(809,679,l),
(813,700,l),
(775,700,l),
(507,367,l)
);
},
{
closed = 1;
nodes = (
(328,348,l),
(533,348,l),
(541,390,l),
(337,390,l)
);
},
{
closed = 1;
nodes = (
(528,700,l),
(484,700,l),
(344,0,l),
(388,0,l)
);
}
);
width = 852;
},
{
layerId = "BFB6D85B-0443-425C-887B-8FE5CF94470C";
shapes = (
{
closed = 1;
nodes = (
(-68,0,l),
(131,0,l),
(378,369,l),
(314,700,l),
(135,700,l),
(133,690,l),
(206,344,l),
(230,440,l),
(-66,10,l)
);
},
{
closed = 1;
nodes = (
(608,0,l),
(798,0,l),
(800,10,l),
(679,419,l),
(658,343,l),
(870,690,l),
(872,700,l),
(695,700,l),
(496,364,l)
);
},
{
closed = 1;
nodes = (
(293,312,l),
(582,312,l),
(607,440,l),
(318,440,l)
);
},
{
closed = 1;
nodes = (
(593,700,l),
(416,700,l),
(276,0,l),
(453,0,l)
);
}
);
width = 852;
}
);
leftKerningGroup = public.kern2.uni0416_2;
rightKerningGroup = public.kern1.uni0416;
unicode = 1046;
},
{
glyphname = Zhetailcyr;
layers = (
{
layerId = "33B6963F-6F20-48B1-9EF3-C92BB9E42515";
shapes = (
{
closed = 1;
nodes = (
(742,-133,l),
(827,-133,l),
(870,82,l),
(722,82,l),
(705,0,l),
(769,0,l)
);
},
{
closed = 1;
nodes = (
(-37,0,l),
(58,0,l),
(358,368,l),
(245,700,l),
(162,700,l),
(158,681,l),
(275,336,l),
(294,415,l),
(-33,19,l)
);
},
{
closed = 1;
nodes = (
(670,0,l),
(763,0,l),
(767,19,l),
(599,412,l),
(586,336,l),
(839,681,l),
(843,700,l),
(760,700,l),
(515,367,l)
);
},
{
closed = 1;
nodes = (
(303,331,l),
(557,331,l),
(572,407,l),
(318,407,l)
);
},
{
closed = 1;
nodes = (
(546,700,l),
(458,700,l),
(318,0,l),
(406,0,l)
);
}
);
width = 888;
},
{
layerId = "241EF7EF-D36E-442A-9877-44FE28558D1E";
shapes = (
{
closed = 1;
nodes = (
(741,-124,l),
(783,-124,l),
(816,42,l),
(715,42,l),
(707,0,l),
(766,0,l)
);
},
{
closed = 1;
nodes = (
(9,0,l),
(48,0,l),
(379,367,l),
(240,700,l),
(205,700,l),
(201,679,l),
(341,349,l),
(357,399,l),
(13,21,l)
);
},
{
closed = 1;
nodes = (
(694,0,l),
(733,0,l),
(738,21,l),
(547,399,l),
(543,349,l),
(815,679,l),
(819,700,l),
(781,700,l),
(513,367,l)
);
},
{
closed = 1;
nodes = (
(334,348,l),
(539,348,l),
(548,390,l),
(342,390,l)
);
},
{
closed = 1;
nodes = (
(534,700,l),
(490,700,l),
(350,0,l),
(394,0,l)
);
}
);
width = 888;
},
{
layerId = "BFB6D85B-0443-425C-887B-8FE5CF94470C";
shapes = (
{
closed = 1;
nodes = (
(666,-150,l),
(823,-150,l),
(883,150,l),
(681,150,l),
(651,0,l),
(696,0,l)
);
},
{
closed = 1;
nodes = (
(-74,0,l),
(125,0,l),
(371,369,l),
(308,700,l),
(129,700,l),
(127,690,l),
(200,344,l),
(224,440,l),
(-72,10,l)
);
},
{
closed = 1;
nodes = (
(601,0,l),
(791,0,l),
(793,10,l),
(672,419,l),
(651,343,l),
(864,690,l),
(866,700,l),
(688,700,l),
(490,364,l)
);
},
{
closed = 1;
nodes = (
(286,312,l),
(575,312,l),
(601,440,l),
(312,440,l)
);
},
{
closed = 1;
nodes = (
(586,700,l),
(410,700,l),
(270,0,l),
(446,0,l)
);
}
);
width = 888;
}
);
leftKerningGroup = public.kern2.uni0416_2;
rightKerningGroup = public.kern1.uni0416;
unicode = 1174;
},
{
glyphname = a;
layers = (
{
layerId = "33B6963F-6F20-48B1-9EF3-C92BB9E42515";
shapes = (
{
closed = 1;
nodes = (
(239,-9,o),
(348,36,o),
(365,132,c),
(359,147,l),
(349,97,o),
(342,49,o),
(346,0,c),
(426,0,l),
(420,43,o),
(428,85,o),
(437,129,cs),
(464,266,ls),
(491,400,o),
(439,476,o),
(311,476,cs),
(217,476,o),
(115,427,o),
(74,322,c),
(147,299,l),
(168,359,o),
(220,395,o),
(291,395,cs),
(344,395,o),
(402,373,o),
(388,305,cs),
(381,270,o),
(360,262,o),
(329,262,cs),
(191,262,ls),
(107,262,o),
(40,218,o),
(22,130,cs),
(2,32,o),
(75,-9,o),
(161,-9,cs)
);
},
{
closed = 1;
nodes = (
(127,74,o),
(101,96,o),
(109,138,cs),
(117,176,o),
(145,196,o),
(190,196,cs),
(304,196,ls),
(336,196,o),
(368,209,o),
(397,253,c),
(381,270,l),
(366,197,ls),
(349,114,o),
(268,74,o),
(198,74,cs)
);
}
);
width = 543;
},
{
layerId = "241EF7EF-D36E-442A-9877-44FE28558D1E";
shapes = (
{
closed = 1;
nodes = (
(262,-8,o),
(370,48,o),
(402,148,c),
(390,157,l),
(380,105,o),
(370,52,o),
(377,0,c),
(416,0,l),
(408,42,o),
(415,84,o),
(423,126,cs),
(450,261,ls),
(477,396,o),
(431,477,o),
(301,477,cs),
(206,477,o),
(116,419,o),
(76,319,c),
(111,308,l),
(145,383,o),
(204,434,o),
(290,434,cs),
(367,434,o),
(432,392,o),
(414,304,cs),
(406,263,o),
(380,250,o),
(354,250,cs),
(198,250,ls),
(116,250,o),
(47,209,o),
(30,122,cs),
(10,20,o),
(85,-8,o),
(174,-8,cs)
);
},
{
closed = 1;
nodes = (
(104,35,o),
(61,57,o),
(74,123,cs),
(86,182,o),
(126,210,o),
(185,210,cs),
(343,210,ls),
(371,210,o),
(398,217,o),
(432,260,c),
(407,271,l),
(391,191,ls),
(371,92,o),
(272,35,o),
(186,35,cs)
);
}
);
width = 543;
},
{
layerId = "BFB6D85B-0443-425C-887B-8FE5CF94470C";
shapes = (
{
closed = 1;
nodes = (
(230,-11,o),
(302,56,o),
(323,160,c),
(300,127,l),
(292,85,o),
(287,42,o),
(293,0,c),
(442,0,l),
(438,44,o),
(445,88,o),
(454,132,cs),
(482,274,ls),
(510,414,o),
(433,477,o),
(308,477,cs),
(208,477,o),
(116,436,o),
(60,333,c),
(185,300,l),
(204,333,o),
(231,351,o),
(276,351,cs),
(303,351,o),
(343,343,o),
(336,307,cs),
(332,288,o),
(315,270,o),
(276,270,cs),
(173,270,ls),
(93,270,o),
(19,224,o),
(2,137,cs),
(-17,41,o),
(43,-11,o),
(130,-11,cs)
);
},
{
closed = 1;
nodes = (
(170,119,o),
(159,136,o),
(163,155,cs),
(166,172,o),
(182,188,o),
(212,188,cs),
(254,188,ls),
(288,188,o),
(314,208,o),
(331,243,c),
(328,267,l),
(316,208,ls),
(305,153,o),
(263,119,o),
(212,119,cs)
);
}
);
width = 543;
}
);
leftKerningGroup = public.kern2.a2;
rightKerningGroup = public.kern1.a;
unicode = 97;
},
{
glyphname = acutecomb;
layers = (
{
layerId = "33B6963F-6F20-48B1-9EF3-C92BB9E42515";
shapes = (
{
closed = 1;
nodes = (
(-177,715,l),
(-313,566,l),
(-282,533,l),
(-126,663,l)
);
}
);
width = 24;
},
{
layerId = "241EF7EF-D36E-442A-9877-44FE28558D1E";
shapes = (
{
closed = 1;
nodes = (
(-140,704,l),
(-260,568,l),
(-241,550,l),
(-103,671,l)
);
}
);
width = 24;
},
{
layerId = "BFB6D85B-0443-425C-887B-8FE5CF94470C";
shapes = (
{
closed = 1;
nodes = (
(-191,732,l),
(-347,570,l),
(-305,517,l),
(-125,648,l)
);
}
);
width = 24;
}
);
unicode = 769;
},
{
glyphname = acutecomb.case;
layers = (
{
layerId = "33B6963F-6F20-48B1-9EF3-C92BB9E42515";
shapes = (
{
closed = 1;
nodes = (
(-265,896,l),
(-407,774,l),
(-375,736,l),
(-212,826,l)
);
}
);
width = 24;
},
{
layerId = "241EF7EF-D36E-442A-9877-44FE28558D1E";
shapes = (
{
closed = 1;
nodes = (
(-255,880,l),
(-378,776,l),
(-362,751,l),
(-225,837,l)
);
}
);
width = 24;
},
{
layerId = "BFB6D85B-0443-425C-887B-8FE5CF94470C";
shapes = (
{
closed = 1;
nodes = (
(-257,924,l),
(-435,770,l),
(-398,727,l),
(-185,829,l)
);
}
);
width = 24;
}
);
},
{
glyphname = ae;
layers = (
{
layerId = "33B6963F-6F20-48B1-9EF3-C92BB9E42515";
shapes = (
{
closed = 1;
nodes = (
(202,-9,o),
(256,11,o),
(300,51,cs),
(343,92,o),
(377,156,o),
(395,244,c),
(402,281,l),
(417,356,o),
(404,404,o),
(377,435,cs),
(350,465,o),
(308,476,o),
(264,476,cs),
(232,476,o),
(199,470,o),
(168,456,c),
(137,441,o),
(108,421,o),
(82,394,c),
(106,325,l),
(144,369,o),
(185,395,o),
(237,395,cs),
(272,395,o),
(301,384,o),
(318,363,cs),
(335,342,o),
(341,311,o),
(333,271,cs),
(324,223,ls),
(315,177,o),
(294,139,o),
(270,112,c),
(244,84,o),
(210,70,o),
(172,70,cs),
(145,70,o),
(125,76,o),
(112,89,c),
(98,102,o),
(91,121,o),
(96,145,cs),
(100,164,o),
(110,182,o),
(127,196,c),
(144,208,o),
(168,216,o),
(200,216,cs),
(724,216,l),
(733,258,ls),
(744,313,o),
(738,370,o),
(714,410,cs),
(689,452,o),
(648,479,o),
(586,479,cs),
(531,479,o),
(475,456,o),
(430,414,cs),
(385,373,o),
(348,311,o),
(333,234,cs),
(318,159,o),
(327,100,o),
(355,58,cs),
(383,16,o),
(428,-9,o),
(486,-9,cs),
(522,-9,o),
(558,-1,o),
(591,15,cs),
(623,30,o),
(653,52,o),
(677,82,c),
(635,133,l),
(618,113,o),
(597,98,o),
(575,86,c),
(551,75,o),
(526,69,o),
(501,69,cs),
(462,69,o),
(434,85,o),
(418,115,c),
(402,143,o),
(397,185,o),
(407,237,cs),
(417,287,o),
(440,328,o),
(469,356,c),
(498,385,o),
(533,401,o),
(568,401,cs),
(603,401,o),
(628,386,o),
(642,362,cs),
(656,339,o),
(661,307,o),
(654,271,cs),
(646,230,l),
(704,284,l),
(204,284,ls),
(147,284,o),
(101,267,o),
(70,241,cs),
(39,215,o),
(20,178,o),
(12,139,cs),
(3,93,o),
(13,56,o),
(37,31,cs),
(61,5,o),
(100,-9,o),
(148,-9,cs)
);
}
);
width = 784;
},
{
layerId = "241EF7EF-D36E-442A-9877-44FE28558D1E";
shapes = (
{
closed = 1;
nodes = (
(188,-9,o),
(237,7,o),
(280,44,cs),
(321,80,o),
(356,143,o),
(374,234,c),
(384,276,l),
(401,359,o),
(388,412,o),
(362,440,c),
(336,470,o),
(297,478,o),
(263,478,cs),
(234,478,o),
(203,471,o),
(176,458,c),
(149,444,o),
(125,428,o),
(104,408,c),
(123,373,l),
(159,411,o),
(206,436,o),
(252,436,cs),
(288,436,o),
(317,421,o),
(335,394,c),
(355,367,o),
(361,327,o),
(351,279,cs),
(341,232,ls),
(330,176,o),
(308,127,o),
(276,91,cs),
(244,55,o),
(202,34,o),
(152,34,cs),
(124,34,o),
(102,44,o),
(87,61,c),
(72,77,o),
(66,102,o),
(72,133,cs),
(76,154,o),
(85,178,o),
(109,198,cs),
(132,217,o),
(169,229,o),
(221,229,cs),
(703,229,l),
(712,279,ls),
(721,323,o),
(719,372,o),
(699,412,cs),
(679,451,o),
(643,479,o),
(581,479,cs),
(531,479,o),
(482,458,o),
(440,417,cs),
(399,378,o),
(366,317,o),
(350,237,cs),
(334,159,o),
(343,98,o),
(367,56,cs),
(391,13,o),
(432,-9,o),
(484,-9,cs),
(512,-9,o),
(545,-2,o),
(577,12,c),
(610,25,o),
(644,48,o),
(671,79,c),
(646,108,l),
(628,86,o),
(602,67,o),
(576,55,c),
(549,41,o),
(520,34,o),
(494,34,cs),
(450,34,o),
(417,54,o),
(398,90,c),
(378,125,o),
(373,177,o),
(385,236,cs),
(397,294,o),
(423,345,o),
(456,380,cs),
(490,416,o),
(532,436,o),
(573,436,cs),
(617,436,o),
(645,416,o),
(660,386,cs),
(675,356,o),
(677,314,o),
(668,269,cs),
(660,231,l),
(685,271,l),
(217,271,ls),
(163,271,o),
(119,255,o),
(87,229,c),
(53,203,o),
(32,167,o),
(24,128,cs),
(16,88,o),
(24,54,o),
(46,30,c),
(66,6,o),
(100,-9,o),
(140,-9,cs)
);
}
);
width = 784;
},
{
layerId = "BFB6D85B-0443-425C-887B-8FE5CF94470C";
shapes = (
{
closed = 1;
nodes = (
(192,-11,o),
(253,15,o),
(302,63,cs),
(349,110,o),
(384,177,o),
(401,261,c),
(415,289,l),
(427,348,o),
(417,395,o),
(389,427,cs),
(360,459,o),
(313,477,o),
(253,477,cs),
(218,477,o),
(182,471,o),
(148,460,cs),
(114,449,o),
(86,435,o),
(63,416,c),
(75,304,l),
(122,333,o),
(163,350,o),
(212,350,cs),
(250,350,o),
(273,340,o),
(285,324,c),
(297,307,o),
(296,284,o),
(291,257,cs),
(281,208,ls),
(275,180,o),
(260,159,o),
(241,144,cs),
(222,129,o),
(198,122,o),
(174,122,cs),
(158,122,o),
(144,126,o),
(138,133,c),
(131,140,o),
(128,149,o),
(130,161,cs),
(133,176,o),
(142,184,o),
(153,189,c),
(164,193,o),
(181,195,o),
(197,195,cs),
(751,195,l),
(756,221,ls),
(771,297,o),
(762,362,o),
(733,407,cs),
(703,451,o),
(651,477,o),
(582,477,cs),
(513,477,o),
(448,452,o),
(397,408,cs),
(345,364,o),
(309,302,o),
(294,229,cs),
(280,161,o),
(293,103,o),
(327,61,cs),
(360,19,o),
(416,-7,o),
(489,-7,cs),
(537,-7,o),
(581,2,o),
(621,19,cs),
(661,35,o),
(697,59,o),
(727,88,c),
(660,168,l),
(642,152,o),
(620,139,o),
(598,131,c),
(575,122,o),
(552,117,o),
(528,117,cs),
(491,117,o),
(464,128,o),
(449,149,cs),
(433,170,o),
(428,200,o),
(436,240,cs),
(443,276,o),
(457,303,o),
(477,322,c),
(496,341,o),
(521,350,o),
(550,350,cs),
(579,350,o),
(599,341,o),
(610,327,cs),
(621,313,o),
(624,294,o),
(620,274,cs),
(611,227,l),
(719,281,l),
(183,281,ls),
(122,281,o),
(75,269,o),
(41,246,cs),
(6,222,o),
(-16,187,o),
(-25,142,cs),
(-35,93,o),
(-23,53,o),
(3,28,cs),
(29,3,o),
(72,-11,o),
(121,-11,cs)
);
}
);
width = 784;
}
);
leftKerningGroup = public.kern2.a2;
rightKerningGroup = public.kern1.b;
unicode = 230;
},
{
glyphname = alpha;
layers = (
{
layerId = "33B6963F-6F20-48B1-9EF3-C92BB9E42515";
shapes = (
{
closed = 1;
nodes = (
(358,0,l),
(443,0,l),
(509,331,l),
(511,339,l),
(537,470,l),
(456,470,l),
(430,339,l),
(425,331,l),
(385,131,l),
(382,118,l)
);
},
{
closed = 1;
nodes = (
(277,-9,o),
(365,37,o),
(398,120,c),
(420,232,l),
(405,232,l),
(388,146,o),
(317,73,o),
(231,73,cs),
(190,73,o),
(159,89,o),
(141,118,cs),
(123,146,o),
(115,187,o),
(125,236,cs),
(143,327,o),
(208,397,o),
(298,397,cs),
(343,397,o),
(374,379,o),
(392,351,cs),
(409,323,o),
(415,283,o),
(407,242,c),
(417,242,l),
(442,364,l),
(443,391,o),
(430,420,o),
(407,442,cs),
(383,464,o),
(346,479,o),
(297,479,cs),
(164,479,o),
(64,369,o),
(37,235,cs),
(22,160,o),
(34,99,o),
(64,58,cs),
(94,15,o),
(144,-9,o),
(200,-9,cs)
);
}
);
width = 582;
},
{
layerId = "241EF7EF-D36E-442A-9877-44FE28558D1E";
shapes = (
{
closed = 1;
nodes = (
(396,0,l),
(440,0,l),
(506,327,l),
(507,335,l),
(534,470,l),
(492,470,l),
(465,335,l),
(461,327,l),
(423,138,l),
(420,121,l)
);
},
{
closed = 1;
nodes = (
(319,-9,o),
(401,59,o),
(442,162,c),
(450,231,l),
(442,231,l),
(421,125,o),
(332,34,o),
(228,34,cs),
(177,34,o),
(139,54,o),
(117,91,cs),
(96,127,o),
(88,176,o),
(100,237,cs),
(122,349,o),
(199,436,o),
(310,436,cs),
(368,436,o),
(408,412,o),
(428,376,cs),
(449,338,o),
(454,291,o),
(444,243,c),
(447,243,l),
(472,317,l),
(473,359,o),
(461,398,o),
(435,429,cs),
(411,459,o),
(373,479,o),
(319,479,cs),
(185,479,o),
(82,372,o),
(54,234,cs),
(38,156,o),
(53,97,o),
(85,55,cs),
(117,13,o),
(164,-9,o),
(218,-9,cs)
);
}
);
width = 582;
},
{
layerId = "BFB6D85B-0443-425C-887B-8FE5CF94470C";
shapes = (
{
closed = 1;
nodes = (
(310,0,l),
(467,0,l),
(535,339,l),
(536,346,l),
(561,470,l),
(413,470,l),
(388,346,l),
(378,339,l),
(336,126,l),
(333,111,l)
);
},
{
closed = 1;
nodes = (
(251,-7,o),
(324,43,o),
(356,129,c),
(377,234,l),
(357,234,l),
(346,181,o),
(312,131,o),
(256,131,cs),
(233,131,o),
(213,141,o),
(201,158,c),
(188,175,o),
(183,202,o),
(190,235,cs),
(201,289,o),
(241,336,o),
(296,336,cs),
(318,336,o),
(336,328,o),
(348,312,cs),
(360,296,o),
(364,272,o),
(358,240,c),
(374,240,l),
(393,339,l),
(399,376,o),
(390,411,o),
(368,436,cs),
(346,461,o),
(311,477,o),
(265,477,cs),
(136,477,o),
(48,360,o),
(23,236,cs),
(9,167,o),
(16,105,o),
(42,62,cs),
(68,19,o),
(110,-7,o),
(168,-7,cs)
);
}
);
width = 582;
}
);
unicode = 945;
},
{
glyphname = ampersand;
layers = (
{
layerId = "33B6963F-6F20-48B1-9EF3-C92BB9E42515";
shapes = (
{
closed = 1;
nodes = (
(361,-10,o),
(478,56,o),
(515,183,c),
(519,203,l),
(445,203,l),
(424,110,o),
(342,64,o),
(258,64,cs),
(212,64,o),
(177,78,o),
(157,103,cs),
(136,128,o),
(129,164,o),
(138,207,cs),
(147,250,o),
(167,286,o),
(198,310,cs),
(229,334,o),
(271,347,o),
(316,347,cs),
(341,347,l),
(354,414,l),
(332,414,ls),
(298,414,o),
(271,425,o),
(255,444,c),
(238,463,o),
(233,492,o),
(240,526,cs),
(254,595,o),
(301,636,o),
(370,636,c),
(408,637,o),
(437,624,o),
(455,601,cs),
(473,577,o),
(476,544,o),
(469,502,c),
(544,502,l),
(548,525,l),
(556,583,o),
(545,629,o),
(517,661,cs),
(488,693,o),
(444,710,o),
(385,710,cs),
(282,710,o),
(180,642,o),
(158,532,cs),
(150,492,o),
(157,457,o),
(174,431,c),
(190,403,o),
(218,387,o),
(256,382,c),
(268,395,l),
(212,389,o),
(163,366,o),
(125,334,c),
(88,301,o),
(61,256,o),
(50,202,cs),
(37,139,o),
(51,86,o),
(86,49,c),
(119,12,o),
(172,-10,o),
(242,-10,cs)
);
},
{
closed = 1;
nodes = (
(623,270,l),
(334,270,l),
(320,197,l),
(608,197,l)
);
}
);
width = 666;
},
{
layerId = "241EF7EF-D36E-442A-9877-44FE28558D1E";
shapes = (
{
closed = 1;
nodes = (
(369,-9,o),
(461,74,o),
(499,205,c),
(504,229,l),
(464,229,l),
(441,115,o),
(362,34,o),
(247,34,cs),
(199,34,o),
(159,50,o),
(134,78,cs),
(108,106,o),
(97,147,o),
(107,198,cs),
(117,248,o),
(144,289,o),
(182,316,cs),
(220,343,o),
(266,356,o),
(312,356,cs),
(320,356,l),
(329,401,l),
(316,401,ls),
(277,401,o),
(248,416,o),
(232,439,cs),
(215,463,o),
(210,497,o),
(218,537,cs),
(234,619,o),
(297,667,o),
(376,667,cs),
(418,667,o),
(450,654,o),
(470,629,cs),
(490,603,o),
(494,562,o),
(482,508,c),
(523,508,l),
(528,532,l),
(539,593,o),
(527,637,o),
(501,667,c),
(474,696,o),
(433,710,o),
(385,710,cs),
(285,710,o),
(193,645,o),
(172,539,cs),
(162,491,o),
(173,450,o),
(191,422,cs),
(209,393,o),
(239,376,o),
(269,370,c),
(279,386,l),
(218,381,o),
(168,358,o),
(131,324,cs),
(95,291,o),
(69,244,o),
(59,196,cs),
(48,139,o),
(59,89,o),
(90,52,cs),
(122,15,o),
(171,-9,o),
(238,-9,cs)
);
},
{
closed = 1;
nodes = (
(621,254,l),
(330,254,l),
(321,210,l),
(612,210,l)
);
}
);
width = 666;
},
{
layerId = "BFB6D85B-0443-425C-887B-8FE5CF94470C";
shapes = (
{
closed = 1;
nodes = (
(375,-12,o),
(504,42,o),
(551,173,c),
(554,190,l),
(407,190,l),
(385,136,o),
(340,118,o),
(290,118,cs),
(255,118,o),
(229,129,o),
(214,147,c),
(198,165,o),
(192,191,o),
(199,224,cs),
(205,256,o),
(221,283,o),
(244,301,cs),
(266,319,o),
(296,328,o),
(328,328,cs),
(387,328,l),
(409,439,l),
(368,439,ls),
(340,439,o),
(317,446,o),
(304,459,c),
(291,471,o),
(287,490,o),
(292,514,cs),
(300,555,o),
(329,580,o),
(369,580,cs),
(392,580,o),
(409,573,o),
(419,559,c),
(429,544,o),
(432,522,o),
(430,493,c),
(575,493,l),
(579,513,l),
(584,574,o),
(570,624,o),
(538,658,cs),
(506,692,o),
(454,710,o),
(390,710,cs),
(282,710,o),
(161,649,o),
(137,527,cs),
(130,494,o),
(134,465,o),
(148,441,cs),
(162,417,o),
(183,398,o),
(216,385,c),
(222,414,l),
(167,398,o),
(121,373,o),
(87,340,cs),
(53,307,o),
(31,265,o),
(21,217,cs),
(7,149,o),
(25,92,o),
(67,52,cs),
(109,12,o),
(174,-12,o),
(256,-12,cs)
);
},
{
closed = 1;
nodes = (
(635,292,l),
(348,292,l),
(324,172,l),
(611,172,l)
);
}
);
width = 666;
}
);
unicode = 38;
},
{
glyphname = apostrophemod;
layers = (
{
layerId = "33B6963F-6F20-48B1-9EF3-C92BB9E42515";
shapes = (
{
closed = 1;
nodes = (
(59,447,l),
(120,447,l),
(164,513,ls),
(203,570,o),
(231,604,o),
(237,635,cs),
(240,652,o),
(237,667,o),
(229,678,cs),
(221,689,o),
(207,694,o),
(190,694,cs),
(162,694,o),
(133,672,o),
(126,639,cs),
(123,623,o),
(126,607,o),
(139,599,c),
(152,590,o),
(173,585,o),
(202,592,c),
(188,624,l)
);
}
);
width = 202;
},
{
layerId = "241EF7EF-D36E-442A-9877-44FE28558D1E";
shapes = (
{
closed = 1;
nodes = (
(93,493,l),
(124,493,l),
(156,537,l),
(182,569,o),
(198,590,o),
(202,609,cs),
(204,618,o),
(202,627,o),
(199,632,c),
(196,636,o),
(188,641,o),
(180,641,cs),
(164,641,o),
(148,630,o),
(145,613,c),
(143,604,o),
(147,596,o),
(154,592,c),
(161,587,o),
(173,587,o),
(190,592,c),
(183,612,l)
);
}
);
width = 202;
},
{
layerId = "BFB6D85B-0443-425C-887B-8FE5CF94470C";
shapes = (
{
closed = 1;
nodes = (
(43,447,l),
(126,447,l),
(176,513,ls),
(228,580,o),
(249,617,o),
(256,650,cs),
(262,679,o),
(257,700,o),
(245,715,c),
(232,730,o),
(212,737,o),
(191,737,cs),
(147,737,o),
(108,707,o),
(98,659,cs),
(93,635,o),
(99,615,o),
(115,601,cs),
(131,587,o),
(156,579,o),
(192,583,c),
(172,618,l)
);
}
);
width = 202;
}
);
unicode = 700;
},
{
glyphname = approxequal;
layers = (
{
layerId = "33B6963F-6F20-48B1-9EF3-C92BB9E42515";
shapes = (
{
closed = 1;
nodes = (
(197,385,l),
(207,422,o),
(227,445,o),
(261,445,cs),
(285,445,o),
(307,430,o),
(332,415,c),
(356,399,o),
(386,385,o),
(425,385,cs),
(493,385,o),
(548,430,o),
(565,515,c),
(507,515,l),
(494,472,o),
(473,454,o),
(437,454,cs),
(405,454,o),
(383,469,o),
(360,485,c),
(337,500,o),
(311,515,o),
(272,515,cs),
(241,515,o),
(212,505,o),
(188,484,cs),
(164,463,o),
(148,429,o),
(139,385,c)
);
},
{
closed = 1;
nodes = (
(157,185,l),
(167,222,o),
(187,245,o),
(221,245,cs),
(245,245,o),
(267,230,o),
(292,215,c),
(316,199,o),
(347,185,o),
(386,185,cs),
(454,185,o),
(508,230,o),
(525,315,c),
(467,315,l),
(454,272,o),
(433,254,o),
(397,254,cs),
(365,254,o),
(343,269,o),
(320,285,c),
(297,300,o),
(271,315,o),
(232,315,cs),
(201,315,o),
(173,305,o),
(149,284,cs),
(125,263,o),
(108,229,o),
(99,185,c)
);
}
);
width = 644;
},
{
layerId = "241EF7EF-D36E-442A-9877-44FE28558D1E";
shapes = (
{
closed = 1;
nodes = (
(191,398,l),
(202,446,o),
(226,470,o),
(260,470,cs),
(286,470,o),
(307,453,o),
(332,435,cs),
(356,417,o),
(385,398,o),
(425,398,cs),
(492,398,o),
(540,443,o),
(555,516,c),
(519,516,l),
(505,461,o),
(477,437,o),
(434,437,cs),
(399,437,o),
(374,455,o),
(350,473,cs),
(326,491,o),
(303,508,o),
(267,508,cs),
(243,508,o),
(218,501,o),
(198,483,cs),
(178,465,o),
(163,437,o),
(155,398,c)
);
},
{
closed = 1;
nodes = (
(151,198,l),
(162,246,o),
(186,270,o),
(220,270,cs),
(246,270,o),
(267,253,o),
(292,235,cs),
(316,217,o),
(345,198,o),
(385,198,cs),
(452,198,o),
(500,243,o),
(515,316,c),
(479,316,l),
(465,261,o),
(437,237,o),
(394,237,cs),
(359,237,o),
(334,255,o),
(310,273,cs),
(286,291,o),
(263,308,o),
(227,308,cs),
(203,308,o),
(178,301,o),
(158,283,cs),
(138,265,o),
(123,237,o),
(115,198,c)
);
}
);
width = 644;
},
{
layerId = "BFB6D85B-0443-425C-887B-8FE5CF94470C";
shapes = (
{
closed = 1;
nodes = (
(200,370,l),
(211,402,o),
(230,421,o),
(260,421,cs),
(284,421,o),
(309,408,o),
(335,396,c),
(361,383,o),
(389,370,o),
(424,370,cs),
(499,370,o),
(560,418,o),
(581,525,c),
(502,525,l),
(489,493,o),
(471,474,o),
(444,474,cs),
(418,474,o),
(396,487,o),
(371,500,c),
(345,512,o),
(316,525,o),
(277,525,cs),
(234,525,o),
(200,513,o),
(175,487,cs),
(149,461,o),
(132,422,o),
(122,370,c)
);
},
{
closed = 1;
nodes = (
(160,170,l),
(171,202,o),
(190,221,o),
(220,221,cs),
(244,221,o),
(269,208,o),
(295,196,c),
(321,183,o),
(350,170,o),
(385,170,cs),
(460,170,o),
(520,218,o),
(541,325,c),
(463,325,l),
(450,293,o),
(431,274,o),
(404,274,cs),
(378,274,o),
(356,287,o),
(331,300,c),
(305,312,o),
(276,325,o),
(237,325,cs),
(194,325,o),
(160,313,o),
(135,287,cs),
(109,261,o),
(92,222,o),
(82,170,c)
);
}
);
width = 644;
}
);
leftKerningGroup = public.kern2.plus2;
rightKerningGroup = public.kern1.plus;
unicode = 8776;
},
{
glyphname = asciicircum;
layers = (
{
layerId = "33B6963F-6F20-48B1-9EF3-C92BB9E42515";
shapes = (
{
closed = 1;
nodes = (
(420,701,l),
(385,701,l),
(104,351,l),
(184,351,l),
(412,635,l),
(367,635,l),
(480,351,l),
(561,351,l)
);
}
);
width = 644;
},
{
layerId = "241EF7EF-D36E-442A-9877-44FE28558D1E";
shapes = (
{
closed = 1;
nodes = (
(420,700,l),
(384,700,l),
(108,357,l),
(151,357,l),
(416,687,l),
(383,687,l),
(516,357,l),
(559,357,l)
);
}
);
width = 644;
},
{
layerId = "BFB6D85B-0443-425C-887B-8FE5CF94470C";
shapes = (
{
closed = 1;
nodes = (
(421,710,l),
(386,710,l),
(87,351,l),
(209,351,l),
(400,584,l),
(357,584,l),
(454,351,l),
(577,351,l)
);
}
);
width = 644;
}
);
leftKerningGroup = public.kern2.asterisk;
rightKerningGroup = public.kern1.degree;
unicode = 94;
},
{
glyphname = asciitilde;
layers = (
{
layerId = "33B6963F-6F20-48B1-9EF3-C92BB9E42515";
shapes = (
{
closed = 1;
nodes = (
(171,256,l),
(181,293,o),
(201,316,o),
(235,316,cs),
(259,316,o),
(281,302,o),
(306,287,c),
(330,271,o),
(361,256,o),
(400,256,cs),
(468,256,o),
(522,301,o),
(539,386,c),
(482,386,l),
(469,343,o),
(448,326,o),
(412,326,cs),
(380,326,o),
(357,340,o),
(334,356,cs),
(311,372,o),
(285,386,o),
(246,386,cs),
(215,386,o),
(187,376,o),
(163,355,cs),
(139,334,o),
(123,301,o),
(114,256,c)
);
}
);
width = 644;
},
{
layerId = "241EF7EF-D36E-442A-9877-44FE28558D1E";
shapes = (
{
closed = 1;
nodes = (
(163,259,l),
(174,307,o),
(198,330,o),
(232,330,cs),
(258,330,o),
(279,314,o),
(304,296,cs),
(328,278,o),
(357,259,o),
(397,259,cs),
(464,259,o),
(512,302,o),
(527,377,c),
(492,377,l),
(478,322,o),
(449,297,o),
(406,297,cs),
(371,297,o),
(346,316,o),
(322,334,cs),
(298,352,o),
(275,369,o),
(239,369,cs),
(215,369,o),
(190,362,o),
(170,344,cs),
(150,326,o),
(135,298,o),
(127,259,c)
);
}
);
width = 644;
},
{
layerId = "BFB6D85B-0443-425C-887B-8FE5CF94470C";
shapes = (
{
closed = 1;
nodes = (
(176,250,l),
(187,282,o),
(206,301,o),
(236,301,cs),
(260,301,o),
(285,288,o),
(311,276,c),
(337,263,o),
(366,250,o),
(401,250,cs),
(476,250,o),
(536,298,o),
(557,405,c),
(479,405,l),
(466,373,o),
(447,354,o),
(420,354,cs),
(394,354,o),
(372,367,o),
(347,380,c),
(321,392,o),
(292,405,o),
(253,405,cs),
(210,405,o),
(176,393,o),
(151,367,cs),
(125,341,o),
(108,302,o),
(98,250,c)
);
}
);
width = 644;
}
);
leftKerningGroup = public.kern2.plus2;
rightKerningGroup = public.kern1.plus;
unicode = 126;
},
{
glyphname = asterisk;
layers = (
{
layerId = "33B6963F-6F20-48B1-9EF3-C92BB9E42515";
shapes = (
{
closed = 1;
nodes = (
(375,700,l),
(291,700,l),
(270,548,l),
(141,604,l),
(98,523,l),
(236,484,l),
(116,364,l),
(174,314,l),
(282,445,l),
(338,313,l),
(417,363,l),
(343,484,l),
(497,524,l),
(488,604,l),
(335,548,l)
);
}
);
width = 506;
},
{
layerId = "241EF7EF-D36E-442A-9877-44FE28558D1E";
shapes = (
{
closed = 1;
nodes = (
(355,701,l),
(309,701,l),
(284,552,l),
(155,604,l),
(131,557,l),
(264,515,l),
(150,395,l),
(183,368,l),
(291,492,l),
(350,365,l),
(394,393,l),
(326,515,l),
(476,557,l),
(471,604,l),
(322,552,l)
);
}
);
width = 506;
},
{
layerId = "BFB6D85B-0443-425C-887B-8FE5CF94470C";
shapes = (
{
closed = 1;
nodes = (
(403,700,l),
(261,700,l),
(248,562,l),
(142,616,l),
(71,478,l),
(185,453,l),
(78,354,l),
(177,269,l),
(270,393,l),
(314,270,l),
(447,355,l),
(379,453,l),
(504,479,l),
(488,617,l),
(361,563,l)
);
}
);
width = 506;
}
);
leftKerningGroup = public.kern2.asterisk;
rightKerningGroup = public.kern1.degree;
unicode = 42;
},
{
glyphname = at;
layers = (
{
layerId = "33B6963F-6F20-48B1-9EF3-C92BB9E42515";
shapes = (
{
closed = 1;
nodes = (
(385,-80,l),
(285,-80,o),
(208,-46,o),
(163,13,cs),
(116,72,o),
(102,158,o),
(123,262,cs),
(165,471,o),
(316,600,o),
(521,600,cs),
(618,600,o),
(696,575,o),
(744,524,cs),
(792,472,o),
(810,396,o),
(790,294,cs),
(779,240,o),
(744,127,o),
(670,127,cs),
(653,127,o),
(639,134,o),
(630,147,c),
(620,159,o),
(616,179,o),
(621,205,c),
(552,176,l),
(544,137,o),
(555,109,o),
(576,92,c),
(595,75,o),
(624,67,o),
(653,67,cs),
(772,67,o),
(837,193,o),
(857,294,cs),
(879,405,o),
(857,497,o),
(800,562,cs),
(744,626,o),
(652,663,o),
(533,663,cs),
(295,663,o),
(105,505,o),
(56,262,cs),
(32,143,o),
(51,42,o),
(105,-30,cs),
(159,-101,o),
(250,-143,o),
(372,-143,c)
);
},
{
closed = 1;
nodes = (
(434,65,o),
(469,78,o),
(498,99,cs),
(524,118,o),
(548,146,o),
(559,176,c),
(562,256,l),
(555,220,o),
(537,188,o),
(514,166,cs),
(490,143,o),
(458,130,o),
(423,130,cs),
(388,130,o),
(362,143,o),
(349,166,c),
(335,188,o),
(332,222,o),
(340,262,cs),
(357,345,o),
(406,388,o),
(475,388,cs),
(511,388,o),
(537,375,o),
(552,354,cs),
(566,333,o),
(571,302,o),
(564,265,c),
(589,349,l),
(589,374,o),
(582,400,o),
(564,420,c),
(545,439,o),
(517,453,o),
(475,453,cs),
(427,453,o),
(380,434,o),
(343,400,cs),
(306,367,o),
(278,318,o),
(266,258,cs),
(254,199,o),
(263,150,o),
(286,117,cs),
(310,84,o),
(348,65,o),
(395,65,cs)
);
},
{
closed = 1;
nodes = (
(579,341,l),
(544,166,l),
(612,159,l),
(668,440,l),
(602,440,l),
(584,351,l)
);
}
);
width = 919;
},
{
layerId = "241EF7EF-D36E-442A-9877-44FE28558D1E";
shapes = (
{
closed = 1;
nodes = (
(383,-92,l),
(276,-92,o),
(192,-58,o),
(144,4,cs),
(94,66,o),
(76,155,o),
(98,264,cs),
(142,484,o),
(315,624,o),
(529,624,cs),
(633,624,o),
(715,594,o),
(766,536,cs),
(816,479,o),
(836,394,o),
(814,285,cs),
(800,213,o),
(759,104,o),
(668,104,cs),
(651,104,o),
(633,109,o),
(623,122,cs),
(613,135,o),
(610,159,o),
(617,196,c),
(574,160,l),
(570,127,o),
(578,104,o),
(596,90,c),
(613,75,o),
(636,67,o),
(663,67,cs),
(780,67,o),
(836,191,o),
(855,288,cs),
(878,402,o),
(857,496,o),
(800,561,cs),
(743,626,o),
(653,663,o),
(536,663,cs),
(297,663,o),
(106,509,o),
(57,263,cs),
(34,147,o),
(49,48,o),
(103,-22,cs),
(156,-91,o),
(249,-132,o),
(375,-132,c)
);
},
{
closed = 1;
nodes = (
(450,64,o),
(486,77,o),
(517,100,cs),
(547,122,o),
(572,153,o),
(584,189,c),
(588,257,l),
(580,215,o),
(561,178,o),
(533,150,cs),
(505,121,o),
(466,103,o),
(419,103,cs),
(375,103,o),
(344,120,o),
(328,149,cs),
(312,177,o),
(309,217,o),
(318,263,cs),
(337,359,o),
(396,415,o),
(482,415,cs),
(529,415,o),
(560,398,o),
(577,371,cs),
(594,344,o),
(598,307,o),
(589,264,c),
(607,340,l),
(608,367,o),
(601,394,o),
(583,417,c),
(563,439,o),
(532,454,o),
(487,454,cs),
(439,454,o),
(392,436,o),
(355,403,cs),
(318,370,o),
(291,321,o),
(279,261,cs),
(267,199,o),
(276,149,o),
(301,116,cs),
(326,83,o),
(364,64,o),
(411,64,cs)
);
},
{
closed = 1;
nodes = (
(604,341,l),
(568,160,l),
(609,156,l),
(665,438,l),
(627,438,l),
(609,351,l)
);
}
);
width = 919;
},
{
layerId = "BFB6D85B-0443-425C-887B-8FE5CF94470C";
shapes = (
{
closed = 1;
nodes = (
(387,-63,l),
(292,-63,o),
(221,-31,o),
(177,25,cs),
(133,81,o),
(119,162,o),
(139,262,cs),
(178,457,o),
(326,583,o),
(517,583,cs),
(612,583,o),
(684,556,o),
(729,506,cs),
(774,456,o),
(790,383,o),
(772,294,cs),
(762,245,o),
(730,153,o),
(665,153,cs),
(649,153,o),
(637,160,o),
(632,172,c),
(626,184,o),
(625,201,o),
(629,222,c),
(509,206,l),
(499,157,o),
(512,122,o),
(535,100,cs),
(558,78,o),
(592,67,o),
(627,67,cs),
(751,67,o),
(833,180,o),
(856,294,cs),
(878,402,o),
(859,495,o),
(803,560,cs),
(747,625,o),
(655,663,o),
(533,663,cs),
(299,663,o),
(103,502,o),
(55,262,cs),
(31,143,o),
(50,42,o),
(104,-30,cs),
(158,-101,o),
(249,-143,o),
(371,-143,c)
);
},
{
closed = 1;
nodes = (
(405,67,o),
(437,79,o),
(461,96,c),
(485,112,o),
(502,134,o),
(511,154,c),
(511,253,l),
(505,225,o),
(493,206,o),
(478,194,c),
(463,181,o),
(445,176,o),
(429,176,cs),
(412,176,o),
(396,183,o),
(387,196,c),
(377,209,o),
(373,231,o),
(379,259,cs),
(391,318,o),
(426,342,o),
(462,342,cs),
(479,342,o),
(496,336,o),
(506,324,c),
(515,312,o),
(519,293,o),
(514,268,c),
(557,365,l),
(554,389,o),
(545,410,o),
(529,426,c),
(512,441,o),
(488,451,o),
(454,451,cs),
(404,451,o),
(358,431,o),
(321,396,cs),
(284,361,o),
(257,312,o),
(245,253,cs),
(234,200,o),
(239,152,o),
(260,120,cs),
(281,87,o),
(317,67,o),
(365,67,cs)
);
},
{
closed = 1;
nodes = (
(529,341,l),
(496,175,l),
(617,164,l),
(672,440,l),
(553,440,l),
(535,351,l)
);
}
);
width = 919;
}
);
leftKerningGroup = public.kern2.at2;
rightKerningGroup = public.kern1.at;
unicode = 64;
},
{
glyphname = b;
layers = (
{
layerId = "33B6963F-6F20-48B1-9EF3-C92BB9E42515";
shapes = (
{
closed = 1;
nodes = (
(100,0,l),
(123,118,l),
(131,134,l),
(170,331,l),
(172,339,l),
(244,700,l),
(160,700,l),
(88,339,l),
(86,331,l),
(20,0,l)
);
},
{
closed = 1;
nodes = (
(388,-9,o),
(494,103,o),
(520,235,cs),
(547,369,o),
(489,479,o),
(356,479,cs),
(290,479,o),
(194,442,o),
(167,364,c),
(142,242,l),
(153,242,l),
(170,329,o),
(238,397,o),
(323,397,cs),
(413,397,o),
(449,327,o),
(431,236,cs),
(413,147,o),
(349,73,o),
(260,73,cs),
(215,73,o),
(184,92,o),
(166,122,cs),
(149,151,o),
(143,191,o),
(151,232,c),
(135,232,l),
(113,120,l),
(112,84,o),
(128,52,o),
(152,30,cs),
(177,6,o),
(212,-9,o),
(258,-9,cs)
);
}
);
width = 582;
},
{
layerId = "241EF7EF-D36E-442A-9877-44FE28558D1E";
shapes = (
{
closed = 1;
nodes = (
(65,0,l),
(93,137,l),
(95,138,l),
(133,327,l),
(134,335,l),
(207,700,l),
(162,700,l),
(89,335,l),
(88,327,l),
(23,0,l)
);
},
{
closed = 1;
nodes = (
(370,-9,o),
(476,105,o),
(502,234,cs),
(529,369,o),
(468,479,o),
(336,479,cs),
(244,479,o),
(154,410,o),
(117,317,c),
(113,243,l),
(116,243,l),
(138,351,o),
(222,436,o),
(327,436,cs),
(439,436,o),
(480,350,o),
(457,237,cs),
(435,129,o),
(360,34,o),
(249,34,cs),
(191,34,o),
(153,62,o),
(131,99,cs),
(109,137,o),
(104,185,o),
(113,231,c),
(106,231,l),
(85,162,l),
(85,117,o),
(98,74,o),
(124,42,cs),
(151,10,o),
(190,-9,o),
(241,-9,cs)
);
}
);
width = 582;
},
{
layerId = "BFB6D85B-0443-425C-887B-8FE5CF94470C";
shapes = (
{
closed = 1;
nodes = (
(142,0,l),
(165,111,l),
(176,126,l),
(219,339,l),
(220,346,l),
(291,700,l),
(134,700,l),
(63,346,l),
(62,339,l),
(-6,0,l)
);
},
{
closed = 1;
nodes = (
(419,-7,o),
(508,113,o),
(533,236,cs),
(558,360,o),
(516,477,o),
(387,477,cs),
(307,477,o),
(228,427,o),
(204,339,c),
(184,240,l),
(199,240,l),
(210,293,o),
(247,336,o),
(300,336,cs),
(356,336,o),
(376,290,o),
(365,235,cs),
(354,180,o),
(314,131,o),
(258,131,cs),
(238,131,o),
(219,139,o),
(208,156,c),
(196,172,o),
(191,198,o),
(198,234,c),
(178,234,l),
(157,129,l),
(156,92,o),
(166,57,o),
(189,33,c),
(211,8,o),
(244,-7,o),
(290,-7,cs)
);
}
);
width = 582;
}
);
leftKerningGroup = public.kern2.b2;
rightKerningGroup = public.kern1.b;
unicode = 98;
},
{
glyphname = backslash;
layers = (
{
layerId = "33B6963F-6F20-48B1-9EF3-C92BB9E42515";
shapes = (
{
closed = 1;
nodes = (
(123,-240,l),
(205,-240,l),
(150,700,l),
(67,700,l)
);
}
);
width = 316;
},
{
layerId = "241EF7EF-D36E-442A-9877-44FE28558D1E";
shapes = (
{
closed = 1;
nodes = (
(129,-240,l),
(168,-240,l),
(113,699,l),
(74,699,l)
);
}
);
width = 316;
},
{
layerId = "BFB6D85B-0443-425C-887B-8FE5CF94470C";
shapes = (
{
closed = 1;
nodes = (
(147,-239,l),
(288,-239,l),
(233,702,l),
(92,702,l)
);
}
);
width = 316;
}
);
unicode = 92;
},
{
glyphname = bar;
layers = (
{
layerId = "33B6963F-6F20-48B1-9EF3-C92BB9E42515";
shapes = (
{
closed = 1;
nodes = (
(271,700,l),
(189,700,l),
(1,-240,l),
(84,-240,l)
);
}
);
width = 300;
},
{
layerId = "241EF7EF-D36E-442A-9877-44FE28558D1E";
shapes = (
{
closed = 1;
nodes = (
(250,700,l),
(208,700,l),
(21,-240,l),
(63,-240,l)
);
}
);
width = 300;
},
{
layerId = "BFB6D85B-0443-425C-887B-8FE5CF94470C";
shapes = (
{
closed = 1;
nodes = (
(303,700,l),
(156,700,l),
(-32,-240,l),
(115,-240,l)
);
}
);
width = 300;
}
);
unicode = 124;
},
{
glyphname = becyr;
layers = (
{
layerId = "33B6963F-6F20-48B1-9EF3-C92BB9E42515";
shapes = (
{
closed = 1;
nodes = (
(350,-8,o),
(457,87,o),
(484,221,cs),
(497,286,o),
(489,343,o),
(462,384,c),
(434,423,o),
(388,448,o),
(323,448,cs),
(229,448,o),
(159,394,o),
(113,300,c),
(132,282,l),
(168,448,o),
(201,598,o),
(389,600,c),
(431,602,o),
(465,607,o),
(492,620,cs),
(518,632,o),
(539,652,o),
(555,683,c),
(497,721,l),
(485,706,o),
(473,696,o),
(459,691,c),
(444,685,o),
(426,682,o),
(402,681,c),
(195,680,o),
(103,516,o),
(64,322,cs),
(42,214,o),
(41,131,o),
(65,76,cs),
(88,20,o),
(139,-8,o),
(222,-8,cs)
);
},
{
closed = 1;
nodes = (
(198,69,o),
(168,83,o),
(151,110,c),
(133,135,o),
(126,173,o),
(136,222,cs),
(153,308,o),
(210,373,o),
(297,373,cs),
(340,373,o),
(369,358,o),
(386,331,c),
(402,304,o),
(407,266,o),
(398,221,cs),
(381,135,o),
(323,69,o),
(237,69,cs)
);
}
);
width = 559;
},
{
layerId = "241EF7EF-D36E-442A-9877-44FE28558D1E";
shapes = (
{
closed = 1;
nodes = (
(344,-8,o),
(442,92,o),
(467,218,cs),
(479,278,o),
(472,332,o),
(449,372,cs),
(425,412,o),
(383,437,o),
(324,437,cs),
(219,437,o),
(133,371,o),
(90,263,c),
(106,256,l),
(142,437,o),
(188,598,o),
(387,631,c),
(406,633,o),
(437,639,o),
(466,648,c),
(495,656,o),
(524,667,o),
(540,683,c),
(522,709,l),
(507,697,o),
(489,690,o),
(468,684,cs),
(446,678,o),
(420,673,o),
(387,668,cs),
(189,635,o),
(116,482,o),
(78,294,cs),
(56,184,o),
(61,108,o),
(88,61,c),
(114,12,o),
(162,-8,o),
(220,-8,cs)
);
},
{
closed = 1;
nodes = (
(183,32,o),
(148,51,o),
(127,83,c),
(108,115,o),
(100,162,o),
(111,218,cs),
(133,326,o),
(205,397,o),
(309,397,cs),
(358,397,o),
(393,377,o),
(413,346,c),
(431,314,o),
(435,268,o),
(425,218,cs),
(404,115,o),
(334,32,o),
(230,32,cs)
);
}
);
width = 559;
},
{
layerId = "BFB6D85B-0443-425C-887B-8FE5CF94470C";
shapes = (
{
closed = 1;
nodes = (
(364,-9,o),
(489,82,o),
(521,242,cs),
(535,310,o),
(525,364,o),
(496,401,cs),
(467,437,o),
(420,458,o),
(356,458,cs),
(274,458,o),
(195,419,o),
(146,338,c),
(157,338,l),
(203,475,o),
(233,539,o),
(378,554,c),
(440,559,o),
(483,571,o),
(518,593,cs),
(552,615,o),
(575,646,o),
(599,694,c),
(474,730,l),
(466,715,o),
(458,705,o),
(447,700,cs),
(436,695,o),
(419,691,o),
(391,690,cs),
(186,679,o),
(70,523,o),
(30,324,cs),
(7,211,o),
(14,128,o),
(46,73,cs),
(78,17,o),
(136,-9,o),
(217,-9,cs)
);
},
{
closed = 1;
nodes = (
(222,134,o),
(205,144,o),
(194,161,c),
(182,178,o),
(179,203,o),
(185,232,cs),
(196,289,o),
(234,329,o),
(290,329,cs),
(316,329,o),
(333,320,o),
(344,304,c),
(355,287,o),
(357,263,o),
(351,232,cs),
(340,177,o),
(304,134,o),
(249,134,cs)
);
}
);
width = 559;
}
);
unicode = 1073;
},
{
glyphname = beta;
layers = (
{
layerId = "33B6963F-6F20-48B1-9EF3-C92BB9E42515";
shapes = (
{
closed = 1;
nodes = (
(348,-10,o),
(440,61,o),
(462,173,cs),
(482,272,o),
(410,343,o),
(298,364,c),
(417,398,o),
(491,459,o),
(510,553,cs),
(532,663,o),
(455,710,o),
(361,710,cs),
(198,710,o),
(143,571,o),
(114,428,cs),
(-19,-240,l),
(62,-240,l),
(191,408,ls),
(210,502,o),
(229,634,o),
(349,634,cs),
(401,634,o),
(440,612,o),
(428,552,cs),
(411,469,o),
(339,402,o),
(217,356,c),
(329,307,o),
(392,234,o),
(379,171,cs),
(366,106,o),
(316,65,o),
(248,65,cs),
(210,65,o),
(156,78,o),
(134,104,c),
(90,48,l),
(115,11,o),
(193,-10,o),
(240,-10,cs)
);
}
);
width = 574;
},
{
layerId = "241EF7EF-D36E-442A-9877-44FE28558D1E";
shapes = (
{
closed = 1;
nodes = (
(331,-10,o),
(424,50,o),
(442,140,cs),
(462,241,o),
(393,324,o),
(264,352,c),
(397,388,o),
(485,467,o),
(505,569,cs),
(524,664,o),
(473,710,o),
(387,710,cs),
(233,710,o),
(186,562,o),
(160,433,cs),
(26,-240,l),
(66,-240,l),
(198,421,ls),
(219,525,o),
(249,671,o),
(380,671,cs),
(446,671,o),
(480,640,o),
(466,569,cs),
(449,485,o),
(362,410,o),
(211,350,c),
(347,298,o),
(418,216,o),
(401,132,cs),
(388,68,o),
(319,29,o),
(257,29,cs),
(208,29,o),
(149,45,o),
(126,75,c),
(98,46,l),
(126,10,o),
(197,-10,o),
(245,-10,cs)
);
}
);
width = 574;
},
{
layerId = "BFB6D85B-0443-425C-887B-8FE5CF94470C";
shapes = (
{
closed = 1;
nodes = (
(342,-7,o),
(458,45,o),
(481,159,cs),
(509,299,o),
(425,342,o),
(372,364,c),
(425,392,o),
(517,443,o),
(533,525,cs),
(559,655,o),
(462,710,o),
(352,710,cs),
(209,710,o),
(106,622,o),
(76,471,cs),
(-66,-240,l),
(90,-240,l),
(229,452,ls),
(240,505,o),
(259,567,o),
(323,567,cs),
(361,567,o),
(379,543,o),
(371,503,cs),
(360,446,o),
(305,391,o),
(219,340,c),
(314,287,o),
(341,248,o),
(329,187,cs),
(321,147,o),
(292,123,o),
(249,123,cs),
(220,123,o),
(178,133,o),
(159,152,c),
(96,30,l),
(124,2,o),
(200,-7,o),
(242,-7,cs)
);
}
);
width = 574;
}
);
unicode = 946;
},
{
glyphname = braceleft;
layers = (
{
layerId = "33B6963F-6F20-48B1-9EF3-C92BB9E42515";
shapes = (
{
closed = 1;
nodes = (
(283,-240,l),
(299,-164,l),
(221,-164,ls),
(194,-164,o),
(175,-159,o),
(166,-147,cs),
(156,-134,o),
(155,-111,o),
(162,-74,cs),
(204,139,ls),
(213,183,o),
(210,218,o),
(195,243,cs),
(180,267,o),
(155,282,o),
(122,290,c),
(158,298,o),
(189,313,o),
(214,338,cs),
(238,362,o),
(256,398,o),
(265,442,cs),
(307,653,ls),
(314,690,o),
(325,714,o),
(340,727,cs),
(354,739,o),
(376,744,o),
(403,744,cs),
(480,744,l),
(495,820,l),
(411,820,ls),
(355,820,o),
(316,809,o),
(288,783,cs),
(260,757,o),
(244,716,o),
(233,660,cs),
(190,447,ls),
(176,375,o),
(134,324,o),
(42,299,c),
(39,281,l),
(121,256,o),
(142,205,o),
(128,134,cs),
(85,-80,ls),
(74,-136,o),
(74,-177,o),
(91,-203,cs),
(108,-229,o),
(143,-240,o),
(199,-240,cs)
);
}
);
width = 415;
},
{
layerId = "241EF7EF-D36E-442A-9877-44FE28558D1E";
shapes = (
{
closed = 1;
nodes = (
(276,-240,l),
(283,-206,l),
(199,-206,ls),
(155,-206,o),
(131,-203,o),
(122,-187,c),
(112,-171,o),
(117,-140,o),
(129,-80,cs),
(170,125,ls),
(178,165,o),
(178,197,o),
(168,223,cs),
(158,249,o),
(136,270,o),
(105,290,c),
(144,310,o),
(174,333,o),
(195,359,cs),
(216,385,o),
(228,415,o),
(236,455,cs),
(277,660,ls),
(289,720,o),
(297,751,o),
(313,767,c),
(328,783,o),
(353,786,o),
(397,786,cs),
(481,786,l),
(488,820,l),
(387,820,ls),
(341,820,o),
(312,812,o),
(290,791,cs),
(268,770,o),
(255,736,o),
(244,683,cs),
(197,447,ls),
(183,376,o),
(145,335,o),
(56,299,c),
(52,281,l),
(126,245,o),
(148,204,o),
(134,133,cs),
(87,-103,ls),
(76,-156,o),
(77,-190,o),
(90,-211,cs),
(103,-232,o),
(130,-240,o),
(176,-240,cs)
);
}
);
width = 415;
},
{
layerId = "BFB6D85B-0443-425C-887B-8FE5CF94470C";
shapes = (
{
closed = 1;
nodes = (
(272,-240,l),
(300,-100,l),
(269,-100,ls),
(239,-100,o),
(219,-96,o),
(210,-84,cs),
(201,-72,o),
(201,-53,o),
(207,-24,cs),
(246,170,ls),
(252,199,o),
(249,225,o),
(238,246,cs),
(227,267,o),
(211,282,o),
(186,290,c),
(214,298,o),
(237,314,o),
(256,336,cs),
(275,358,o),
(289,387,o),
(296,420,cs),
(331,597,ls),
(338,630,o),
(346,651,o),
(360,664,c),
(374,676,o),
(395,680,o),
(425,680,cs),
(456,680,l),
(484,820,l),
(400,820,ls),
(333,820,o),
(289,809,o),
(257,783,cs),
(225,757,o),
(207,716,o),
(196,660,cs),
(154,447,ls),
(140,375,o),
(106,324,o),
(31,299,c),
(28,281,l),
(93,256,o),
(106,206,o),
(93,143,cs),
(49,-80,ls),
(38,-136,o),
(39,-177,o),
(60,-203,cs),
(81,-229,o),
(121,-240,o),
(188,-240,cs)
);
}
);
width = 415;
}
);
rightKerningGroup = public.kern1.parenleft;
unicode = 123;
},
{
glyphname = braceright;
layers = (
{
layerId = "33B6963F-6F20-48B1-9EF3-C92BB9E42515";
shapes = (
{
closed = 1;
nodes = (
(-21,-240,ls),
(35,-240,o),
(74,-229,o),
(102,-203,cs),
(130,-177,o),
(146,-136,o),
(157,-80,cs),
(199,134,ls),
(213,205,o),
(255,256,o),
(347,281,c),
(351,299,l),
(269,324,o),
(248,375,o),
(262,447,cs),
(305,660,ls),
(316,716,o),
(316,757,o),
(299,783,cs),
(282,809,o),
(246,820,o),
(190,820,cs),
(106,820,l),
(91,744,l),
(168,744,ls),
(195,744,o),
(215,739,o),
(225,727,c),
(234,714,o),
(235,690,o),
(228,653,cs),
(186,442,ls),
(177,398,o),
(180,362,o),
(195,338,cs),
(210,313,o),
(235,298,o),
(268,290,c),
(232,282,o),
(200,267,o),
(176,243,cs),
(151,218,o),
(134,183,o),
(125,139,cs),
(82,-74,ls),
(75,-111,o),
(64,-134,o),
(50,-147,c),
(35,-159,o),
(14,-164,o),
(-13,-164,cs),
(-90,-164,l),
(-106,-240,l)
);
}
);
width = 415;
},
{
layerId = "241EF7EF-D36E-442A-9877-44FE28558D1E";
shapes = (
{
closed = 1;
nodes = (
(-39,-240,ls),
(7,-240,o),
(36,-232,o),
(58,-211,cs),
(80,-190,o),
(93,-156,o),
(104,-103,cs),
(151,133,ls),
(165,204,o),
(202,245,o),
(291,281,c),
(295,299,l),
(221,335,o),
(200,376,o),
(214,447,cs),
(261,683,ls),
(272,736,o),
(271,770,o),
(258,791,cs),
(245,812,o),
(219,820,o),
(173,820,cs),
(71,820,l),
(64,786,l),
(148,786,ls),
(192,786,o),
(216,783,o),
(226,767,cs),
(236,751,o),
(230,720,o),
(218,660,cs),
(177,455,ls),
(169,415,o),
(171,385,o),
(181,359,c),
(191,333,o),
(211,310,o),
(242,290,c),
(203,270,o),
(173,249,o),
(153,223,c),
(132,197,o),
(119,165,o),
(111,125,cs),
(70,-80,ls),
(58,-140,o),
(51,-171,o),
(35,-187,cs),
(19,-203,o),
(-6,-206,o),
(-50,-206,cs),
(-134,-206,l),
(-141,-240,l)
);
}
);
width = 415;
},
{
layerId = "BFB6D85B-0443-425C-887B-8FE5CF94470C";
shapes = (
{
closed = 1;
nodes = (
(-5,-240,ls),
(62,-240,o),
(106,-229,o),
(138,-203,cs),
(170,-177,o),
(188,-136,o),
(199,-80,cs),
(243,143,ls),
(256,206,o),
(289,256,o),
(364,281,c),
(367,299,l),
(302,324,o),
(290,375,o),
(304,447,cs),
(346,660,ls),
(357,716,o),
(356,757,o),
(335,783,cs),
(314,809,o),
(274,820,o),
(207,820,cs),
(123,820,l),
(95,680,l),
(126,680,ls),
(156,680,o),
(176,676,o),
(185,664,c),
(194,651,o),
(194,630,o),
(187,597,cs),
(151,420,ls),
(144,387,o),
(147,358,o),
(157,336,cs),
(167,314,o),
(184,298,o),
(209,290,c),
(181,282,o),
(158,267,o),
(139,246,cs),
(120,225,o),
(107,199,o),
(101,170,cs),
(63,-24,ls),
(57,-53,o),
(49,-72,o),
(35,-84,cs),
(21,-96,o),
(0,-100,o),
(-30,-100,cs),
(-61,-100,l),
(-89,-240,l)
);
}
);
width = 415;
}
);
leftKerningGroup = public.kern2.parenright;
unicode = 125;
},
{
glyphname = bracketleft;
layers = (
{
layerId = "33B6963F-6F20-48B1-9EF3-C92BB9E42515";
shapes = (
{
closed = 1;
nodes = (
(229,-240,l),
(244,-164,l),
(89,-164,l),
(270,744,l),
(425,744,l),
(440,820,l),
(210,820,l),
(-2,-240,l)
);
}
);
width = 362;
},
{
layerId = "241EF7EF-D36E-442A-9877-44FE28558D1E";
shapes = (
{
closed = 1;
nodes = (
(238,-240,l),
(245,-206,l),
(65,-206,l),
(263,786,l),
(443,786,l),
(450,820,l),
(232,820,l),
(20,-240,l)
);
}
);
width = 362;
},
{
layerId = "BFB6D85B-0443-425C-887B-8FE5CF94470C";
shapes = (
{
closed = 1;
nodes = (
(220,-240,l),
(248,-100,l),
(140,-100,l),
(295,680,l),
(404,680,l),
(432,820,l),
(176,820,l),
(-35,-240,l)
);
}
);
width = 362;
}
);
rightKerningGroup = public.kern1.parenleft;
unicode = 91;
},
{
glyphname = bracketright;
layers = (
{
layerId = "33B6963F-6F20-48B1-9EF3-C92BB9E42515";
shapes = (
{
closed = 1;
nodes = (
(127,-240,l),
(339,820,l),
(108,820,l),
(93,744,l),
(248,744,l),
(66,-164,l),
(-88,-164,l),
(-104,-240,l)
);
}
);
width = 362;
},
{
layerId = "241EF7EF-D36E-442A-9877-44FE28558D1E";
shapes = (
{
closed = 1;
nodes = (
(92,-240,l),
(304,820,l),
(87,820,l),
(81,786,l),
(260,786,l),
(62,-206,l),
(-118,-206,l),
(-124,-240,l)
);
}
);
width = 362;
},
{
layerId = "BFB6D85B-0443-425C-887B-8FE5CF94470C";
shapes = (
{
closed = 1;
nodes = (
(168,-240,l),
(380,820,l),
(125,820,l),
(97,680,l),
(205,680,l),
(49,-100,l),
(-59,-100,l),
(-87,-240,l)
);
}
);
width = 362;
}
);
leftKerningGroup = public.kern2.parenright;
unicode = 93;
},
{
glyphname = brevecomb;
layers = (
{
layerId = "33B6963F-6F20-48B1-9EF3-C92BB9E42515";
shapes = (
{
closed = 1;
nodes = (
(-175,560,o),
(-117,598,o),
(-78,658,c),
(-115,688,l),
(-145,652,o),
(-186,625,o),
(-230,625,cs),
(-276,625,o),
(-307,653,o),
(-321,688,c),
(-370,658,l),
(-355,598,o),
(-311,560,o),
(-243,560,cs)
);
}
);
width = 24;
},
{
layerId = "241EF7EF-D36E-442A-9877-44FE28558D1E";
shapes = (
{
closed = 1;
nodes = (
(-156,561,o),
(-104,600,o),
(-66,656,c),
(-91,673,l),
(-119,636,o),
(-158,602,o),
(-216,602,cs),
(-272,602,o),
(-300,636,o),
(-313,673,c),
(-345,656,l),
(-330,600,o),
(-292,561,o),
(-224,561,cs)
);
}
);
width = 24;
},
{
layerId = "BFB6D85B-0443-425C-887B-8FE5CF94470C";
shapes = (
{
closed = 1;
nodes = (
(-201,544,o),
(-142,580,o),
(-96,640,c),
(-135,688,l),
(-164,659,o),
(-200,636,o),
(-250,636,cs),
(-300,636,o),
(-327,659,o),
(-345,688,c),
(-403,640,l),
(-381,580,o),
(-337,544,o),
(-269,544,cs)
);
}
);
width = 24;
}
);
unicode = 774;
},
{
glyphname = brevecomb.case;
layers = (
{
layerId = "33B6963F-6F20-48B1-9EF3-C92BB9E42515";
shapes = (
{
closed = 1;
nodes = (
(-253,757,o),
(-194,793,o),
(-157,862,c),
(-198,890,l),
(-225,850,o),
(-267,826,o),
(-313,826,cs),
(-357,826,o),
(-388,847,o),
(-407,890,c),
(-459,862,l),
(-449,795,o),
(-404,757,o),
(-327,757,cs)
);
}
);
width = 24;
},
{
layerId = "241EF7EF-D36E-442A-9877-44FE28558D1E";
shapes = (
{
closed = 1;
nodes = (
(-246,761,o),
(-188,803,o),
(-157,867,c),
(-180,879,l),
(-209,836,o),
(-259,805,o),
(-311,805,cs),
(-361,805,o),
(-398,836,o),
(-412,879,c),
(-440,867,l),
(-434,803,o),
(-391,761,o),
(-320,761,cs)
);
}
);
width = 24;
},
{
layerId = "BFB6D85B-0443-425C-887B-8FE5CF94470C";
shapes = (
{
closed = 1;
nodes = (
(-247,761,o),
(-187,792,o),
(-143,843,c),
(-182,891,l),
(-211,868,o),
(-247,853,o),
(-299,853,cs),
(-351,853,o),
(-382,868,o),
(-402,891,c),
(-460,843,l),
(-436,792,o),
(-389,761,o),
(-318,761,cs)
);
}
);
width = 24;
}
);
},
{
glyphname = brevecomb.narrow;
layers = (
{
layerId = "33B6963F-6F20-48B1-9EF3-C92BB9E42515";
shapes = (
{
closed = 1;
nodes = (
(-154,560,o),
(-102,598,o),
(-66,658,c),
(-103,688,l),
(-129,652,o),
(-165,625,o),
(-201,625,cs),
(-237,625,o),
(-261,653,o),
(-273,688,c),
(-322,658,l),
(-309,598,o),
(-274,560,o),
(-214,560,cs)
);
}
);
width = 24;
},
{
layerId = "241EF7EF-D36E-442A-9877-44FE28558D1E";
shapes = (
{
closed = 1;
nodes = (
(-149,561,o),
(-107,600,o),
(-75,656,c),
(-101,673,l),
(-124,636,o),
(-154,602,o),
(-196,602,cs),
(-238,602,o),
(-255,636,o),
(-263,673,c),
(-296,656,l),
(-285,600,o),
(-258,561,o),
(-204,561,cs)
);
}
);
width = 24;
},
{
layerId = "BFB6D85B-0443-425C-887B-8FE5CF94470C";
shapes = (
{
closed = 1;
nodes = (
(-184,544,o),
(-128,580,o),
(-85,640,c),
(-125,688,l),
(-151,659,o),
(-186,636,o),
(-230,636,cs),
(-274,636,o),
(-300,659,o),
(-315,688,c),
(-373,640,l),
(-354,580,o),
(-312,544,o),
(-248,544,cs)
);
}
);
width = 24;
}
);
},
{
glyphname = brevecombcy;
layers = (
{
layerId = "33B6963F-6F20-48B1-9EF3-C92BB9E42515";
shapes = (
{
closed = 1;
nodes = (
(-204,507,o),
(-166,519,o),
(-136,541,cs),
(-106,563,o),
(-84,594,o),
(-74,638,c),
(-144,638,l),
(-153,594,o),
(-184,569,o),
(-230,569,cs),
(-278,569,o),
(-297,597,o),
(-290,638,c),
(-359,638,l),
(-368,594,o),
(-360,563,o),
(-339,541,cs),
(-318,519,o),
(-284,507,o),
(-244,507,cs)
);
}
);
width = 24;
},
{
layerId = "241EF7EF-D36E-442A-9877-44FE28558D1E";
shapes = (
{
closed = 1;
nodes = (
(-173,516,o),
(-137,526,o),
(-110,545,cs),
(-83,564,o),
(-65,591,o),
(-58,626,c),
(-96,626,l),
(-103,575,o),
(-149,547,o),
(-208,547,cs),
(-270,547,o),
(-297,579,o),
(-288,626,c),
(-324,626,l),
(-334,591,o),
(-326,564,o),
(-307,545,cs),
(-287,526,o),
(-256,516,o),
(-216,516,cs)
);
}
);
width = 24;
},
{
layerId = "BFB6D85B-0443-425C-887B-8FE5CF94470C";
shapes = (
{
closed = 1;
nodes = (
(-166,491,o),
(-125,503,o),
(-90,528,cs),
(-55,552,o),
(-28,589,o),
(-15,641,c),
(-120,641,l),
(-129,610,o),
(-148,588,o),
(-184,588,cs),
(-220,588,o),
(-228,610,o),
(-225,641,c),
(-332,641,l),
(-339,589,o),
(-328,552,o),
(-304,528,c),
(-281,503,o),
(-244,491,o),
(-204,491,cs)
);
}
);
width = 24;
}
);
},
{
glyphname = brevecombcy.case;
layers = (
{
layerId = "33B6963F-6F20-48B1-9EF3-C92BB9E42515";
shapes = (
{
closed = 1;
nodes = (
(-228,741,o),
(-182,758,o),
(-147,783,c),
(-111,807,o),
(-87,843,o),
(-77,880,c),
(-155,880,l),
(-162,861,o),
(-174,844,o),
(-192,832,c),
(-209,820,o),
(-234,812,o),
(-266,812,cs),
(-298,812,o),
(-320,820,o),
(-333,832,c),
(-345,844,o),
(-349,861,o),
(-348,880,c),
(-432,880,l),
(-436,828,o),
(-419,792,o),
(-389,771,cs),
(-359,750,o),
(-321,741,o),
(-282,741,cs)
);
}
);
width = 24;
},
{
layerId = "241EF7EF-D36E-442A-9877-44FE28558D1E";
shapes = (
{
closed = 1;
nodes = (
(-252,747,o),
(-218,758,o),
(-192,777,cs),
(-165,796,o),
(-147,822,o),
(-140,851,c),
(-179,851,l),
(-186,832,o),
(-197,816,o),
(-215,804,c),
(-232,791,o),
(-256,783,o),
(-284,783,cs),
(-314,783,o),
(-332,791,o),
(-344,804,c),
(-356,816,o),
(-360,832,o),
(-360,851,c),
(-403,851,l),
(-407,811,o),
(-394,784,o),
(-372,768,cs),
(-350,752,o),
(-318,747,o),
(-291,747,cs)
);
}
);
width = 24;
},
{
layerId = "BFB6D85B-0443-425C-887B-8FE5CF94470C";
shapes = (
{
closed = 1;
nodes = (
(-230,731,o),
(-179,749,o),
(-139,777,cs),
(-99,805,o),
(-72,843,o),
(-62,880,c),
(-192,880,l),
(-197,868,o),
(-205,856,o),
(-216,848,c),
(-228,839,o),
(-243,834,o),
(-266,834,cs),
(-289,834,o),
(-301,839,o),
(-311,848,cs),
(-320,856,o),
(-323,868,o),
(-322,880,c),
(-459,880,l),
(-462,827,o),
(-443,789,o),
(-412,765,cs),
(-381,741,o),
(-335,731,o),
(-288,731,cs)
);
}
);
width = 24;
}
);
},
{
glyphname = breveinvertedcomb;
layers = (
{
layerId = "33B6963F-6F20-48B1-9EF3-C92BB9E42515";
shapes = (
{
closed = 1;
nodes = (
(46,688,o),
(-14,650,o),
(-52,590,c),
(-15,560,l),
(13,596,o),
(55,623,o),
(101,623,cs),
(145,623,o),
(176,596,o),
(191,560,c),
(240,590,l),
(225,650,o),
(182,688,o),
(114,688,cs)
);
}
);
width = 72;
},
{
layerId = "241EF7EF-D36E-442A-9877-44FE28558D1E";
shapes = (
{
closed = 1;
nodes = (
(42,673,o),
(-10,634,o),
(-48,578,c),
(-23,561,l),
(5,598,o),
(46,632,o),
(102,632,cs),
(160,632,o),
(186,598,o),
(199,561,c),
(231,578,l),
(216,634,o),
(178,673,o),
(110,673,cs)
);
}
);
width = 72;
},
{
layerId = "BFB6D85B-0443-425C-887B-8FE5CF94470C";
shapes = (
{
closed = 1;
nodes = (
(46,688,o),
(-13,652,o),
(-59,592,c),
(-19,544,l),
(10,573,o),
(46,596,o),
(96,596,cs),
(146,596,o),
(172,573,o),
(190,544,c),
(249,592,l),
(227,652,o),
(182,688,o),
(114,688,cs)
);
}
);
width = 72;
}
);
unicode = 785;
},
{
glyphname = breveinvertedcomb.case;
layers = (
{
layerId = "33B6963F-6F20-48B1-9EF3-C92BB9E42515";
shapes = (
{
closed = 1;
nodes = (
(47,890,o),
(-11,854,o),
(-49,785,c),
(-8,757,l),
(19,797,o),
(61,821,o),
(108,821,cs),
(152,821,o),
(182,800,o),
(201,757,c),
(252,785,l),
(243,852,o),
(196,890,o),
(121,890,cs)
);
}
);
width = 72;
},
{
layerId = "241EF7EF-D36E-442A-9877-44FE28558D1E";
shapes = (
{
closed = 1;
nodes = (
(50,879,o),
(-9,837,o),
(-41,772,c),
(-18,761,l),
(11,802,o),
(62,834,o),
(113,834,cs),
(164,834,o),
(201,802,o),
(215,761,c),
(241,772,l),
(235,837,o),
(194,879,o),
(122,879,cs)
);
}
);
width = 72;
},
{
layerId = "BFB6D85B-0443-425C-887B-8FE5CF94470C";
shapes = (
{
closed = 1;
nodes = (
(52,891,o),
(-8,860,o),
(-52,809,c),
(-12,761,l),
(17,784,o),
(53,799,o),
(105,799,cs),
(157,799,o),
(187,784,o),
(207,761,c),
(266,809,l),
(242,860,o),
(194,891,o),
(123,891,cs)
);
}
);
width = 72;
}
);
},
{
glyphname = brokenbar;
layers = (
{
layerId = "33B6963F-6F20-48B1-9EF3-C92BB9E42515";
shapes = (
{
closed = 1;
nodes = (
(203,359,l),
(271,700,l),
(189,700,l),
(121,359,l)
);
},
{
closed = 1;
nodes = (
(78,146,l),
(1,-240,l),
(84,-240,l),
(161,146,l)
);
}
);
width = 300;
},
{
layerId = "241EF7EF-D36E-442A-9877-44FE28558D1E";
shapes = (
{
closed = 1;
nodes = (
(184,365,l),
(250,700,l),
(208,700,l),
(141,365,l)
);
},
{
closed = 1;
nodes = (
(96,140,l),
(21,-240,l),
(63,-240,l),
(139,140,l)
);
}
);
width = 300;
},
{
layerId = "BFB6D85B-0443-425C-887B-8FE5CF94470C";
shapes = (
{
closed = 1;
nodes = (
(235,359,l),
(303,700,l),
(156,700,l),
(88,359,l)
);
},
{
closed = 1;
nodes = (
(45,146,l),
(-32,-240,l),
(115,-240,l),
(192,146,l)
);
}
);
width = 300;
}
);
unicode = 166;
},
{
glyphname = bullet;
layers = (
{
layerId = "33B6963F-6F20-48B1-9EF3-C92BB9E42515";
shapes = (
{
closed = 1;
nodes = (
(154,147,o),
(179,156,o),
(198,172,c),
(216,188,o),
(229,209,o),
(234,233,cs),
(244,282,o),
(220,322,o),
(162,322,cs),
(104,322,o),
(67,282,o),
(57,233,cs),
(48,186,o),
(71,147,o),
(127,147,cs)
);
}
);
width = 308;
},
{
layerId = "241EF7EF-D36E-442A-9877-44FE28558D1E";
shapes = (
{
closed = 1;
nodes = (
(163,182,o),
(176,188,o),
(185,196,c),
(193,204,o),
(202,217,o),
(204,229,c),
(210,257,o),
(194,277,o),
(167,277,cs),
(139,277,o),
(117,257,o),
(111,229,c),
(106,202,o),
(120,182,o),
(148,182,cs)
);
}
);
width = 308;
},
{
layerId = "BFB6D85B-0443-425C-887B-8FE5CF94470C";
shapes = (
{
closed = 1;
nodes = (
(153,115,o),
(187,129,o),
(215,152,cs),
(242,175,o),
(260,208,o),
(267,241,cs),
(281,313,o),
(247,371,o),
(162,371,cs),
(77,371,o),
(24,313,o),
(10,241,cs),
(-4,172,o),
(29,115,o),
(111,115,cs)
);
}
);
width = 308;
}
);
leftKerningGroup = public.kern2.bullet2;
rightKerningGroup = public.kern1.bullet;
unicode = 8226;
},
{
glyphname = bullet.case;
layers = (
{
layerId = "33B6963F-6F20-48B1-9EF3-C92BB9E42515";
shapes = (
{
closed = 1;
nodes = (
(178,266,o),
(203,275,o),
(222,292,cs),
(240,308,o),
(253,329,o),
(258,353,cs),
(268,402,o),
(244,442,o),
(186,442,cs),
(128,442,o),
(91,402,o),
(81,353,cs),
(71,305,o),
(95,266,o),
(151,266,cs)
);
}
);
width = 308;
},
{
layerId = "241EF7EF-D36E-442A-9877-44FE28558D1E";
shapes = (
{
closed = 1;
nodes = (
(192,328,o),
(205,334,o),
(214,342,c),
(222,350,o),
(231,363,o),
(233,375,c),
(239,403,o),
(223,423,o),
(196,423,cs),
(168,423,o),
(147,403,o),
(141,375,c),
(136,348,o),
(149,328,o),
(177,328,cs)
);
}
);
width = 308;
},
{
layerId = "BFB6D85B-0443-425C-887B-8FE5CF94470C";
shapes = (
{
closed = 1;
nodes = (
(175,225,o),
(209,239,o),
(237,262,cs),
(264,285,o),
(282,318,o),
(289,351,cs),
(303,423,o),
(269,481,o),
(184,481,cs),
(99,481,o),
(46,423,o),
(32,351,cs),
(18,282,o),
(51,225,o),
(133,225,cs)
);
}
);
width = 308;
}
);
leftKerningGroup = public.kern2.hyphen.case2;
rightKerningGroup = public.kern1.hyphen.case;
},
{
glyphname = c;
layers = (
{
layerId = "33B6963F-6F20-48B1-9EF3-C92BB9E42515";
shapes = (
{
closed = 1;
nodes = (
(300,-9,o),
(368,25,o),
(417,74,c),
(376,129,l),
(342,94,o),
(297,71,o),
(244,71,cs),
(198,71,o),
(164,88,o),
(143,118,cs),
(121,148,o),
(114,189,o),
(124,238,cs),
(134,289,o),
(158,328,o),
(191,356,cs),
(223,384,o),
(263,399,o),
(305,399,cs),
(354,399,o),
(394,377,o),
(416,342,c),
(477,408,l),
(461,429,o),
(439,448,o),
(412,460,c),
(384,471,o),
(352,479,o),
(317,479,cs),
(252,479,o),
(190,455,o),
(141,414,cs),
(91,373,o),
(53,312,o),
(38,236,cs),
(24,167,o),
(34,105,o),
(65,62,cs),
(96,18,o),
(150,-9,o),
(219,-9,cs)
);
}
);
width = 499;
},
{
layerId = "241EF7EF-D36E-442A-9877-44FE28558D1E";
shapes = (
{
closed = 1;
nodes = (
(299,-9,o),
(362,26,o),
(408,69,c),
(386,98,l),
(349,61,o),
(292,34,o),
(230,34,cs),
(176,34,o),
(132,54,o),
(106,91,c),
(79,127,o),
(67,179,o),
(79,239,cs),
(92,304,o),
(124,353,o),
(165,386,cs),
(205,418,o),
(257,436,o),
(305,436,cs),
(363,436,o),
(411,414,o),
(438,373,c),
(471,408,l),
(454,432,o),
(429,449,o),
(403,461,cs),
(377,473,o),
(346,479,o),
(315,479,cs),
(253,479,o),
(190,457,o),
(140,415,cs),
(89,373,o),
(52,314,o),
(37,239,cs),
(24,172,o),
(33,109,o),
(64,64,cs),
(95,19,o),
(148,-9,o),
(219,-9,cs)
);
}
);
width = 499;
},
{
layerId = "BFB6D85B-0443-425C-887B-8FE5CF94470C";
shapes = (
{
closed = 1;
nodes = (
(297,-7,o),
(374,20,o),
(427,80,c),
(356,174,l),
(324,147,o),
(298,130,o),
(263,130,cs),
(234,130,o),
(213,141,o),
(203,161,c),
(192,180,o),
(190,207,o),
(196,236,cs),
(201,263,o),
(212,289,o),
(230,309,cs),
(248,328,o),
(272,340,o),
(302,340,cs),
(339,340,o),
(362,321,o),
(381,297,c),
(478,404,l),
(467,424,o),
(446,443,o),
(418,456,c),
(389,468,o),
(354,477,o),
(313,477,cs),
(245,477,o),
(181,455,o),
(131,413,cs),
(81,371,o),
(43,309,o),
(28,232,cs),
(13,157,o),
(24,97,o),
(58,57,c),
(91,16,o),
(145,-7,o),
(216,-7,cs)
);
}
);
width = 499;
}
);
leftKerningGroup = public.kern2.a2;
rightKerningGroup = public.kern1.c;
unicode = 99;
},
{
glyphname = caroncomb;
layers = (
{
layerId = "33B6963F-6F20-48B1-9EF3-C92BB9E42515";
shapes = (
{
closed = 1;
nodes = (
(-333,696,l),
(-364,667,l),
(-290,557,l),
(-198,557,l),
(-80,667,l),
(-99,696,l),
(-272,595,l),
(-200,595,l)
);
}
);
width = 24;
},
{
layerId = "241EF7EF-D36E-442A-9877-44FE28558D1E";
shapes = (
{
closed = 1;
nodes = (
(-318,680,l),
(-340,657,l),
(-257,561,l),
(-210,561,l),
(-88,657,l),
(-101,680,l),
(-255,587,l),
(-200,587,l)
);
}
);
width = 24;
},
{
layerId = "BFB6D85B-0443-425C-887B-8FE5CF94470C";
shapes = (
{
closed = 1;
nodes = (
(-367,707,l),
(-401,678,l),
(-321,536,l),
(-212,536,l),
(-75,678,l),
(-98,707,l),
(-280,606,l),
(-225,606,l)
);
}
);
width = 24;
}
);
unicode = 780;
},
